<svg width="11" height="18" viewBox="0 0 11 18" fill="none" xmlns="http://www.w3.org/2000/svg">
<path fill-rule="evenodd" clip-rule="evenodd" d="M5.77523 0C2.88974 0 0.550781 2.22602 0.550781 4.97196C0.550781 5.75605 0.745253 6.529 1.11912 7.22777L1.12051 7.22993C2.57601 9.68945 4.23483 12.1857 5.79778 14.6398C7.2539 12.1207 9.03647 9.78373 10.4303 7.22895C10.8063 6.53054 10.9982 5.7571 11 4.97239C10.9999 2.22649 8.66078 0.000435072 5.77523 0.000435072L5.77485 5.47516e-05L5.77523 0ZM5.77561 2.08582C6.50657 2.08569 7.20764 2.376 7.72451 2.89272C8.2415 3.40959 8.53193 4.1105 8.53193 4.84149C8.53206 5.57245 8.24162 6.27352 7.72464 6.79039C7.20777 7.30725 6.5066 7.59755 5.77561 7.59742C5.04475 7.59729 4.34384 7.30698 3.8271 6.79013C3.31024 6.27326 3.02007 5.57236 3.02007 4.84149C3.02007 4.11063 3.31038 3.40972 3.82723 2.89298C4.34397 2.37625 5.04478 2.08595 5.77561 2.08582ZM1.0701 11.0152C0.888054 11.0152 0.741764 11.1763 0.741764 11.3765V17.2919C0.741764 17.4921 0.88806 17.6532 1.0701 17.6532H10.4808C10.6628 17.6532 10.8091 17.4921 10.8091 17.2919V11.3765C10.8091 11.1764 10.6628 11.0152 10.4808 11.0152H8.63358L5.79804 15.5429L2.91709 11.0973L1.06987 11.0153L1.0701 11.0152Z" fill="#1FC28F"/>
</svg>
