<svg width="25" height="25" viewBox="0 0 25 25" fill="none" xmlns="http://www.w3.org/2000/svg">
<path d="M3.54286 0C5.50565 0 7.08572 1.58006 7.08572 3.54286C7.08572 5.50565 5.50565 7.08571 3.54286 7.08571C1.58006 7.08571 0 5.50565 0 3.54286C0 1.58006 1.58006 0 3.54286 0Z" fill="#1FC28F"/>
<path d="M12.4003 0C14.3631 0 15.9431 1.58006 15.9431 3.54286C15.9431 5.50565 14.3631 7.08571 12.4003 7.08571C10.4375 7.08571 8.85742 5.50565 8.85742 3.54286C8.85742 1.58006 10.4375 0 12.4003 0Z" fill="#1FC28F"/>
<path d="M21.2567 0C23.2195 0 24.7996 1.58006 24.7996 3.54286C24.7996 5.50565 23.2195 7.08571 21.2567 7.08571C19.2939 7.08571 17.7139 5.50565 17.7139 3.54286C17.7139 1.58006 19.2939 0 21.2567 0Z" fill="#1FC28F"/>
<path d="M3.54286 8.85714C5.50565 8.85714 7.08572 10.4372 7.08572 12.4C7.08572 14.3628 5.50565 15.9429 3.54286 15.9429C1.58006 15.9429 0 14.3628 0 12.4C0 10.4372 1.58006 8.85714 3.54286 8.85714Z" fill="#1FC28F"/>
<path d="M12.4003 8.85714C14.3631 8.85714 15.9431 10.4372 15.9431 12.4C15.9431 14.3628 14.3631 15.9429 12.4003 15.9429C10.4375 15.9429 8.85742 14.3628 8.85742 12.4C8.85742 10.4372 10.4375 8.85714 12.4003 8.85714Z" fill="#1FC28F"/>
<path d="M21.2567 8.85714C23.2195 8.85714 24.7996 10.4372 24.7996 12.4C24.7996 14.3628 23.2195 15.9429 21.2567 15.9429C19.2939 15.9429 17.7139 14.3628 17.7139 12.4C17.7139 10.4372 19.2939 8.85714 21.2567 8.85714Z" fill="#1FC28F"/>
<path d="M3.54286 17.7143C5.50565 17.7143 7.08572 19.2944 7.08572 21.2571C7.08572 23.2199 5.50565 24.8 3.54286 24.8C1.58006 24.8 0 23.2199 0 21.2571C0 19.2944 1.58006 17.7143 3.54286 17.7143Z" fill="#1FC28F"/>
<path d="M12.4003 17.7143C14.3631 17.7143 15.9431 19.2944 15.9431 21.2571C15.9431 23.2199 14.3631 24.8 12.4003 24.8C10.4375 24.8 8.85742 23.2199 8.85742 21.2571C8.85742 19.2944 10.4375 17.7143 12.4003 17.7143Z" fill="#1FC28F"/>
<path d="M21.2567 17.7143C23.2195 17.7143 24.7996 19.2944 24.7996 21.2571C24.7996 23.2199 23.2195 24.8 21.2567 24.8C19.2939 24.8 17.7139 23.2199 17.7139 21.2571C17.7139 19.2944 19.2939 17.7143 21.2567 17.7143Z" fill="#1FC28F"/>
</svg>
