<svg width="18" height="18" viewBox="0 0 18 18" fill="none" xmlns="http://www.w3.org/2000/svg">
<path d="M5.69922 0H2.94922C1.43342 0 0.199219 1.2342 0.199219 2.75V5.5C0.199219 7.0158 1.43342 8.25 2.94922 8.25H5.69922C7.21502 8.25 8.44922 7.0158 8.44922 5.5V2.75C8.44922 1.2342 7.21502 0 5.69922 0Z" fill="white"/>
<path d="M15.0508 0H12.3008C10.7838 0 9.55078 1.2342 9.55078 2.75V5.5C9.55078 7.01693 10.7838 8.25 12.3008 8.25H15.0508C16.5677 8.25 17.8008 7.01693 17.8008 5.5V2.75C17.8008 1.2342 16.5677 0 15.0508 0Z" fill="white"/>
<path d="M5.69922 9.34998H2.94922C1.43229 9.34998 0.199219 10.583 0.199219 12.1V14.85C0.199219 16.3669 1.43229 17.6 2.94922 17.6H5.69922C7.21615 17.6 8.44922 16.3669 8.44922 14.85V12.1C8.44922 10.583 7.21615 9.34998 5.69922 9.34998Z" fill="white"/>
<path d="M15.0508 9.34998H12.3008C10.7838 9.34998 9.55078 10.583 9.55078 12.1V14.85C9.55078 16.3669 10.7838 17.6 12.3008 17.6H15.0508C16.5677 17.6 17.8008 16.3669 17.8008 14.85V12.1C17.8008 10.583 16.5677 9.34998 15.0508 9.34998Z" fill="white"/>
</svg>
