<svg width="22" height="22" viewBox="0 0 22 22" fill="none" xmlns="http://www.w3.org/2000/svg">
<path d="M7.69922 0H4.94922C3.43342 0 2.19922 1.2342 2.19922 2.75V5.5C2.19922 7.0158 3.43342 8.25 4.94922 8.25H7.69922C9.21502 8.25 10.4492 7.0158 10.4492 5.5V2.75C10.4492 1.2342 9.21502 0 7.69922 0Z" fill="white"/>
<path d="M17.0508 0H14.3008C12.7838 0 11.5508 1.2342 11.5508 2.75V5.5C11.5508 7.01693 12.7838 8.25 14.3008 8.25H17.0508C18.5677 8.25 19.8008 7.01693 19.8008 5.5V2.75C19.8008 1.2342 18.5677 0 17.0508 0Z" fill="white"/>
<path d="M7.69922 9.34998H4.94922C3.43229 9.34998 2.19922 10.583 2.19922 12.1V14.85C2.19922 16.3669 3.43229 17.6 4.94922 17.6H7.69922C9.21615 17.6 10.4492 16.3669 10.4492 14.85V12.1C10.4492 10.583 9.21615 9.34998 7.69922 9.34998Z" fill="white"/>
<path d="M17.0508 9.34998H14.3008C12.7838 9.34998 11.5508 10.583 11.5508 12.1V14.85C11.5508 16.3669 12.7838 17.6 14.3008 17.6H17.0508C18.5677 17.6 19.8008 16.3669 19.8008 14.85V12.1C19.8008 10.583 18.5677 9.34998 17.0508 9.34998Z" fill="white"/>
</svg>
