<svg width="17" height="24" viewBox="0 0 17 24" fill="none" xmlns="http://www.w3.org/2000/svg">
<path d="M8.30793 0.438673C7.95947 0.438673 7.67655 0.721594 7.67655 1.07005L7.67655 17.2244L6.86017 16.408C6.73668 16.2845 6.57549 16.223 6.41377 16.223C6.25205 16.223 6.09085 16.2845 5.96736 16.408C5.72072 16.6547 5.72072 17.0542 5.96736 17.3008L7.86115 19.1946C7.89057 19.2242 7.92298 19.2505 7.95804 19.2739C7.97284 19.2839 7.98922 19.2906 8.00472 19.2994C8.02516 19.3109 8.04489 19.323 8.06656 19.332C8.08699 19.3405 8.10849 19.3452 8.12963 19.3516C8.14795 19.3569 8.16521 19.3639 8.18424 19.3676C8.26563 19.3836 8.35001 19.3836 8.4314 19.3676C8.45043 19.3637 8.46769 19.3569 8.48601 19.3516C8.50715 19.3452 8.52864 19.3405 8.54907 19.332C8.57092 19.3232 8.59048 19.3109 8.61091 19.2994C8.62641 19.291 8.6428 19.2839 8.6576 19.2739C8.6923 19.2505 8.72489 19.2244 8.75449 19.1946L10.6483 17.3008C10.8949 17.0542 10.8949 16.6547 10.6483 16.408C10.4016 16.1614 10.0021 16.1614 9.75545 16.408L8.93926 17.2244L8.93926 1.07005C8.93926 0.721594 8.65634 0.438673 8.30787 0.438673L8.30793 0.438673Z" fill="#353535"/>
<path d="M13.991 0.438691C13.6425 0.438691 13.3596 0.721613 13.3596 1.07007L13.3596 12.8052L12.5429 11.9885C12.4194 11.865 12.2582 11.8035 12.0965 11.8035C11.9348 11.8035 11.7736 11.865 11.6501 11.9885C11.4034 12.2351 11.4034 12.6347 11.6501 12.8813L13.5442 14.7755C13.5514 14.7827 13.5597 14.7875 13.5673 14.7945C13.5904 14.8156 13.614 14.8364 13.6399 14.8539C13.6582 14.8662 13.6781 14.875 13.6973 14.885C13.7144 14.8942 13.7304 14.9046 13.7484 14.9118C13.7715 14.9213 13.7951 14.927 13.8189 14.9337C13.8349 14.9381 13.85 14.9444 13.8666 14.9479C13.9077 14.956 13.9492 14.9604 13.9906 14.9604C13.9926 14.9604 13.9945 14.9597 13.9966 14.9597C14.0357 14.9594 14.0752 14.9557 14.1138 14.9481C14.1353 14.9441 14.1548 14.9361 14.1756 14.9298C14.1943 14.9242 14.2131 14.9199 14.2315 14.9124C14.257 14.902 14.2801 14.8877 14.3037 14.8741C14.3157 14.8673 14.3283 14.8621 14.3396 14.8546C14.3752 14.831 14.4087 14.8037 14.4388 14.7732L16.3306 12.8813C16.5773 12.6347 16.5773 12.2352 16.3306 11.9885C16.084 11.7419 15.6845 11.7419 15.4378 11.9885L14.6218 12.8045L14.622 1.06985C14.6223 0.721395 14.3394 0.438474 13.991 0.438473L13.991 0.438691Z" fill="#353535"/>
<path d="M2.62538 0.438715C2.27692 0.438715 1.994 0.721634 1.994 1.07009L1.994 21.6441L1.17798 20.8281C1.05449 20.7046 0.8933 20.6431 0.731581 20.6431C0.569863 20.6431 0.408666 20.7046 0.285177 20.8281C0.038542 21.0747 0.038542 21.4742 0.285177 21.7209L2.17701 23.6127C2.20696 23.643 2.24043 23.6702 2.2762 23.6941C2.28782 23.7017 2.30051 23.7068 2.31213 23.7137C2.33574 23.7272 2.35917 23.7411 2.38436 23.7519C2.40233 23.7595 2.42136 23.7635 2.44021 23.7693C2.46064 23.7757 2.48055 23.7836 2.50204 23.7877C2.5408 23.7952 2.58009 23.7991 2.61919 23.7993C2.62166 23.7993 2.62342 23.8 2.62536 23.8C2.66711 23.8 2.70833 23.7956 2.74938 23.7873C2.76577 23.7841 2.78092 23.7778 2.79712 23.773C2.82073 23.7663 2.84451 23.7607 2.86759 23.7512C2.88556 23.7436 2.90177 23.7332 2.91868 23.7244C2.93788 23.7144 2.95779 23.7054 2.97611 23.6932C3.00235 23.6758 3.02561 23.655 3.04869 23.6339C3.05591 23.6272 3.06454 23.6222 3.07177 23.6148L4.9659 21.7207C5.21254 21.4741 5.21254 21.0745 4.9659 20.8279C4.71927 20.5812 4.31973 20.5812 4.07309 20.8279L3.2564 21.6446L3.2564 1.07013C3.25675 0.721672 2.97418 0.438753 2.62538 0.438753L2.62538 0.438715Z" fill="#353535"/>
</svg>
