<svg width="21" height="21" viewBox="0 0 21 21" fill="none" xmlns="http://www.w3.org/2000/svg">
<path fill-rule="evenodd" clip-rule="evenodd" d="M19.9894 9.48759H4.29179L12.0532 1.72567C12.4482 1.33063 12.4482 0.69106 12.0532 0.295976C11.6586 -0.0986587 11.0187 -0.0986587 10.6239 0.295976L1.13695 9.78345C0.742111 10.1783 0.742111 10.8183 1.13695 11.2131L10.6239 20.7006C10.8215 20.8978 11.08 20.9967 11.3388 20.9967C11.5973 20.9967 11.8563 20.8978 12.0532 20.7006C12.4482 20.306 12.4482 19.666 12.0532 19.2711L4.29179 11.5092H19.9894C20.5476 11.5092 21.0003 11.0568 21.0003 10.4983C21.0003 9.94012 20.5476 9.48764 19.9894 9.48764" fill="black"/>
</svg>
