<svg width="36" height="40" viewBox="0 0 36 40" fill="none" xmlns="http://www.w3.org/2000/svg">
<path d="M35.1532 34.8357H33.4431V32.8376C33.4431 32.3634 33.0707 31.991 32.5965 31.991H30.3273V15.5319H34.7977C35.1532 15.5319 35.4751 15.3117 35.5938 14.9731C35.7124 14.6345 35.6107 14.2621 35.3396 14.0418L18.5419 0.190612C18.2203 -0.0635373 17.7801 -0.0635373 17.4582 0.190612L0.660507 14.0418C0.389412 14.2621 0.288051 14.6345 0.406359 14.9731C0.524963 15.3117 0.846596 15.5319 1.20241 15.5319H5.52031V31.991L3.57299 31.9907C3.09886 31.9907 2.72641 32.3634 2.72641 32.8373V34.8354L0.84658 34.8357C0.372457 34.8357 0 35.2082 0 35.6823V38.5101C0 38.9842 0.372457 39.3567 0.84658 39.3567H35.1534C35.6275 39.3567 36 38.9842 36 38.5101V35.6823C36 35.2082 35.6275 34.8357 35.1534 34.8357H35.1532ZM24.7226 31.991H11.1081V15.5319H24.7226V31.991Z" fill="#1FC28F"/>
</svg>
