<svg width="17" height="14" viewBox="0 0 17 14" fill="none" xmlns="http://www.w3.org/2000/svg">
<g clip-path="url(#clip0_946_467)">
<path d="M4.56951 13.9999C4.42305 13.9961 4.28164 13.9419 4.16636 13.8453C4.05108 13.7487 3.9681 13.6149 3.92978 13.4638L2.09784 5.61484H0.511493L0.509041 5.59538C0.350311 5.55487 0.211041 5.45346 0.117694 5.31043C0.0243473 5.1674 -0.0165718 4.99272 0.00271192 4.81957C0.0219956 4.64642 0.100138 4.48688 0.222292 4.37125C0.344446 4.25562 0.502098 4.19197 0.665293 4.19238H2.62721C2.91659 4.19238 3.1846 4.41698 3.26553 4.72319L3.30547 4.85121L5.11814 12.5774H13.8693L15.6627 4.85121L15.7016 4.72618C15.7717 4.4211 16.0439 4.20212 16.3498 4.20212C16.3998 4.20207 16.4496 4.2081 16.4983 4.22009C16.8423 4.30468 17.0641 4.69549 16.9825 5.07319L15.0206 13.4616C14.9407 13.7756 14.6702 14.0017 14.3798 14.0017L4.56951 13.9999Z" fill="#7B7B7B"/>
<path d="M4.5703 13.8876C4.44681 13.8841 4.32767 13.8381 4.23064 13.7564C4.13361 13.6747 4.06387 13.5617 4.03182 13.4343L2.18097 5.50255H0.604427V5.4988C0.462157 5.48173 0.331394 5.40714 0.238955 5.29034C0.146517 5.17353 0.0994105 5.02336 0.107297 4.87062C0.115184 4.71789 0.177466 4.57417 0.28137 4.46893C0.385273 4.3637 0.522923 4.30493 0.666087 4.30469H2.628C2.75117 4.30808 2.87003 4.35384 2.96692 4.43517C3.0638 4.51651 3.13355 4.62907 3.16578 4.75613L3.20537 4.88266L5.03696 12.6897H13.9525L15.7658 4.88266L15.8051 4.75725C15.8371 4.62879 15.9082 4.51536 16.0072 4.43485C16.1063 4.35433 16.2275 4.31131 16.352 4.31255C16.3939 4.31245 16.4358 4.31747 16.4767 4.32752C16.7654 4.39864 16.951 4.72768 16.8824 5.04624L14.9205 13.4313C14.8888 13.5596 14.8189 13.6735 14.7214 13.7558C14.6239 13.8381 14.5041 13.8843 14.3799 13.8876H4.5703Z" fill="#7B7B7B"/>
<path d="M0.665284 5.42801H2.23482L4.09864 13.4147C4.12631 13.5266 4.18714 13.6258 4.27202 13.6976C4.3569 13.7694 4.46127 13.8099 4.5695 13.813H14.3791C14.4873 13.8099 14.5917 13.7694 14.6765 13.6976C14.7614 13.6258 14.8223 13.5266 14.8499 13.4147L16.8118 5.02972C16.8707 4.75721 16.7138 4.46373 16.4587 4.40085C16.2037 4.33796 15.929 4.50566 15.8701 4.77817L15.8309 4.90395L14.0063 12.7649H4.9815L3.1373 4.90395L3.09806 4.77817C3.07039 4.66634 3.00956 4.56709 2.92467 4.49529C2.83979 4.42349 2.73542 4.383 2.6272 4.37988H0.665284C0.535201 4.37988 0.410445 4.4351 0.318463 4.53338C0.22648 4.63166 0.174805 4.76496 0.174805 4.90395C0.174805 5.04294 0.22648 5.17624 0.318463 5.27452C0.410445 5.3728 0.535201 5.42801 0.665284 5.42801Z" fill="#7B7B7B"/>
<path d="M9.49422 8.75936C9.40606 8.7621 9.3183 8.74566 9.23627 8.71104C9.15424 8.67642 9.07966 8.62434 9.01705 8.55797L6.07418 5.41358C5.95365 5.27598 5.88633 5.09474 5.88575 4.90628C5.88516 4.71782 5.95135 4.5361 6.07102 4.39765C6.12972 4.32897 6.2013 4.27428 6.2811 4.23713C6.3609 4.19998 6.44713 4.1812 6.53418 4.18203C6.62251 4.1821 6.70995 4.2009 6.79144 4.23733C6.87292 4.27376 6.94683 4.32711 7.00889 4.39428L8.82857 6.33856V0.71123C8.82857 0.5226 8.8987 0.341696 9.02353 0.208314C9.14836 0.074933 9.31767 0 9.49422 0C9.67076 0 9.84007 0.074933 9.9649 0.208314C10.0897 0.341696 10.1599 0.5226 10.1599 0.71123V6.33856L11.9764 4.39727C12.0351 4.32865 12.1067 4.27401 12.1865 4.23692C12.2663 4.19984 12.3525 4.18113 12.4395 4.18203C12.5278 4.18203 12.6152 4.20079 12.6967 4.23723C12.7781 4.27367 12.852 4.32705 12.9139 4.39428C13.0352 4.53232 13.1027 4.71457 13.1027 4.90393C13.1027 5.09329 13.0352 5.27554 12.9139 5.41358L9.97103 8.55797C9.90851 8.62437 9.834 8.67647 9.75202 8.71109C9.67004 8.74571 9.58233 8.76214 9.49422 8.75936Z" fill="#7B7B7B"/>
<path d="M9.49472 8.64706C9.42036 8.65011 9.3462 8.63668 9.27693 8.60763C9.20765 8.57858 9.14475 8.53452 9.09218 8.47824L6.14931 5.33386C6.04828 5.21693 5.99219 5.06363 5.99219 4.9045C5.99219 4.74536 6.04828 4.59207 6.14931 4.47514C6.19802 4.41772 6.25752 4.37194 6.32393 4.34079C6.39034 4.30963 6.46216 4.2938 6.53468 4.29434C6.60918 4.29432 6.68293 4.31017 6.75162 4.34095C6.82032 4.37174 6.88258 4.41685 6.93477 4.47364L8.93418 6.60958V0.711235C8.93418 0.552389 8.99323 0.400049 9.09836 0.287727C9.20348 0.175406 9.34606 0.112305 9.49472 0.112305C9.64339 0.112305 9.78597 0.175406 9.89109 0.287727C9.99621 0.400049 10.0553 0.552389 10.0553 0.711235V6.60958L12.0522 4.47589C12.1011 4.41824 12.1609 4.37231 12.2276 4.34115C12.2944 4.30999 12.3665 4.29429 12.4393 4.29509C12.5138 4.29521 12.5875 4.31113 12.6562 4.34191C12.7249 4.37268 12.7872 4.41771 12.8394 4.47439C12.9412 4.59136 12.9978 4.74516 12.9978 4.90487C12.9978 5.06458 12.9412 5.21838 12.8394 5.33535L9.89657 8.47974C9.84396 8.53566 9.78112 8.57938 9.71197 8.60817C9.64283 8.63696 9.56887 8.6502 9.49472 8.64706Z" fill="#7B7B7B"/>
<path d="M9.14075 8.4253C9.23715 8.51968 9.36315 8.57204 9.4939 8.57204C9.62465 8.57204 9.75065 8.51968 9.84704 8.4253L12.7899 5.28092C12.8783 5.17792 12.9273 5.04329 12.9273 4.90359C12.9273 4.76389 12.8783 4.62926 12.7899 4.52626C12.5934 4.31664 12.2798 4.31664 12.1029 4.52626L9.98438 6.79022V0.711076C9.98438 0.572085 9.9327 0.438788 9.84072 0.340507C9.74874 0.242225 9.62398 0.187012 9.4939 0.187012C9.36382 0.187012 9.23906 0.242225 9.14708 0.340507C9.0551 0.438788 9.00342 0.572085 9.00342 0.711076V6.79022L6.88455 4.52626C6.68836 4.31664 6.37445 4.31664 6.19788 4.52626C6.10955 4.62926 6.06055 4.76389 6.06055 4.90359C6.06055 5.04329 6.10955 5.17792 6.19788 5.28092L9.14075 8.4253Z" fill="#7B7B7B"/>
</g>
<defs>
<clipPath id="clip0_946_467">
<rect width="17" height="14" fill="white"/>
</clipPath>
</defs>
</svg>
