<svg width="23" height="26" viewBox="0 0 23 26" fill="none" xmlns="http://www.w3.org/2000/svg">
<path d="M11.4996 25.7245C9.6117 25.7245 8.07553 24.2205 7.97953 22.3644H15.0195C14.9235 24.2204 13.3874 25.7245 11.4994 25.7245H11.4996Z" fill="white"/>
<path d="M17.7398 10.0445C17.7398 13.5324 18.6677 15.7405 21.3878 18.4605C22.9237 19.9964 21.5797 21.4045 19.4038 21.4045H3.53182C1.35594 21.4045 0.0117054 19.9964 1.54788 18.4605C4.23582 15.7725 5.19588 13.5326 5.19588 10.0445C5.19588 7.29249 6.92376 4.82843 9.38782 3.90049C9.32376 3.67638 9.25992 3.42058 9.25992 3.19649C9.25992 1.94849 10.2519 0.956543 11.4999 0.956543C12.7479 0.956543 13.6757 1.94849 13.6757 3.19649C13.6757 3.45252 13.6438 3.6764 13.5478 3.90049C16.0438 4.82837 17.7398 7.26032 17.7398 10.0445H17.7398Z" fill="white"/>
</svg>
