<svg width="16" height="18" viewBox="0 0 16 18" fill="none" xmlns="http://www.w3.org/2000/svg">
<path d="M6.58922 11.3296C3.0976 11.3296 1.12963 12.6178 1.12963 15.2832C1.12963 15.5952 0.876706 15.8479 0.564947 15.8479C0.252926 15.8479 0 15.5952 0 15.2832C0 11.8688 2.54896 10.1999 6.58925 10.1999C8.32793 10.1999 9.79061 10.509 10.8924 11.1331C10.546 11.339 10.2508 11.6221 10.0304 11.9588C9.14849 11.5373 7.99181 11.3295 6.58925 11.3295L6.58922 11.3296ZM6.58922 9.44691C4.50642 9.44691 3.01227 7.14007 3.01227 4.74031C3.01227 2.41827 4.48598 0.41037 6.58922 0.41037C8.69274 0.41037 10.1664 2.41827 10.1664 4.74031C10.1664 7.14007 8.67223 9.44691 6.58922 9.44691ZM6.58922 8.31726C7.91978 8.31726 9.03679 6.59276 9.03679 4.74031C9.03679 2.97977 7.97989 1.53995 6.58922 1.53995C5.19876 1.53995 4.14193 2.97977 4.14193 4.74031C4.14193 6.59276 5.25894 8.31726 6.58922 8.31726Z" fill="#7B7B7B"/>
<path d="M10.8128 15.6206C11.2228 15.8835 11.7108 16.0361 12.234 16.0361C13.6899 16.0361 14.8699 14.8561 14.8699 13.4005C14.8699 12.8771 14.7173 12.3893 14.4542 11.9793L10.8128 15.6206ZM10.0141 14.8217L13.6554 11.1804C13.2452 10.9174 12.7575 10.7648 12.234 10.7648C10.7784 10.7648 9.59833 11.9449 9.59833 13.4005C9.59833 13.9239 9.75093 14.4117 10.0141 14.8217L10.0141 14.8217ZM12.234 17.1657C10.1547 17.1657 8.46875 15.4801 8.46875 13.4005C8.46875 11.3208 10.1547 9.63518 12.234 9.63518C14.3137 9.63518 15.9993 11.3208 15.9993 13.4005C15.9993 15.4801 14.3137 17.1657 12.234 17.1657Z" fill="#7B7B7B"/>
</svg>
