<svg width="24" height="24" viewBox="0 0 24 24" fill="none" xmlns="http://www.w3.org/2000/svg">
<path d="M11.0003 21.9999V17.0002H2.99113C1.33946 17.0002 0 15.6594 0 14.0082V2.99181C0 1.33916 1.33779 0 2.99113 0H21.0087C22.6604 0 23.9998 1.34079 23.9998 2.99181V14.0082C23.9998 15.6611 22.662 17.0002 21.0087 17.0002H12.9996V21.9999H15.9996C16.5519 21.9999 16.9997 22.4477 16.9997 23C16.9997 23.5523 16.5519 24 15.9996 24H7.99984C7.44754 24 6.99973 23.5523 6.99973 23C6.99973 22.4477 7.44754 21.9999 7.99984 21.9999H11.0003ZM2.00027 2.9919V14.0083C2.00027 14.5553 2.44474 15.0003 2.99134 15.0003H21.0089C21.5572 15.0003 22 14.5569 22 14.0083V2.9919C22 2.44496 21.5555 2.00014 21.0089 2.00014H2.99134C2.44307 2.00014 2.00027 2.44329 2.00027 2.9919Z" fill="#7B7B7B"/>
</svg>
