<svg width="26" height="24" viewBox="0 0 26 24" fill="none" xmlns="http://www.w3.org/2000/svg">
<path d="M23.6127 4.28806H19.1877V1.89932C19.1877 0.889953 18.3664 0.0687561 17.3571 0.0687561H8.64052C7.63116 0.0687561 6.81015 0.890099 6.81015 1.89932V4.28806H2.38505C1.37569 4.28806 0.554688 5.10921 0.554688 6.11842V21.2999C0.554688 22.3093 1.37584 23.1305 2.38505 23.1305H23.6122C24.6216 23.1305 25.4426 22.3091 25.4426 21.2999V6.11891C25.4428 5.10935 24.6217 4.28806 23.6127 4.28806ZM7.89786 1.89951C7.89786 1.48988 8.23103 1.1569 8.64008 1.1569H17.3567C17.7663 1.1569 18.0993 1.49007 18.0993 1.89951V4.28825L7.89786 4.28806V1.89951ZM24.3548 21.2999C24.3548 21.7095 24.0217 22.0425 23.6126 22.0425H2.38496C1.97551 22.0425 1.64274 21.7093 1.64274 21.2999V12.0135L12.9405 14.713C12.9818 14.7229 13.0245 14.728 13.067 14.728C13.1101 14.728 13.1528 14.7229 13.1949 14.7129L24.3545 12.0135C24.6467 11.9428 24.8258 11.6489 24.7558 11.3569C24.6851 11.0647 24.3913 10.8856 24.0991 10.9556L13.0663 13.6245L1.64274 10.8947V6.11835C1.64274 5.7089 1.97591 5.37613 2.38496 5.37613H23.6121C24.0216 5.37613 24.3543 5.7093 24.3543 6.11835L24.3548 21.2999Z" fill="black"/>
</svg>
