<svg width="50" height="29" viewBox="0 0 202 168" fill="Black" xmlns="http://www.w3.org/2000/svg">
<path d="M71.4385 0L59.1213 24.706H17.2435C7.68941 24.706 0 32.4196 0 41.9998V150.706C0 160.288 7.69117 168 17.2435 168H184.756C194.311 168 202 160.286 202 150.706V41.9998C202 32.4196 194.309 24.706 184.756 24.706H142.879L130.562 0H71.4385ZM100.999 44.4708C129.482 44.4708 152.731 67.788 152.731 96.3535C152.731 124.919 129.482 148.236 100.999 148.236C72.5166 148.236 49.2672 124.919 49.2672 96.3535C49.2672 67.788 72.5166 44.4708 100.999 44.4708V44.4708ZM100.999 59.2953C80.5043 59.2953 64.0477 75.7998 64.0477 96.3543C64.0477 116.909 80.5043 133.413 100.999 133.413C121.494 133.413 137.951 116.909 137.951 96.3543C137.951 75.7998 121.494 59.2953 100.999 59.2953V59.2953Z" fill="#fff"/>
</svg>
