<svg width="21" height="20" viewBox="0 0 21 20" fill="none" xmlns="http://www.w3.org/2000/svg">
<path d="M9.29921 16V7.6H10.4352V16H9.29921ZM9.87521 5.744C9.64054 5.744 9.44321 5.664 9.28321 5.504C9.12321 5.344 9.04321 5.152 9.04321 4.928C9.04321 4.704 9.12321 4.51733 9.28321 4.368C9.44321 4.208 9.64054 4.128 9.87521 4.128C10.1099 4.128 10.3072 4.20267 10.4672 4.352C10.6272 4.50133 10.7072 4.688 10.7072 4.912C10.7072 5.14667 10.6272 5.344 10.4672 5.504C10.3179 5.664 10.1205 5.744 9.87521 5.744Z" fill="#7B7B7B"/>
<path d="M19.9413 9.5C19.9413 14.1051 15.7949 18 10.4707 18C5.14639 18 1 14.1051 1 9.5C1 4.8949 5.14639 1 10.4707 1C15.7949 1 19.9413 4.8949 19.9413 9.5Z" stroke="#7B7B7B" stroke-width="2"/>
</svg>
