<svg width="17" height="20" viewBox="0 0 17 20" fill="none" xmlns="http://www.w3.org/2000/svg">
<path d="M7.64077 0.268754L0.47082 5.62596C0.107776 5.91104 0.0757059 6.3982 0.358727 6.70809C0.641747 7.018 1.20986 7.06631 1.55142 6.80979L7.33745 2.49303L7.33745 19.2347C7.33745 19.6575 7.7152 20 8.1809 20C8.64692 20 9.02436 19.6573 9.02436 19.2347L9.02436 2.49303L14.8104 6.80979C15.152 7.06658 15.7159 7.01479 16.0031 6.70809C16.3058 6.38457 16.2326 5.88249 15.891 5.62596L8.72104 0.268754C8.31093 0.0295862 8.00231 0.0610822 7.64012 0.268754L7.64077 0.268754Z" fill="green"/>
</svg>
