<svg width="31" height="21" viewBox="0 0 31 21" fill="none" xmlns="http://www.w3.org/2000/svg">
<path d="M29.7015 0H9.47872C9.1298 0 8.84668 0.283118 8.84668 0.63204V8.71617L11.5213 6.04284C12.7953 4.77009 15.0122 4.77009 16.2862 6.04284C16.7488 6.50539 17.042 7.07925 17.1785 7.68464C17.4365 7.73648 17.655 7.93877 17.6916 8.2168C17.7107 8.36344 18.1758 8.67046 18.9606 8.79066V7.5014C17.928 7.3408 16.4327 6.95294 16.4327 5.68761C16.4327 4.73841 17.483 3.99398 18.9606 3.82833L18.9608 3.15989C18.9608 2.81096 19.2439 2.52785 19.5929 2.52785C19.9418 2.52785 20.2249 2.81096 20.2249 3.15989V3.82724C21.6115 3.98277 22.6352 4.65012 22.7477 5.52722C22.792 5.8736 22.5467 6.18954 22.2005 6.23374C21.8567 6.27289 21.5382 6.03273 21.4928 5.68653C21.4737 5.53989 21.0086 5.23413 20.2238 5.11397L20.2234 6.40323C21.256 6.56511 22.7513 6.95294 22.7513 8.21702C22.7513 9.16622 21.7009 9.90936 20.2234 10.0763V10.745C20.2234 11.0939 19.9403 11.377 19.5913 11.377C19.2424 11.377 18.9593 11.0939 18.9593 10.745V10.0712C18.2086 9.98531 17.5626 9.75276 17.1127 9.41398C17.0192 9.71995 16.8916 10.0194 16.7071 10.2961L14.6886 13.0704C14.5888 13.2068 14.5357 13.37 14.5357 13.5393C14.5357 13.6783 14.5888 13.8008 14.6645 13.9057H29.7028C30.0517 13.9057 30.3349 13.6226 30.3349 13.2737V0.634532C30.3336 0.28328 30.0517 0.000162417 29.7016 0.000162417L29.7015 0ZM27.1736 3.79181H24.6456C24.2967 3.79181 24.0136 3.50869 24.0136 3.15977C24.0136 2.81084 24.2967 2.52773 24.6456 2.52773H27.1736C27.5225 2.52773 27.8056 2.81084 27.8056 3.15977C27.8056 3.50869 27.5238 3.79181 27.1736 3.79181Z" fill="#1FC28F"/>
<path d="M17.6953 5.68734C17.6953 5.69115 17.7144 5.99458 18.9592 6.22077L18.9594 5.116C18.1504 5.23979 17.6953 5.56099 17.6953 5.68732L17.6953 5.68734Z" fill="#1FC28F"/>
<path d="M21.4865 8.21732C21.4865 8.21351 21.4675 7.91008 20.2227 7.68388V8.78735C21.0618 8.65701 21.4865 8.31824 21.4865 8.21734V8.21732Z" fill="#1FC28F"/>
<path d="M22.1186 15.1899L18.2775 15.1911L15.4362 15.4148C14.2723 15.5866 13.2712 14.6742 13.2712 13.5379C13.2712 13.098 13.4076 12.6797 13.6656 12.3259L15.6537 9.59463C16.2073 8.76303 16.0987 7.64564 15.3909 6.93782C14.5959 6.14284 13.2081 6.14284 12.4144 6.93782L9.21044 10.1418C8.45717 10.1835 7.7468 10.4097 7.11731 10.7738L7.43449 11.0734C7.57351 11.2048 7.64694 11.3944 7.62916 11.5866L7.57605 12.1945C7.27643 15.6323 6.27178 18.7933 6.22985 18.9277L6.13379 19.2298L12.4661 20.2006C12.7543 20.2827 13.1624 20.3244 13.6819 20.3244C14.6614 20.3244 16.6712 20.1425 17.4473 19.4662L22.4524 16.3595C22.6913 16.2103 22.8038 15.9209 22.7266 15.6492C22.6496 15.3758 22.4018 15.19 22.1187 15.19L22.1186 15.1899Z" fill="#1FC28F"/>
<path d="M6.12259 11.5702C5.01533 10.5211 1.3968 10.1912 0.681345 10.1356C0.498103 10.1254 0.332422 10.1836 0.202287 10.3012C0.0734255 10.4212 0 10.5894 0 10.7651V19.6124C0 19.9614 0.283118 20.2445 0.63204 20.2445C2.35991 20.2445 4.64117 18.9527 4.73721 18.897C4.87369 18.8187 4.97738 18.6909 5.02668 18.5407C5.0671 18.4118 6.03156 15.367 6.3172 12.0833C6.33476 11.8924 6.26155 11.7028 6.12252 11.5701L6.12259 11.5702Z" fill="#1FC28F"/>
</svg>
