<svg width="18" height="14" viewBox="0 0 18 14" fill="none" xmlns="http://www.w3.org/2000/svg">
<path d="M5.61111 14C5.3126 14.0004 5.02652 13.8775 4.81578 13.6586L0.315905 8.99679V8.99659C0.0398045 8.70061 -0.064906 8.27584 0.0399924 7.8788C0.145084 7.48195 0.444346 7.17193 0.82761 7.06304C1.21068 6.95417 1.62087 7.06285 1.90658 7.34869L5.61113 11.1865L16.0658 0.355732C16.2754 0.130964 16.5635 0.00277674 16.8653 4.45731e-05C17.167 -0.002687 17.4572 0.12023 17.6706 0.341291C17.8838 0.562352 18.0026 0.863001 18 1.17558C17.9973 1.48815 17.8736 1.78644 17.6564 2.00362L6.40675 13.658V13.6582C6.196 13.8772 5.90991 14.0001 5.61142 13.9997L5.61111 14Z" fill="#0094FF"/>
</svg>
