<svg width="27" height="27" viewBox="0 0 27 27" fill="none" xmlns="http://www.w3.org/2000/svg">
<path fill-rule="evenodd" clip-rule="evenodd" d="M13.5 0C20.9563 0 27 6.04424 27 13.5C27 20.9563 20.9558 27 13.5 27C6.04373 27 0 20.9558 0 13.5C0 6.04373 6.04424 0 13.5 0ZM6.81677 13.6764C6.31815 13.1252 6.36126 12.2744 6.91165 11.7766C7.46286 11.278 8.31361 11.3211 8.81145 11.8715L12.1742 15.5872L19.441 8.08104C19.9599 7.54757 20.8125 7.53578 21.346 8.05486C21.8794 8.57376 21.8912 9.42633 21.3721 9.9598L13.1081 18.496L13.1063 18.4942C13.0868 18.5145 13.0657 18.5348 13.0445 18.5535C12.4941 19.0521 11.6433 19.0098 11.1447 18.4586L6.81594 13.6761L6.81677 13.6764Z" fill="#0278DB"/>
</svg>
