<svg width="20" height="18" viewBox="0 0 20 18" fill="none" xmlns="http://www.w3.org/2000/svg">
<path d="M10.0262 1.95424L10.0262 1.95428C10.6156 1.95446 11.1764 2.20841 11.5653 2.65135L11.5653 2.65137C11.9542 3.09409 12.1338 3.68299 12.0578 4.26735L12.0578 4.26739C11.9821 4.85174 11.6583 5.3751 11.1695 5.70385C10.8297 5.92641 10.4323 6.04489 10.0261 6.04489C9.61974 6.04489 9.22247 5.92625 8.88278 5.70352C8.39401 5.37462 8.0706 4.85124 7.99483 4.26703L10.0262 1.95424ZM10.0262 1.95424C9.43691 1.95446 8.87643 2.20841 8.48751 2.65115L8.4875 2.65116C8.09842 3.09391 7.91906 3.68258 7.99483 4.26702L10.0262 1.95424ZM7.50432 5.81374C8.08686 6.62709 9.02565 7.11007 10.0261 7.11087C10.6446 7.11272 11.2494 6.92858 11.762 6.58237C12.5923 6.02392 13.1026 5.09981 13.133 4.09982L13.133 4.0998C13.1633 3.09965 12.7101 2.14614 11.9153 1.53847L11.9153 1.53847C11.1203 0.930793 10.0815 0.743288 9.12425 1.03467L9.12423 1.03468C8.16722 1.32625 7.409 2.061 7.08787 3.00857C6.76655 3.95615 6.92175 5.00034 7.50432 5.81374Z" fill="#7B7B7B" stroke="#7B7B7B" stroke-width="0.2"/>
<path d="M4.05112 17.4241L4.01018 17.4241C3.18547 17.4245 2.39441 17.0971 1.81109 16.5141L1.81108 16.5141C1.22776 15.931 0.90019 15.1401 0.9 14.3154V14.3154C0.9 13.4907 1.22741 12.6997 1.81075 12.1165L4.05112 17.4241ZM4.05112 17.4241L4.05147 17.4238M4.05112 17.4241L4.05147 17.4238M4.05147 17.4238C4.86067 17.4122 5.63406 17.0857 6.20689 16.5128L6.2069 16.5128C6.78943 15.9301 7.11722 15.1401 7.11833 14.3162V14.3161C7.11852 13.4914 6.79109 12.7004 6.20816 12.1171L6.13742 12.1878L6.20816 12.1171C5.62522 11.5338 4.83416 11.206 4.00947 11.206L4.05147 17.4238ZM4.00944 11.206C3.18474 11.2058 2.39388 11.5334 1.81076 12.1165L4.00944 11.206ZM4.01036 12.2675L4.02076 12.2675C4.36704 12.2689 4.70723 12.3577 5.00989 12.526C5.59369 12.8513 5.98167 13.4417 6.04854 14.1065L6.04854 14.1065C6.11556 14.7716 5.85309 15.4273 5.34572 15.8626C4.83834 16.2978 4.15044 16.4574 3.50337 16.2901L3.50336 16.2901C2.85611 16.1228 2.33179 15.6495 2.09912 15.023L2.09912 15.023C1.86629 14.3963 1.95474 13.6956 2.33573 13.1464L2.33574 13.1464C2.7165 12.5972 3.34198 12.269 4.01036 12.2675Z" fill="#7B7B7B" stroke="#7B7B7B" stroke-width="0.2"/>
<path d="M16.0431 12.2675C15.4997 12.2676 14.9789 12.4834 14.5946 12.8675C14.2105 13.2518 13.9947 13.7729 13.9947 14.3162C13.9947 14.8594 14.2105 15.3805 14.5946 15.7648C14.5947 15.7648 14.5947 15.7648 14.5947 15.7648M16.0431 12.2675L14.5947 15.7648M16.0431 12.2675C16.5857 12.2701 17.1051 12.4869 17.4889 12.8706C17.8725 13.2542 18.0891 13.7738 18.0918 14.3163M16.0431 12.2675L18.0918 14.3163M14.5947 15.7648C14.979 16.1489 15.4999 16.3648 16.0433 16.3648C16.5865 16.3648 17.1077 16.1489 17.4918 15.7648C17.876 15.3806 18.0917 14.8595 18.0918 14.3163M14.5947 15.7648L18.0918 14.3163M13.8455 16.5139L13.8455 16.5139C14.4285 17.0967 15.219 17.4241 16.0433 17.4241V17.3241L16.0434 17.4241C16.8673 17.4232 17.6573 17.0954 18.2398 16.5129C18.8226 15.9301 19.1504 15.1402 19.1513 14.3163V14.3162C19.1513 13.4918 18.8238 12.7013 18.2409 12.1184C17.6581 11.5356 16.8676 11.2082 16.0433 11.2082C15.219 11.2082 14.4285 11.5356 13.8455 12.1184L13.8455 12.1184C13.2626 12.7013 12.9352 13.4918 12.9352 14.3162C12.9352 15.1405 13.2626 15.931 13.8455 16.5139Z" fill="#7B7B7B" stroke="#7B7B7B" stroke-width="0.2"/>
<path d="M5.26898 12.5944C5.08101 12.5942 4.90718 12.4944 4.81228 12.3321C4.71738 12.1698 4.71563 11.9694 4.80761 11.8054M5.26898 12.5944L5.73157 12.3235L9.04915 6.40237M5.26898 12.5944C5.26901 12.5944 5.26905 12.5944 5.26909 12.5944C5.4608 12.5947 5.63789 12.4913 5.7315 12.3237L5.26898 12.5944ZM4.80761 11.8054L4.89483 11.8543L4.80759 11.8054L4.80761 11.8054ZM4.80761 11.8054L8.12528 5.88406L8.12531 5.884C8.26853 5.62882 8.59132 5.53817 8.84645 5.68114L8.84654 5.68119C9.10143 5.82437 9.19237 6.14711 9.04919 6.40231M9.04919 6.40231L8.96198 6.35344L9.04915 6.40237M9.04919 6.40231L9.04915 6.40237M9.04919 6.40231L9.04915 6.40237" fill="#7B7B7B" stroke="#7B7B7B" stroke-width="0.2"/>
<path d="M14.859 12.5942L14.7871 12.5944C14.5953 12.5948 14.4181 12.4913 14.3245 12.3237L14.859 12.5942ZM14.859 12.5942L14.8607 12.5892C15.0196 12.5667 15.1614 12.4729 15.2437 12.3321C15.3386 12.1698 15.3404 11.9694 15.2484 11.8054L11.9307 5.88405L11.9307 5.88399C11.7875 5.6288 11.4647 5.53817 11.2096 5.68113L11.2095 5.68118C11.0871 5.74991 10.9969 5.8645 10.9588 5.99967L10.9587 5.99982C10.9208 6.13504 10.9381 6.27976 11.0068 6.4023C11.0068 6.40231 11.0068 6.40231 11.0068 6.40232L14.3244 12.3235L14.859 12.5942Z" fill="#7B7B7B" stroke="#7B7B7B" stroke-width="0.2"/>
<path d="M6.58591 14.8458H13.4617C13.7541 14.8458 13.9914 14.6088 13.9914 14.3161C13.9914 14.0235 13.7541 13.7865 13.4617 13.7865H6.58591C6.29349 13.7865 6.05625 14.0235 6.05625 14.3161C6.05625 14.6088 6.29349 14.8458 6.58591 14.8458Z" fill="#7B7B7B" stroke="#7B7B7B" stroke-width="0.2"/>
</svg>
