<svg width="17" height="15" viewBox="0 0 17 15" fill="none" xmlns="http://www.w3.org/2000/svg">
<g clip-path="url(#clip0_946_475)">
<path d="M1.95107 6.21947C1.73344 6.21947 1.44824 6.04771 1.3463 5.76145L1.33942 5.74256L0.0766223 2.89027C0.0308968 2.79967 0.00500005 2.70038 0.000655114 2.599C-0.00368982 2.49761 0.0136166 2.39647 0.0514234 2.30229C0.13948 2.09813 0.301214 1.93461 0.504429 1.84428C0.604238 1.79516 0.713895 1.76932 0.82514 1.76871C1.11779 1.76871 1.39154 1.95592 1.54159 2.25764L2.0112 3.47767L2.57302 2.79695C3.29606 1.92757 4.20068 1.22691 5.22337 0.744161C6.24606 0.261411 7.36205 0.00826216 8.49301 0.00248468C10.103 -0.0029396 11.6732 0.501746 12.9784 1.44409C14.2742 2.36979 15.2296 3.69568 15.6976 5.21756V5.22615C15.7298 5.32225 15.7421 5.42393 15.7336 5.52493C15.7251 5.62594 15.6961 5.72416 15.6483 5.81355C15.6039 5.90007 15.5422 5.97663 15.4672 6.03855C15.3922 6.10046 15.3053 6.14644 15.2119 6.17367L15.1867 6.18054L15.1621 6.19084C15.0957 6.21718 15.0808 6.21775 14.9364 6.21775C14.7672 6.21868 14.6021 6.16583 14.4649 6.06683C14.3277 5.96784 14.2255 5.82782 14.173 5.66699C13.7812 4.45938 13.0175 3.40654 11.991 2.65898C10.9646 1.91142 9.72802 1.50744 8.45807 1.50477C5.80075 1.50477 3.50194 3.18455 2.73738 5.68416C2.68818 5.83819 2.59149 5.97271 2.46116 6.06846C2.33082 6.1642 2.17351 6.21626 2.01177 6.21718H1.99516H1.97569L1.95107 6.21947Z" fill="#7B7B7B"/>
<path d="M8.46061 15.0002C6.86123 15.0029 5.30216 14.4987 4.00731 13.5602C2.71247 12.6217 1.74847 11.297 1.25376 9.77656C1.22133 9.68049 1.20896 9.57879 1.21743 9.47775C1.22591 9.37671 1.25503 9.27848 1.30302 9.18915C1.34718 9.10253 1.40864 9.02588 1.4836 8.96395C1.55856 8.90201 1.64543 8.85609 1.73884 8.82904C1.81839 8.80754 1.90041 8.79657 1.98281 8.79641C2.14945 8.7927 2.31294 8.84214 2.44959 8.93757C2.58623 9.03299 2.68892 9.16944 2.74278 9.32713C3.50676 11.8199 5.80501 13.4979 8.46061 13.4979C11.0521 13.4979 13.3457 11.8308 14.171 9.34832C14.3073 9.034 14.5982 8.82732 14.9728 8.78095C14.9948 8.77802 15.017 8.77649 15.0392 8.77637C15.3044 8.77637 15.5644 8.9653 15.6875 9.24526L16.9388 12.0689C16.9805 12.1693 17.0017 12.2769 17.0011 12.3856C17.0005 12.4942 16.9782 12.6017 16.9354 12.7016C16.8978 12.7942 16.8416 12.8783 16.7704 12.9485C16.6993 13.0188 16.6145 13.0739 16.5214 13.1103C16.4133 13.1519 16.2986 13.1735 16.1829 13.1739C16.029 13.1749 15.8779 13.132 15.7474 13.0504C15.6169 12.9688 15.5123 12.8518 15.4458 12.713L14.9774 11.4941L14.4138 12.1737C12.9265 13.9697 10.7571 15.0002 8.46061 15.0002Z" fill="#7B7B7B"/>
</g>
<defs>
<clipPath id="clip0_946_475">
<rect width="17" height="15" fill="white"/>
</clipPath>
</defs>
</svg>
