<svg width="47" height="37" viewBox="0 0 47 37" fill="none" xmlns="http://www.w3.org/2000/svg">
<path d="M13.7312 36.065C13.2201 36.065 12.709 35.838 12.3112 35.4402L1.63278 24.0234C1.00796 23.3985 0.837602 22.3764 1.17833 21.5241C1.51947 20.6718 2.25763 20.1041 3.05273 20.1041H44.4031C45.539 20.1041 46.4479 21.1263 46.4479 22.3759C46.4479 23.6255 45.539 24.6476 44.4031 24.6476L8.16473 24.648L15.208 32.1458C16.0032 32.9977 16.0599 34.4748 15.2647 35.3837C14.8102 35.8377 14.2991 36.0647 13.731 36.0647L13.7312 36.065ZM46.2208 15.3898C46.5615 14.5946 46.4478 13.6291 45.9367 12.9476L36.9623 1.24678C36.2238 0.281232 34.9175 0.167479 34.0656 0.9627C33.2138 1.75788 33.1001 3.1779 33.8386 4.1434L39.916 12.1523H2.99597C1.86007 12.1523 0.951172 13.1745 0.951172 14.4241C0.951172 15.6737 1.86006 16.6959 2.99597 16.6959H44.3464C45.1415 16.6963 45.8801 16.1852 46.2208 15.39L46.2208 15.3898Z" fill="#1FC28F"/>
</svg>
