<svg width="19" height="23" viewBox="0 0 19 23" fill="none" xmlns="http://www.w3.org/2000/svg">
<path fill-rule="evenodd" clip-rule="evenodd" d="M1.98717 5.76285H11.6811C12.7741 5.76285 13.6683 6.6413 13.6683 7.71501V21.0478C13.6683 22.1215 12.7741 23 11.6811 23H1.98717C0.894247 23 0 22.1216 0 21.0478V7.71501C0 6.64134 0.894202 5.76285 1.98717 5.76285ZM7.31886 0.000917363H17.0128C18.1058 0.000917363 19 0.879361 19 1.95307V15.2859C19 16.3596 18.1058 17.2381 17.0128 17.2381H14.7865V7.71405C14.7865 6.03632 13.3894 4.66315 11.6809 4.66315H5.33088V1.95216C5.33088 0.878488 6.22508 0 7.31806 0L7.31886 0.000917363Z" fill="#1FC28F"/>
</svg>
