<svg width="14" height="14" viewBox="0 0 14 14" fill="none" xmlns="http://www.w3.org/2000/svg">
<path d="M0.586415 0.588433L0.58653 0.588319C0.644553 0.530257 0.722827 0.5 0.799727 0.5H0.799965C0.876767 0.5 0.955197 0.530353 1.01328 0.588433L6.64491 6.22006L6.99846 6.57361L7.35201 6.22006L12.9836 0.588433L12.9838 0.588312C13.0985 0.473471 13.2947 0.473165 13.4101 0.588554C13.5251 0.703468 13.5253 0.89953 13.41 1.01482L13.7636 1.36837L13.41 1.01482L7.7784 6.64645L7.42484 7L7.7784 7.35355L13.41 12.9852L13.4101 12.9853C13.5251 13.1002 13.5253 13.2963 13.41 13.4116L13.4099 13.4117C13.349 13.4727 13.275 13.5 13.1967 13.5C13.121 13.5 13.0387 13.4668 12.9834 13.4116L7.35177 7.77994L6.99822 7.42638L6.64467 7.77994L1.01304 13.4116L1.01294 13.4117C0.957667 13.467 0.875681 13.5 0.799727 13.5C0.723999 13.5 0.641663 13.4668 0.586416 13.4116L0.586295 13.4114C0.471301 13.2965 0.471129 13.1005 0.586415 12.9852L6.21804 7.35355L6.5716 7L6.21804 6.64645L0.586415 1.01482L0.586295 1.0147C0.471302 0.899782 0.471128 0.70372 0.586415 0.588433Z" fill="black" stroke="black"/>
</svg>
