<svg width="72" height="71" viewBox="0 0 72 71" fill="none" xmlns="http://www.w3.org/2000/svg">
<circle cx="35.9102" cy="35.5" r="35.5" transform="rotate(-180 35.9102 35.5)" fill="#333333"/>
<path d="M23.972 35.8157L36.7068 46.8685C36.8045 46.9528 36.9293 47 37.0607 47L40.0439 47C40.2933 47 40.4079 46.6899 40.2191 46.5281L28.4146 36.2809L48.1405 36.2809C48.2888 36.2809 48.4102 36.1596 48.4102 36.0112L48.4102 33.9888C48.4102 33.8404 48.2888 33.7191 48.1405 33.7191L28.418 33.7191L40.2225 23.4719C40.4113 23.3067 40.2967 23 40.0472 23L36.963 23C36.8989 23 36.8349 23.0236 36.7877 23.0674L23.972 34.1843C23.8553 34.2857 23.7617 34.4111 23.6976 34.5518C23.6335 34.6925 23.6003 34.8454 23.6003 35C23.6003 35.1546 23.6335 35.3075 23.6976 35.4482C23.7617 35.5889 23.8553 35.7143 23.972 35.8157Z" fill="white"/>
</svg>
