<svg width="72" height="71" viewBox="0 0 72 71" fill="none" xmlns="http://www.w3.org/2000/svg">
<circle cx="35.9102" cy="35.5" r="35.5" fill="#333333"/>
<path d="M47.8484 35.1843L35.1135 24.1315C35.0158 24.0472 34.8911 24 34.7596 24H31.7764C31.527 24 31.4124 24.3101 31.6012 24.4719L43.4057 34.7191H23.6798C23.5315 34.7191 23.4102 34.8404 23.4102 34.9888V37.0112C23.4102 37.1596 23.5315 37.2809 23.6798 37.2809H43.4023L31.5978 47.5281C31.409 47.6933 31.5236 48 31.7731 48H34.8573C34.9214 48 34.9854 47.9764 35.0326 47.9326L47.8484 36.8157C47.9651 36.7143 48.0586 36.5889 48.1227 36.4482C48.1868 36.3075 48.22 36.1546 48.22 36C48.22 35.8454 48.1868 35.6925 48.1227 35.5518C48.0586 35.4111 47.9651 35.2857 47.8484 35.1843Z" fill="white"/>
</svg>
