<svg width="39" height="27" viewBox="0 0 39 27" fill="none" xmlns="http://www.w3.org/2000/svg">
<path d="M37.6072 1.70026e-05H5.57156C5.20221 1.70026e-05 4.84777 0.158056 4.58662 0.439301C4.32546 0.720546 4.17871 1.10225 4.17871 1.50001V3.375H33.4286C34.075 3.375 34.6949 3.65157 35.1522 4.14376C35.6093 4.63628 35.8661 5.30389 35.8661 5.99998V22.4999H37.6071C37.9765 22.4999 38.3309 22.3419 38.5921 22.0606C38.8532 21.7794 39 21.3977 39 20.9999V1.49999C39 1.10223 38.8532 0.720529 38.5921 0.439284C38.3309 0.158039 37.9765 0 37.6071 0L37.6072 1.70026e-05Z" fill="#1FC28F"/>
<path d="M0 25.4999C0 25.8977 0.146751 26.2794 0.407907 26.5606C0.669062 26.8419 1.0235 26.9999 1.39285 26.9999H33.4284C33.7978 26.9999 34.1522 26.8419 34.4134 26.5606C34.6745 26.2794 34.8213 25.8977 34.8213 25.4999V12H0V25.4999ZM11.1428 15H13.9285V17.9999H11.1428V15ZM2.7857 15H8.35711V17.9999H2.7857V15Z" fill="#1FC28F"/>
<path d="M33.4284 4.49985H1.39285C1.0235 4.49985 0.669062 4.65789 0.407907 4.93913C0.146751 5.22038 0 5.60208 0 5.99984V7.49984H34.8213V5.99984C34.8213 5.60208 34.6745 5.22038 34.4134 4.93913C34.1522 4.65789 33.7978 4.49985 33.4284 4.49985Z" fill="#1FC28F"/>
</svg>
