<svg width="16" height="16" viewBox="0 0 16 16" fill="none" xmlns="http://www.w3.org/2000/svg">
<path d="M0.867628 0.867661L0.867661 0.867628C1.32702 0.408127 1.95019 0.15 2.6 0.15H13C13.6498 0.15 14.273 0.408127 14.7324 0.867628L14.7324 0.867661C15.1919 1.32702 15.45 1.95019 15.45 2.6V13C15.45 13.6498 15.1919 14.273 14.7324 14.7324L14.7324 14.7324C14.273 15.1919 13.6498 15.45 13 15.45H2.6C1.95019 15.45 1.32702 15.1919 0.867661 14.7324L0.867628 14.7324C0.408127 14.273 0.15 13.6498 0.15 13V2.6C0.15 1.95019 0.408127 1.32702 0.867628 0.867661ZM1.58346 2.6V2.60003L1.58361 3.46665L1.58363 3.61662H1.73361H13.8667H14.0167V3.46662V2.6C14.0167 2.33042 13.9097 2.07174 13.719 1.88108C13.5284 1.69042 13.2697 1.58339 13.0001 1.58339H2.60008C2.33049 1.58339 2.07181 1.69042 1.88115 1.88108C1.69049 2.07174 1.58346 2.33044 1.58346 2.6ZM1.73331 5.05001H1.58331V5.20001V13C1.58331 13.2696 1.69035 13.5283 1.88101 13.7189C2.07167 13.9096 2.33037 14.0166 2.59993 14.0166H12.9999C13.2695 14.0166 13.5282 13.9096 13.7189 13.7189C13.9095 13.5283 14.0166 13.2696 14.0166 13L14.0164 5.20001L14.0164 5.05001H13.8664H1.73331Z" fill="#7B7B7B" stroke="white" stroke-width="0.3"/>
<path d="M5.55706 11.7764L5.55664 11.7759L3.82338 10.0427L3.82294 10.0423C3.68724 9.90766 3.61094 9.72443 3.61094 9.53345C3.61094 9.34232 3.68725 9.15912 3.8229 9.02467L4.08173 8.76814H4.0793L5.55662 7.29082C5.73853 7.1089 6.0038 7.03781 6.25236 7.10445L6.25241 7.10447C6.50076 7.17097 6.69495 7.3651 6.76162 7.61368C6.82813 7.86207 6.75721 8.12724 6.57533 8.30911C6.57527 8.30917 6.57522 8.30923 6.57516 8.30929L5.44891 9.427L5.34162 9.53347L5.44892 9.63994L6.57554 10.7579L6.57556 10.7579C6.71126 10.8925 6.78756 11.0757 6.78756 11.2667C6.78756 11.4578 6.71125 11.641 6.5756 11.7755L6.57559 11.7755L6.57465 11.7764C6.44024 11.9121 6.25704 11.9884 6.06588 11.9884C5.87493 11.9884 5.69169 11.9121 5.55706 11.7764Z" fill="#7B7B7B" stroke="white" stroke-width="0.3"/>
<path d="M9.01083 11.7641L9.02309 11.7764C9.15754 11.9121 9.34073 11.9884 9.53186 11.9884C9.72285 11.9884 9.90607 11.9121 10.0407 11.7764L10.0411 11.776L11.7744 10.0426L11.7745 10.0426L11.7746 10.0425L11.828 10.096L11.7748 10.0423C11.9105 9.90766 11.9868 9.72443 11.9868 9.53348C11.9868 9.34232 11.9105 9.15912 11.7748 9.02471L11.7743 9.02423L10.041 7.29085L10.0324 7.28231C9.85081 7.10672 9.58999 7.03889 9.34536 7.10448L9.34531 7.1045C9.09694 7.171 8.90277 7.36514 8.8361 7.61371L9.01083 11.7641ZM9.01083 11.7641C8.88225 11.6308 8.81016 11.4525 8.81016 11.2667C8.81016 11.0799 8.88321 10.9004 9.01351 10.7667L9.02219 10.758L10.1488 9.63996L10.2561 9.53349L10.1488 9.42703L9.02256 8.30932C9.0225 8.30926 9.02244 8.3092 9.02239 8.30915C8.84053 8.12728 8.7696 7.86214 8.83609 7.61376L9.01083 11.7641Z" fill="#7B7B7B" stroke="white" stroke-width="0.3"/>
</svg>
