<svg width="31" height="30" viewBox="0 0 31 30" fill="none" xmlns="http://www.w3.org/2000/svg">
<path d="M16.4362 23.3791C16.8884 23.3791 17.2435 23.0238 17.2435 22.5719C17.2435 22.1197 16.8881 21.7646 16.4362 21.7646C15.984 21.7646 15.6289 22.1199 15.6289 22.5719C15.6289 22.7334 15.6936 22.9272 15.7905 23.0563C15.8227 23.0885 15.8227 23.1209 15.8551 23.1531C15.9842 23.2822 16.2102 23.3791 16.4362 23.3791L16.4362 23.3791Z" fill="#1FC28F"/>
<path d="M10.8509 22.4099C10.8509 21.9578 10.4956 21.6027 10.0436 21.6027C9.59141 21.6027 9.23633 21.958 9.23633 22.4099C9.23633 22.8621 9.59164 23.2172 10.0436 23.2172C10.4633 23.2497 10.8509 22.8622 10.8509 22.4099Z" fill="#1FC28F"/>
<path d="M2.77832 22.5719C2.77832 23.0241 3.13363 23.3792 3.58559 23.3792C3.81155 23.3792 4.03777 23.2823 4.19907 23.1207C4.23128 23.0885 4.26374 23.0561 4.26374 23.0239C4.36061 22.8948 4.42529 22.7332 4.42529 22.5395C4.42529 22.0873 4.06998 21.7322 3.61802 21.7322C3.13363 21.7322 2.77834 22.1197 2.77834 22.5719L2.77832 22.5719Z" fill="#1FC28F"/>
<path d="M12.0771 18.2123C12.0771 18.6645 12.4325 19.0196 12.8844 19.0196C13.3366 19.0196 13.6917 18.6643 13.6917 18.2123C13.6917 17.7602 13.3364 17.4051 12.8844 17.4051C12.4325 17.4051 12.0771 17.7601 12.0771 18.2123Z" fill="#1FC28F"/>
<path d="M29.5467 24.3155H25.6396C24.5417 24.3155 23.5082 23.8957 22.7335 23.0885C21.9585 22.3457 21.5388 21.3124 21.5388 20.1824C21.5388 17.922 23.3795 16.0813 25.6399 16.0813H29.5794C29.6763 16.0813 29.7732 16.0813 29.9022 16.1135C29.9669 16.1135 29.9991 16.1135 30.0638 16.1457L30.0635 13.8206C30.0635 12.5613 29.1916 11.4956 28.0291 11.1727V7.65315C28.0291 6.13553 26.8021 4.87614 25.2521 4.87614H20.9897C19.924 1.93758 17.1792 0 14.0467 0C10.9144 0 8.16959 1.93758 7.10436 4.87589L3.39075 4.87613C2.48663 4.87613 1.61472 5.23144 0.968759 5.87711C0.452157 6.39372 0.0968568 7.07187 0 7.81469C0.000247819 7.94379 0.000247771 8.10508 0.000247771 8.26663V26.1563C0.000247771 28.0292 1.51786 29.5468 3.42322 29.5468H6.32931V25.8012C6.32931 25.6396 6.26464 25.5106 6.16776 25.3815L4.52081 23.7345C4.26239 23.9283 3.97175 24.0252 3.64891 24.0252C2.84164 24.0252 2.19574 23.3792 2.19574 22.572C2.19574 21.7647 2.8417 21.1188 3.64891 21.1188C4.45618 21.1188 5.10208 21.7648 5.10208 22.572C5.10208 22.8304 5.03741 23.0564 4.94053 23.2501L6.6197 24.9293C6.84567 25.1552 6.975 25.4783 6.975 25.8012V29.5792H9.68763V23.8636C9.04166 23.7021 8.55757 23.1208 8.55757 22.4429C8.55757 21.6356 9.20354 20.9897 10.0107 20.9897C10.818 20.9897 11.4639 21.6357 11.4639 22.4429C11.4639 23.1533 10.9795 23.7345 10.3338 23.8636V29.6114H13.0786L13.0781 25.8012C13.0781 25.4783 13.2072 25.1552 13.4334 24.9293L15.1126 23.2501C15.0157 23.0564 14.9511 22.8304 14.9511 22.572C14.9511 21.7647 15.597 21.1188 16.4042 21.1188C17.2115 21.1188 17.8574 21.7648 17.8574 22.572C17.8574 23.3793 17.2114 24.0252 16.4042 24.0252C16.0814 24.0252 15.7583 23.9283 15.5323 23.7345L13.8854 25.3815C13.7563 25.4783 13.7238 25.6399 13.7238 25.8012V29.5792H27.254C28.7716 29.5792 30.031 28.3522 30.031 26.8022V24.2511C29.9663 24.2511 29.9019 24.2833 29.8372 24.2833C29.7731 24.3158 29.6762 24.3158 29.5468 24.3158L29.5467 24.3155ZM19.3428 19.5362C18.5356 19.5362 17.8897 18.8902 17.8897 18.083C17.8897 17.8246 17.9543 17.5986 18.0512 17.4049L16.3399 15.7257C16.1139 15.4997 15.9846 15.1767 15.9846 14.8538V11.0436H13.2398V16.7914C13.8858 16.9529 14.3699 17.5342 14.3699 18.2121C14.3699 19.0193 13.7239 19.6653 12.9167 19.6653C12.1094 19.6653 11.4635 19.0193 11.4635 18.2121C11.4635 17.5017 11.9479 16.9205 12.5936 16.7914L12.5941 11.0436H9.84929V14.8216C9.84929 15.1444 9.72019 15.4676 9.49398 15.6935L7.78265 17.3727C7.87953 17.5664 7.9442 17.7924 7.9442 18.0508C7.9442 18.858 7.29824 19.504 6.49103 19.504C5.68377 19.504 5.03786 18.858 5.03786 18.0508C5.03786 17.2435 5.68383 16.5976 6.49103 16.5976C6.81388 16.5976 7.137 16.6945 7.36293 16.8882L9.00988 15.2413C9.10676 15.1444 9.17143 14.9829 9.17143 14.8216L9.17118 11.0436H3.35869C2.42235 11.0436 1.55045 10.5592 1.06604 9.81661C0.775401 9.36443 0.581643 8.84785 0.581643 8.26652C0.646062 8.13743 0.646062 8.00809 0.646062 7.91121C0.742938 7.32994 1.00137 6.78115 1.42111 6.32897C1.93771 5.81236 2.64809 5.5217 3.39091 5.5217H6.91074C6.91074 5.55391 6.91074 5.58636 6.87853 5.61857C6.87853 5.65078 6.84632 5.71545 6.84632 5.74767C6.81411 5.87676 6.78165 6.00609 6.78165 6.13518C6.78165 6.19985 6.74944 6.23206 6.74944 6.29673C6.71723 6.42582 6.71723 6.55515 6.71723 6.68425V6.8458C6.71723 7.03955 6.68502 7.2011 6.68502 7.39485C6.68502 7.5886 6.68502 7.78237 6.71723 8.00834V8.10521C6.74944 8.29897 6.74944 8.49273 6.7819 8.68649V8.7187C6.87877 9.29997 7.07253 9.88123 7.2985 10.43H9.52671C8.91323 9.55812 8.59037 8.49244 8.59037 7.39461C8.59037 6.58734 8.75192 5.81236 9.10697 5.06954C10.0111 3.19665 11.9162 1.96967 14.0153 1.96967C16.082 1.96967 18.0196 3.19665 18.9237 5.06954C19.279 5.81236 19.4403 6.58715 19.4403 7.39461C19.4403 8.49251 19.1175 9.52596 18.504 10.43H20.7322C20.9906 9.88097 21.1519 9.29996 21.2488 8.7187V8.68649C21.281 8.49273 21.3134 8.29897 21.3134 8.10521V8.00834C21.3134 7.81458 21.3456 7.62082 21.3456 7.39485C21.3456 7.20109 21.3456 7.03955 21.3134 6.8458V6.68425C21.3134 6.55515 21.2812 6.42582 21.2812 6.29673C21.2812 6.23206 21.249 6.16764 21.249 6.13518C21.2168 6.00609 21.2168 5.87676 21.1843 5.77987C21.1843 5.71521 21.1521 5.683 21.1521 5.61833C21.1521 5.58612 21.1521 5.55366 21.1199 5.55366H25.1886C26.3511 5.55366 27.32 6.52242 27.32 7.68502V11.0755H27.2231L16.6304 11.0758V14.8537C16.6304 15.0153 16.695 15.1444 16.7919 15.2735L18.4389 16.9204C18.6973 16.7267 18.9879 16.6298 19.3108 16.6298C20.118 16.6298 20.7639 17.2757 20.7639 18.083C20.7637 18.8904 20.1502 19.5361 19.343 19.5361L19.3428 19.5362Z" fill="#1FC28F"/>
<path d="M19.3436 17.2438C19.1176 17.2438 18.8914 17.3407 18.7301 17.5022C18.6979 17.5344 18.6979 17.5669 18.6655 17.5669C18.5686 17.696 18.5039 17.8575 18.5039 18.0513C18.5039 18.5035 18.8592 18.8586 19.3112 18.8586C19.7634 18.8586 20.1184 18.5032 20.1184 18.0513C20.1187 17.5989 19.7958 17.2438 19.3436 17.2438L19.3436 17.2438Z" fill="#1FC28F"/>
<path d="M29.7731 16.7592C29.7084 16.7592 29.6116 16.727 29.5471 16.727H25.6398C23.7347 16.727 22.1846 18.2771 22.1846 20.1822C22.1846 21.1185 22.5399 21.9904 23.1856 22.6363C23.8315 23.2823 24.7032 23.6695 25.6397 23.6695H29.5792H29.773C30.4833 23.5726 31 22.9592 31 22.2488V18.2124C31 17.5018 30.4834 16.8883 29.773 16.7592L29.7731 16.7592ZM25.1232 21.5382C24.4128 21.5382 23.7993 20.9569 23.7993 20.2144C23.7993 19.4715 24.3806 18.8905 25.1232 18.8905C25.8335 18.8905 26.447 19.4718 26.447 20.2144C26.447 20.9572 25.8335 21.5382 25.1232 21.5382Z" fill="#1FC28F"/>
<path d="M7.07211 17.5019C6.91057 17.3404 6.71681 17.2435 6.45863 17.2435C6.00645 17.2435 5.65137 17.5988 5.65137 18.0508C5.65137 18.5029 6.00667 18.858 6.45863 18.858C6.91081 18.858 7.2659 18.5027 7.2659 18.0508C7.2659 17.8892 7.20123 17.6954 7.10435 17.5664C7.13656 17.5666 7.10435 17.5344 7.07214 17.5019L7.07211 17.5019Z" fill="#1FC28F"/>
<path d="M12.9814 5.81227C12.9814 6.00602 13.0461 6.16757 13.2074 6.26445C13.369 6.36132 13.5627 6.45821 13.8534 6.52287V5.0697C13.595 5.10191 13.369 5.19879 13.2399 5.29567C13.0461 5.42476 12.9815 5.5863 12.9815 5.81227L12.9814 5.81227Z" fill="#1FC28F"/>
<path d="M14.9506 7.49202C14.789 7.39515 14.5631 7.29826 14.2725 7.2336V8.65429C14.8537 8.58987 15.1768 8.33169 15.1768 7.8795C15.1768 7.71795 15.08 7.58887 14.9506 7.49198L14.9506 7.49202Z" fill="#1FC28F"/>
<path d="M18.8271 7.36281C18.8271 6.65246 18.6656 5.97427 18.3749 5.32837C17.5677 3.68142 15.8886 2.58359 14.0478 2.58359C12.2071 2.58359 10.528 3.64927 9.72074 5.32837C9.4301 5.97434 9.26855 6.65221 9.26855 7.36281C9.26855 8.49287 9.65607 9.55855 10.3665 10.3982H17.7287C18.4393 9.55855 18.8268 8.49287 18.8268 7.36281H18.8271ZM15.5657 8.55757C15.4366 8.75132 15.2751 8.88041 15.0491 9.00975C14.8231 9.10662 14.5647 9.1713 14.2418 9.20351V9.65569C14.2418 9.72036 14.2418 9.75256 14.1772 9.78478C14.1449 9.81699 14.0803 9.84945 14.0481 9.84945C14.0158 9.84945 13.9512 9.81724 13.919 9.78478C13.8868 9.75257 13.8543 9.72011 13.8543 9.65569V9.20351C13.3699 9.1713 12.9502 9.07441 12.5305 8.88066C12.4658 8.84845 12.4336 8.816 12.4014 8.78379C12.3692 8.71912 12.3367 8.68691 12.3367 8.62224C12.3367 8.55757 12.3689 8.49315 12.4014 8.42848C12.466 8.36381 12.5305 8.36381 12.5951 8.36381C12.6273 8.36381 12.692 8.36381 12.7242 8.39602C13.0795 8.55757 13.4346 8.65445 13.8221 8.65445V7.13684C13.5315 7.07217 13.2731 6.97529 13.0793 6.87841C12.8856 6.78153 12.6918 6.65244 12.5627 6.49089C12.4336 6.32935 12.3689 6.10338 12.3689 5.84493C12.3689 5.61896 12.4336 5.39275 12.5305 5.19896C12.6274 5.0052 12.8211 4.84366 13.0149 4.71457C13.2086 4.58548 13.4993 4.52081 13.8222 4.4886V4.03642C13.8222 3.97175 13.8544 3.93955 13.8868 3.87487C13.919 3.84266 13.9837 3.81021 14.0159 3.81021C14.0806 3.81021 14.1128 3.84242 14.145 3.87487C14.1772 3.90708 14.2097 3.97175 14.2097 4.03642V4.4886C14.6294 4.4886 15.0169 4.58548 15.3397 4.71457C15.4688 4.74678 15.5335 4.84366 15.5335 4.973C15.5335 5.03766 15.5013 5.10209 15.4688 5.16675C15.4042 5.23142 15.3719 5.26363 15.2751 5.26363C15.2429 5.26363 15.2104 5.26363 15.1782 5.23142C14.8876 5.13454 14.5647 5.06987 14.2094 5.03766V6.58775C14.5323 6.65242 14.7907 6.7493 14.9845 6.84617C15.1782 6.94305 15.372 7.07214 15.5011 7.23369C15.6302 7.39524 15.727 7.62121 15.727 7.91182C15.7595 8.16999 15.6948 8.36375 15.5657 8.55753L15.5657 8.55757Z" fill="#1FC28F"/>
</svg>
