<svg width="18" height="19" viewBox="0 0 18 19" fill="none" xmlns="http://www.w3.org/2000/svg">
<path fill-rule="evenodd" clip-rule="evenodd" d="M17.5872 10.7875C17.6966 12.2421 16.5415 12.6665 16.0832 12.6665C14.3065 12.667 12.5294 12.6664 10.7524 12.6682C11.0082 13.3216 11.3201 15.0542 10.9273 17.441C10.7721 18.3846 10.2978 19.0123 9.69356 18.9998C9.20675 18.9899 8.74172 18.5493 8.69297 17.9997C8.63957 17.3955 8.51315 16.5351 8.39366 15.9468C8.01094 14.0658 5.9639 11.5824 4.66962 10.7161V1.52761C5.54767 0.945105 6.49987 0.741098 7.5169 0.763855C9.12355 0.799866 13.7131 0.768375 14.5447 0.774855C15.1333 0.779375 15.7202 1.10904 16.0025 1.94315C16.3882 3.08177 15.394 3.65128 15.394 3.65128C15.394 3.65128 16.4824 3.58815 16.7311 4.73429C16.9863 5.91057 15.985 6.37612 15.985 6.37612C16.6622 6.46291 17.0956 6.66993 17.2596 7.38635C17.4523 8.23025 16.9899 8.86398 16.2579 9.23083C16.3687 9.24364 17.4868 9.45578 17.5873 10.7873L17.5872 10.7875ZM3.54204 12.1765H0.552033C0.247207 12.1765 0 11.8865 0 11.5285V1.13349C0 0.775648 0.247069 0.485449 0.552033 0.485449H3.54204C3.84686 0.485449 4.09407 0.775486 4.09407 1.13349V11.5285C4.09407 11.8862 3.84713 12.1764 3.54204 12.1764V12.1765Z" fill="#F30909"/>
</svg>
