<svg width="48" height="48" viewBox="0 0 48 48" fill="none" xmlns="http://www.w3.org/2000/svg">
<rect width="48" height="48" rx="24" fill="#46127B"/>
<path d="M16.2098 29.2189C15.5485 29.2189 14.9298 29.0802 14.3538 28.8029C13.7778 28.5256 13.3085 28.1256 12.9458 27.6029L13.8738 26.5149C14.1832 26.9416 14.5298 27.2722 14.9138 27.5069C15.3085 27.7309 15.7405 27.8429 16.2098 27.8429C17.4898 27.8429 18.1298 27.0856 18.1298 25.5709V19.2829H14.0818V17.8909H19.7138V25.4909C19.7138 26.7389 19.4152 27.6722 18.8178 28.2909C18.2312 28.9096 17.3618 29.2189 16.2098 29.2189ZM22.973 29.0909V17.8909H24.285L31.693 27.0909H31.005V17.8909H32.605V29.0909H31.293L23.885 19.8909H24.573V29.0909H22.973Z" fill="white"/>
</svg>
