<svg width="17" height="21" viewBox="0 0 17 21" fill="none" xmlns="http://www.w3.org/2000/svg">
<path d="M8.55461 19.8792L15.818 14.6495C16.1861 14.3708 16.2267 13.8843 15.9492 13.5695C15.6717 13.2546 15.1046 13.1963 14.7585 13.4467L8.89716 17.6606L9.19282 0.921551C9.20029 0.498803 8.82865 0.149732 8.36301 0.141507C7.89707 0.133277 7.51364 0.469292 7.50617 0.891759L7.21051 17.6308L1.50162 13.2126C1.16464 12.9498 0.599867 12.9916 0.307318 13.2932C-0.00107812 13.6113 0.0632948 14.1146 0.400281 14.3771L7.4745 19.8601C7.88033 20.1065 8.18945 20.0805 8.55525 19.8792L8.55461 19.8792Z" fill="#7B7B7B"/>
</svg>
