<svg width="24" height="24" viewBox="0 0 24 24" fill="none" xmlns="http://www.w3.org/2000/svg">
<path d="M10.1536 17.424C9.2416 17.424 8.32969 17.0641 7.6336 16.368C6.2416 14.976 6.2416 12.7199 7.6336 11.304L13.5616 5.37598L4.77761 5.37614C2.47352 5.37614 0.601562 7.24814 0.601562 9.55219V19.2002C0.601562 21.5043 2.47356 23.3762 4.77761 23.3762H14.4256C16.7297 23.3762 18.6016 21.5042 18.6016 19.2002L18.6015 10.4642L12.6735 16.3922C11.9776 17.0881 11.0655 17.4241 10.1534 17.4241L10.1536 17.424Z" fill="#1FC28F"/>
<path d="M22.1093 0.600013H14.5253C13.8052 0.600013 13.2293 1.17606 13.2293 1.89593C13.2293 2.61597 13.8054 3.19184 14.5253 3.19184H19.0133L9.24525 12.9358C8.74117 13.4399 8.74117 14.2559 9.24525 14.7598C9.48532 14.9999 9.82129 15.1438 10.1573 15.1438C10.4933 15.1438 10.8053 15.0238 11.0693 14.7598L20.8373 4.9918V9.4798C20.8373 10.1998 21.4134 10.7757 22.1333 10.7757C22.8533 10.7757 23.4292 10.1997 23.4292 9.4798L23.429 1.8958C23.4051 1.17593 22.829 0.599884 22.1091 0.599884L22.1093 0.600013Z" fill="#1FC28F"/>
</svg>
