<svg width="24" height="16" viewBox="0 0 24 16" fill="none" xmlns="http://www.w3.org/2000/svg">
<path d="M20.2371 4.02928C19.0401 3.0173 17.8167 2.20854 16.6006 1.62577C15.0465 0.880958 13.4987 0.503429 11.9999 0.503429C10.5011 0.503429 8.95318 0.881108 7.39918 1.62577C6.18311 2.20871 4.9595 3.0173 3.76267 4.02928C1.74187 5.73804 0.495672 7.43107 0.4436 7.50221C0.22697 7.7987 0.22697 8.2013 0.4436 8.49778C0.495663 8.5691 1.7417 10.2621 3.76267 11.9707C4.95967 12.9827 6.18311 13.7914 7.39918 14.3742C8.9531 15.119 10.5011 15.4966 11.9999 15.4966C13.4987 15.4966 15.0466 15.1189 16.6006 14.3742C17.8167 13.7913 19.0403 12.9827 20.2371 11.9707C22.2579 10.262 23.5041 8.56892 23.5562 8.49778C23.7728 8.2013 23.7728 7.7987 23.5562 7.50221C23.5041 7.43106 22.2581 5.73804 20.2373 4.02928H20.2371ZM12 13.8093C7.42027 13.8093 3.43927 9.49014 2.20241 8C3.43991 6.50938 7.42113 2.19071 12 2.19071C16.5788 2.19071 20.5603 6.509 21.7975 8C20.56 9.49078 16.5788 13.8093 12 13.8093Z" fill="#CCCCCC"/>
<path d="M12 3.73443C9.64786 3.73443 7.73438 5.64791 7.73438 8.00004C7.73438 10.3522 9.64786 12.2657 12 12.2657C14.3521 12.2657 16.2656 10.3522 16.2656 8.00004C16.2656 5.64791 14.3521 3.73443 12 3.73443ZM12 10.5783C10.5783 10.5783 9.42187 9.42183 9.42187 8.00017C9.42187 6.57851 10.5783 5.42206 12 5.42206C13.4216 5.42206 14.5781 6.57851 14.5781 8.00017C14.5781 9.42183 13.4216 10.5783 12 10.5783Z" fill="#CCCCCC"/>
</svg>
