<svg width="24" height="16" viewBox="0 0 24 16" fill="none" xmlns="http://www.w3.org/2000/svg">
<path d="M20.2372 4.02929C19.0402 3.0173 17.8168 2.20855 16.6007 1.62578C15.0466 0.880962 13.4988 0.503433 12 0.503433C10.5013 0.503433 8.9533 0.881112 7.3993 1.62578C6.18323 2.20872 4.95962 3.0173 3.76279 4.02929C1.74199 5.73804 0.495794 7.43107 0.443722 7.50221C0.227093 7.7987 0.227093 8.2013 0.443722 8.49778C0.495785 8.5691 1.74182 10.2621 3.76279 11.9707C4.95979 12.9827 6.18323 13.7915 7.3993 14.3742C8.95322 15.119 10.5013 15.4966 12 15.4966C13.4989 15.4966 15.0467 15.1189 16.6007 14.3742C17.8168 13.7913 19.0404 12.9827 20.2372 11.9707C22.258 10.262 23.5042 8.56893 23.5563 8.49778C23.7729 8.2013 23.7729 7.7987 23.5563 7.50221C23.5042 7.43106 22.2582 5.73804 20.2374 4.02929H20.2372ZM12.0001 13.8093C7.42039 13.8093 3.43939 9.49014 2.20254 8C3.44004 6.50939 7.42125 2.19072 12.0001 2.19072C16.579 2.19072 20.5604 6.509 21.7977 8C20.5602 9.49078 16.579 13.8093 12.0001 13.8093Z" fill="#1FC28F"/>
<path d="M12 3.73444C9.64786 3.73444 7.73438 5.64792 7.73438 8.00005C7.73438 10.3522 9.64786 12.2657 12 12.2657C14.3521 12.2657 16.2656 10.3522 16.2656 8.00005C16.2656 5.64792 14.3521 3.73444 12 3.73444ZM12 10.5783C10.5783 10.5783 9.42187 9.42184 9.42187 8.00018C9.42187 6.57852 10.5783 5.42206 12 5.42206C13.4216 5.42206 14.5781 6.57852 14.5781 8.00018C14.5781 9.42184 13.4216 10.5783 12 10.5783Z" fill="#1FC28F"/>
</svg>
