<svg width="18" height="16" viewBox="0 0 18 16" fill="none" xmlns="http://www.w3.org/2000/svg">
<path d="M17.9665 6.05017C17.9271 5.9302 17.8533 5.8234 17.7537 5.74216C17.6539 5.66092 17.5324 5.60847 17.403 5.59083L12.0191 4.86354L9.61628 0.334692C9.4859 0.127006 9.25226 0 9.00021 0C8.74817 0 8.51454 0.127 8.38415 0.334692L5.98138 4.86354L0.597439 5.59083C0.423609 5.61405 0.265437 5.69976 0.154869 5.83088C0.0443121 5.96201 -0.0105004 6.12875 0.00166598 6.29725C0.0137181 6.46577 0.0918265 6.62357 0.220112 6.73874L4.10024 10.2551L3.18579 15.2148C3.16307 15.3368 3.17617 15.4626 3.22368 15.5779C3.27108 15.6932 3.35104 15.7935 3.45441 15.8674C3.55743 15.9421 3.68016 15.9871 3.80857 15.9976C3.93697 16.0081 4.06595 15.9836 4.18056 15.9268L9.00054 13.5709L13.822 15.9268C13.9365 15.9835 14.0654 16.008 14.1936 15.9975C14.3219 15.987 14.4445 15.9419 14.5474 15.8674C14.6508 15.7935 14.7308 15.6932 14.7782 15.5779C14.8257 15.4626 14.8388 15.3368 14.8161 15.2148L13.9016 10.2551L17.7817 6.73874C17.877 6.65258 17.945 6.54221 17.9778 6.42033C18.0106 6.29845 18.007 6.17012 17.9673 6.05016L17.9665 6.05017ZM12.6799 9.52994H12.6798C12.5103 9.68351 12.4321 9.90895 12.4721 10.1299L13.2094 14.1296L9.31296 12.2271C9.11699 12.132 8.88591 12.132 8.68996 12.2271L4.79055 14.1336L5.52851 10.1339C5.56849 9.91294 5.49038 9.68751 5.32084 9.53394L2.22095 6.72007L6.52947 6.13808V6.13819C6.75289 6.10773 6.94688 5.97436 7.04932 5.78084L9.00003 2.10566L10.9507 5.78084C11.0532 5.97436 11.2472 6.10771 11.4706 6.13819L15.7797 6.72018L12.6799 9.52994Z" fill="#7B7B7B"/>
</svg>
