<svg width="41" height="40" viewBox="0 0 41 40" fill="none" xmlns="http://www.w3.org/2000/svg">
<path fill-rule="evenodd" clip-rule="evenodd" d="M0.410156 36.3645C0.410156 38.3722 2.02373 40 4.04573 40H14.9564C16.9645 40 18.5923 38.3864 18.5923 36.3645V25.4539C18.5923 23.4458 16.9787 21.8181 14.9564 21.8181H4.04573C2.03794 21.8181 0.410156 23.4316 0.410156 25.4539V36.3645ZM0.410156 14.5461C0.410156 16.5542 2.02373 18.1819 4.04573 18.1819H14.9564C16.9645 18.1819 18.5923 16.5684 18.5923 14.5461V3.63553C18.5923 1.62777 16.9787 0 14.9564 0H4.04573C2.03794 0 0.410156 1.61355 0.410156 3.63553V14.5461ZM22.228 14.5461C22.228 16.5542 23.8416 18.1819 25.8639 18.1819H36.7746C38.7824 18.1819 40.4102 16.5684 40.4102 14.5461V3.63553C40.4102 1.62777 38.7966 0 36.7746 0H25.8639C23.8558 0 22.228 1.61355 22.228 3.63553V14.5461ZM22.228 36.3645C22.228 38.3722 23.8416 40 25.8639 40H36.7746C38.7824 40 40.4102 38.3864 40.4102 36.3645V25.4539C40.4102 23.4458 38.7966 21.8181 36.7746 21.8181H25.8639C23.8558 21.8181 22.228 23.4316 22.228 25.4539V36.3645Z" fill="#1FC28F"/>
</svg>
