<svg width="19" height="18" viewBox="0 0 19 18" fill="none" xmlns="http://www.w3.org/2000/svg">
<path d="M18.9969 2.75138C18.9972 2.95082 18.9182 3.14214 18.7771 3.2832C18.6362 3.42414 18.4447 3.50325 18.2454 3.50281H7.89299C7.67425 4.2759 7.12819 4.91455 6.39835 5.25072C5.66867 5.5869 4.8284 5.5869 4.09856 5.25072C3.36888 4.91455 2.82283 4.2759 2.60408 3.50281H1.25142C0.983037 3.50281 0.734991 3.35955 0.600699 3.12718C0.466434 2.89464 0.466434 2.60811 0.600699 2.37572C0.734965 2.14318 0.983026 1.99993 1.25142 1.99993H2.60408C2.82282 1.22684 3.36888 0.588195 4.09856 0.25202C4.8284 -0.0840066 5.66867 -0.0840066 6.39835 0.25202C7.12819 0.588191 7.67424 1.22684 7.89299 1.99993H18.2454C18.4449 1.99964 18.6362 2.0786 18.7771 2.21969C18.9182 2.36063 18.9972 2.55194 18.9969 2.75139V2.75138Z" fill="#7B7B7B"/>
<path d="M18.9968 8.99999C18.9971 9.19943 18.9182 9.39076 18.7771 9.53181C18.6361 9.67275 18.4447 9.75186 18.2454 9.75142H16.3899C16.172 10.5244 15.6267 11.163 14.8975 11.4993C14.1682 11.8355 13.3283 11.8355 12.5991 11.4993C11.8699 11.163 11.3245 10.5244 11.1067 9.75142H1.25142C0.983037 9.75142 0.734991 9.60816 0.600699 9.37564C0.466434 9.14325 0.466434 8.85672 0.600699 8.62433C0.734965 8.3918 0.983026 8.24854 1.25142 8.24854H11.1067C11.3245 7.4756 11.8699 6.83696 12.5991 6.50063C13.3283 6.16446 14.1682 6.16446 14.8975 6.50063C15.6267 6.83695 16.172 7.4756 16.3899 8.24854H18.2454C18.4448 8.24811 18.6361 8.32721 18.7771 8.46816C18.9182 8.60924 18.9971 8.80055 18.9968 8.99997V8.99999Z" fill="#7B7B7B"/>
<path d="M18.9969 15.2486C18.9972 15.448 18.9182 15.6394 18.7771 15.7803C18.6362 15.9214 18.4447 16.0003 18.2454 16.0001H7.89299C7.67425 16.7731 7.12819 17.4118 6.39835 17.748C5.66867 18.084 4.8284 18.084 4.09856 17.748C3.36888 17.4118 2.82283 16.7731 2.60408 16.0001H1.25142C0.983037 16.0001 0.734991 15.8568 0.600699 15.6243C0.466434 15.3919 0.466434 15.1053 0.600699 14.8728C0.734965 14.6404 0.983026 14.4972 1.25142 14.4972H2.60408C2.82282 13.7241 3.36888 13.0854 4.09856 12.7493C4.8284 12.4131 5.66867 12.4131 6.39835 12.7493C7.12819 13.0854 7.67424 13.7241 7.89299 14.4972H18.2454C18.4449 14.4967 18.6362 14.5758 18.7771 14.7168C18.9182 14.8579 18.9972 15.0492 18.9969 15.2486V15.2486Z" fill="#7B7B7B"/>
</svg>
