<svg width="93" height="89" viewBox="0 0 93 89" fill="none" xmlns="http://www.w3.org/2000/svg">
<path d="M9.16029 57.1706C9.16094 59.5599 10.0649 61.8613 11.6911 63.6119C13.3179 65.3625 15.5462 66.4327 17.9291 66.6087V73.522H11.2558L5.64024 37.0234H12.4544C12.8579 37.0234 13.1844 36.6969 13.1844 36.2935C13.1844 35.89 12.8579 35.5635 12.4544 35.5635H4.78964C4.57652 35.5635 4.37447 35.6567 4.23565 35.8183C4.09682 35.98 4.03556 36.1937 4.06814 36.4043L9.90791 74.3628C9.96266 74.7193 10.269 74.9819 10.6294 74.9819H67.5671C67.7803 74.9819 67.9823 74.8887 68.1211 74.7271C68.26 74.5654 68.3212 74.3517 68.2886 74.1412L64.4699 49.3221C64.4432 49.1279 64.3396 48.9533 64.1831 48.8359C64.0261 48.7193 63.8292 48.6704 63.6357 48.6997C63.4421 48.7297 63.2687 48.8359 63.1547 48.9943C63.04 49.1533 62.9943 49.3508 63.0269 49.5437L66.7165 73.5218H63.0633L56.2511 37.0233H58.0773C58.4808 37.0233 58.8073 36.6967 58.8073 36.2933C58.8073 35.8899 58.4808 35.5633 58.0773 35.5633H55.9787L55.7062 34.1034H56.2524C56.6558 34.1034 56.9824 33.7769 56.9824 33.3734C56.9824 32.97 56.6558 32.6434 56.2524 32.6434H55.2356C54.8257 31.8079 54.2 31.0975 53.4231 30.5852C52.6463 30.0729 51.7468 29.7777 50.8174 29.7301C50.7705 29.7275 47.4544 29.7262 44.208 29.7255V20.4646C44.1995 18.2487 42.5675 16.2367 40.1455 15.4578V15.4584C39.4527 15.2362 38.7292 15.1234 38.0012 15.1241C36.5516 15.1176 35.1373 15.5712 33.9615 16.4198C33.5809 16.7007 33.2342 17.0246 32.9279 17.385C32.6274 17.7409 32.3726 18.132 32.1685 18.5498L30.6688 21.643V21.6436C29.7049 23.5806 28.1889 25.1892 26.3125 26.2659C25.0136 27.0246 23.858 28.0042 22.8966 29.1604C22.7454 29.3442 22.6014 29.5332 22.4625 29.7229H20.3561C19.2135 29.7255 18.1036 30.1016 17.1944 30.7937C16.2859 31.4859 15.6282 32.4564 15.3218 33.5566L9.50226 54.6515C9.27544 55.4714 9.16008 56.3187 9.16008 57.17L9.16029 57.1706ZM51.5069 68.5308L52.4383 73.522H51.5069V68.5308ZM53.9236 73.522L51.5069 60.5747V47.9737L56.6259 46.9908L61.578 73.5217L53.9236 73.522ZM27.0523 27.5246C29.177 26.3019 30.8926 24.4776 31.9816 22.2812L33.4813 19.188C33.6319 18.8797 33.8202 18.591 34.0418 18.3289C34.2745 18.0552 34.5378 17.8095 34.8265 17.5964C35.7507 16.9316 36.8619 16.5777 38 16.5848C38.5768 16.5842 39.1497 16.6735 39.6986 16.8488C41.487 17.4237 42.7409 18.9136 42.7463 20.468V29.7262H39.0971V27.9612C39.7482 27.677 40.3022 27.2091 40.6913 26.6147C41.0804 26.0203 41.287 25.3248 41.287 24.6145V21.6946C41.2857 20.4856 40.3061 19.506 39.0971 19.5047H38.5457C38.2276 19.5047 37.9467 19.7106 37.8502 20.0137L37.8411 20.043C37.8385 20.0502 37.8366 20.058 37.8346 20.0658H37.834C37.6443 20.7443 37.2376 21.342 36.6751 21.7662C36.6184 21.8086 36.5611 21.849 36.5031 21.8874C35.9582 21.1203 34.9845 20.7866 34.0837 21.0584C33.1837 21.3308 32.5573 22.1475 32.5286 23.088C32.5006 24.0402 33.0898 24.9018 33.9873 25.2205V29.7254C30.3753 29.7254 26.8845 29.7241 24.3386 29.7241C25.1266 28.8573 26.0417 28.1156 27.0526 27.5244L27.0523 27.5246ZM36.8144 28.1705C37.0843 28.2331 37.3599 28.2644 37.6369 28.2644V31.3993C37.6369 31.7037 37.5105 31.9944 37.2876 32.2017C37.0647 32.4089 36.7655 32.5139 36.4618 32.4917C35.8752 32.433 35.4327 31.9318 35.447 31.342V24.6146C35.447 24.421 35.3701 24.2353 35.2333 24.0984C35.0964 23.9615 34.9106 23.8846 34.7171 23.8846C34.5196 23.8846 34.3299 23.8045 34.1924 23.663C34.0549 23.5209 33.9806 23.3293 33.9871 23.1318C34.0047 22.7597 34.2947 22.4586 34.6656 22.4266C34.6819 22.4253 34.6982 22.4247 34.7145 22.4247C35.0658 22.424 35.3682 22.6736 35.4333 23.0197C35.4731 23.2328 35.6061 23.4173 35.7951 23.5235C35.9847 23.6291 36.2116 23.6454 36.4142 23.5672C36.8216 23.4088 37.2055 23.1944 37.5542 22.9311C38.2268 22.4247 38.7495 21.7449 39.0669 20.9648H39.0969C39.2905 20.9648 39.4762 21.0417 39.6131 21.1785C39.75 21.3154 39.8269 21.5011 39.8269 21.6947V24.6146C39.8275 25.6085 39.1588 26.4787 38.1975 26.7328C38.1883 26.7347 38.1792 26.7373 38.1707 26.7399H38.1714C37.8344 26.8227 37.4838 26.8253 37.1455 26.7484C36.7551 26.6617 36.3667 26.9055 36.2761 27.2952C36.1855 27.6856 36.4253 28.076 36.8144 28.1705L36.8144 28.1705ZM16.7273 33.9464C16.9482 33.1532 17.4221 32.4545 18.0764 31.9559C18.7315 31.4573 19.5312 31.1861 20.3543 31.1842C20.3543 31.1842 26.9422 31.1842 33.9865 31.1861V31.3432V31.3426C33.9806 31.9963 34.2217 32.6278 34.6617 33.1109C35.1016 33.5939 35.7078 33.893 36.3589 33.9484C36.4188 33.9529 36.4788 33.9549 36.5388 33.9549V33.9542C37.2166 33.9549 37.8671 33.6863 38.3468 33.2067C38.8265 32.7276 39.0956 32.0772 39.0956 31.3993V31.1856C45.4405 31.1856 50.4513 31.1875 50.753 31.1888V31.1895C51.5951 31.2357 52.3967 31.5636 53.0302 32.1202C53.6637 32.6761 54.0925 33.4289 54.2476 34.2579L56.3561 45.5561L51.5058 46.4882V43.5936C51.5058 43.1902 51.1793 42.8637 50.7758 42.8637C50.3724 42.8637 50.0458 43.1902 50.0458 43.5936V73.5233H19.3871V66.6068C21.6297 66.4263 23.7337 65.4519 25.3219 63.8583L45.9797 43.1655H47.7375C48.7086 43.1648 49.6399 42.779 50.3263 42.092C51.0133 41.4057 51.3991 40.4744 51.3998 39.5032C51.3985 38.5145 50.5981 37.7141 49.61 37.7129L42.0867 37.7116L42.6974 36.9523C43.31 36.1923 43.2194 35.0862 42.4914 34.4365C41.7634 33.7867 40.6534 33.8213 39.9685 34.516L20.4119 54.3746L24.5408 39.4076H24.5415C24.5956 39.2199 24.5728 39.0185 24.4776 38.8477C24.3824 38.677 24.2228 38.5518 24.0344 38.5003C23.8461 38.4482 23.6447 38.4736 23.4758 38.5714C23.3064 38.6691 23.1832 38.8301 23.1343 39.0191L21.0388 46.6147L13.7391 44.78L16.7273 33.9464ZM10.9077 55.043L13.3506 46.1889L20.6503 48.0236L18.2576 56.6946C18.169 57.0153 18.3085 57.3555 18.5966 57.5217C18.8846 57.6879 19.2483 57.6384 19.4816 57.4011L41.0087 35.5404C41.1241 35.4237 41.3026 35.3963 41.4467 35.4739C41.5705 35.5371 41.6481 35.6655 41.6461 35.8044C41.6461 35.8884 41.6168 35.9699 41.5633 36.0344L39.9939 37.9832C39.8173 38.2022 39.7827 38.5027 39.904 38.7562C40.0252 39.0098 40.2813 39.1714 40.5622 39.1714L49.6105 39.1733H49.6099C49.7924 39.1733 49.9403 39.3213 49.9403 39.5031C49.939 40.7193 48.9536 41.7047 47.7381 41.7061H45.6771C45.4829 41.7061 45.2972 41.783 45.1603 41.9205L24.289 62.8269H24.2896C22.8029 64.3188 20.7884 65.1641 18.6826 65.1791C18.6741 65.1791 18.6663 65.1765 18.6578 65.1765C18.6494 65.1765 18.6448 65.1785 18.6383 65.1785C16.1362 65.1837 13.7754 64.0184 12.2583 62.0292C10.7409 60.0393 10.2417 57.4551 10.9085 55.0437L10.9077 55.043Z" fill="black"/>
<path d="M47.343 28.0482C47.5652 28.2705 47.9048 28.3252 48.1857 28.1851L55.3374 24.6088C59.1651 25.9892 63.4263 25.4079 66.7438 23.0518C70.0613 20.6957 72.0146 16.8646 71.9729 12.7956C71.9312 8.72664 69.8996 4.93663 66.5339 2.64911C63.1689 0.362093 58.8967 -0.131951 55.0982 1.32669C51.2996 2.78533 48.456 6.01218 47.4869 9.96387C46.5171 13.9162 47.545 18.092 50.2373 21.1429L47.206 27.2055C47.0658 27.4864 47.1206 27.826 47.3428 28.0483L47.343 28.0482ZM51.7684 21.3455C51.9065 21.0692 51.8557 20.7361 51.6419 20.5132C49.134 17.8956 48.086 14.2054 48.8445 10.6605C49.6025 7.11627 52.0681 4.17753 55.4273 2.81469C58.7871 1.45251 62.6032 1.84357 65.6161 3.85881C68.6293 5.87403 70.4483 9.25142 70.4718 12.8766C70.4953 16.5017 68.7212 19.9025 65.7341 21.9569C62.7478 24.0118 58.937 24.4525 55.5601 23.134C55.3678 23.059 55.1527 23.0688 54.9683 23.1614L49.4909 25.9001L51.7684 21.3455Z" fill="#1FC28F"/>
<path d="M55.4419 18.89C55.7776 19.1135 56.2306 19.023 56.4541 18.6873L63.7904 7.68168C64.0146 7.34668 63.9233 6.89304 63.5883 6.6695C63.2527 6.44595 62.7997 6.53654 62.5755 6.87219L55.2386 17.8778C55.131 18.0388 55.0926 18.2363 55.1304 18.4259C55.1688 18.6156 55.2809 18.7825 55.4419 18.89H55.4419Z" fill="#1FC28F"/>
<path d="M60.6187 16.9057C60.6187 17.7575 61.1322 18.5253 61.9189 18.8512C62.7056 19.177 63.6116 18.9972 64.2138 18.3949C64.816 17.7927 64.9959 16.8868 64.67 16.1001C64.3441 15.3134 63.5764 14.7998 62.7245 14.7998C61.5625 14.8011 60.6201 15.7435 60.6187 16.9056L60.6187 16.9057ZM63.3703 16.9057C63.3703 17.167 63.2133 17.4023 62.9715 17.5027C62.7303 17.6024 62.4527 17.547 62.2676 17.3626C62.0831 17.1775 62.0277 16.8998 62.1281 16.6587C62.2278 16.4175 62.4637 16.2598 62.7244 16.2598C63.081 16.2604 63.3703 16.5492 63.3703 16.9057L63.3703 16.9057Z" fill="#1FC28F"/>
<path d="M58.4095 8.65176C58.4095 7.79991 57.8966 7.03214 57.1099 6.70628C56.3226 6.38041 55.4172 6.56029 54.8144 7.16252C54.2121 7.76475 54.0323 8.6707 54.3581 9.45738C54.684 10.244 55.4518 10.7576 56.3036 10.7576C57.4657 10.7563 58.4081 9.81391 58.4094 8.65183L58.4095 8.65176ZM55.6578 8.65176C55.6578 8.39041 55.8155 8.15511 56.0567 8.05475C56.2978 7.95503 56.5755 8.01043 56.7606 8.19488C56.9451 8.37933 57.0005 8.65762 56.9007 8.89879C56.8004 9.13994 56.5651 9.29766 56.3037 9.29766C55.9472 9.29701 55.6585 9.00828 55.6578 8.65177L55.6578 8.65176Z" fill="#1FC28F"/>
<path d="M91.6565 76.4413H89.6177L88.5664 67.6817H88.7365C88.9484 67.6817 89.1491 67.5898 89.2879 67.4301C89.4268 67.2704 89.4893 67.058 89.4593 66.8487L88.6342 61.0722C88.7489 60.9073 88.8284 60.7216 88.8682 60.5247L91.416 47.79C91.5861 46.9434 91.577 46.07 91.3893 45.2274L89.1538 35.1681C88.9909 34.4538 88.5913 33.8157 88.0204 33.357C87.4488 32.8988 86.739 32.6472 86.0065 32.6433H85.9739C85.8631 31.066 85.1605 29.5898 84.0076 28.5079L83.7 28.227C83.1961 27.7519 82.85 27.1333 82.7093 26.4556C82.4896 25.4134 81.9382 24.4704 81.1379 23.7678L80.7318 23.4204C79.9999 22.7849 79.0659 22.4317 78.0974 22.4238C77.1667 22.4271 76.2614 22.7308 75.5171 23.2894C74.4215 24.1288 73.6941 25.3606 73.4875 26.7255L73.4047 27.2319H73.4054C73.3005 27.9078 73.0209 28.5452 72.594 29.0796C71.8118 30.0599 71.3902 31.2794 71.3999 32.5339V32.6434H71.2174H71.1835C70.6002 32.6721 70.0364 32.8657 69.5587 33.2007C69.0803 33.5363 68.7068 34.0004 68.4813 34.5394L66.8376 38.4839V33.0431C66.8343 32.3874 66.5971 31.7539 66.1683 31.2572C65.7394 30.7606 65.1476 30.4341 64.4984 30.3357L58.1841 29.405C57.9743 29.3737 57.7611 29.4356 57.6008 29.5744C57.4405 29.7132 57.3479 29.9146 57.3479 30.1271V30.7202C57.3499 31.3296 57.5369 31.9247 57.8856 32.4246C58.2337 32.9251 58.7257 33.3077 59.2967 33.5215L60.2678 33.8813V42.418C60.2678 44.0272 60.9658 45.5575 62.1807 46.6128C63.3963 47.668 65.0087 48.1438 66.6023 47.9183C68.1958 47.6927 69.6128 46.7875 70.4874 45.4364V46.487L69.4759 60.6458L67.881 50.0124V50.0117C67.8217 49.6135 67.4495 49.3385 67.0513 49.3984C66.6524 49.4584 66.3774 49.8299 66.4373 50.2288L69.5983 71.307L69.3754 76.4422H8.33819L1.98753 34.1038H13.0465C13.45 34.1038 13.7765 33.7773 13.7765 33.3739C13.7765 32.9704 13.45 32.6439 13.0465 32.6439H1.14026C0.927792 32.6439 0.725736 32.7364 0.586916 32.8974C0.448744 33.0584 0.38683 33.2722 0.418114 33.4821L6.98001 77.2269V81.552C6.98001 81.7456 7.05692 81.9313 7.19378 82.0682C7.33064 82.2051 7.5164 82.282 7.70998 82.282H69.1226L69.0412 84.1564L66.322 86.8755C66.1134 87.0848 66.0509 87.3982 66.1636 87.6713C66.277 87.9438 66.5429 88.1217 66.8382 88.1217H77.0578C77.4521 88.1217 77.7754 87.8089 77.7878 87.4145L77.9481 82.2819H81.9278L82.1188 84.052H82.1181C82.0738 84.1159 82.0399 84.1869 82.0184 84.2612L78.9936 86.8357C78.7603 87.0339 78.6762 87.3565 78.7818 87.6439C78.8873 87.9307 79.1611 88.1217 79.4668 88.1217H90.1973C90.4058 88.1217 90.6046 88.0324 90.7434 87.8759C90.8822 87.7202 90.9468 87.5116 90.922 87.3043L90.3191 82.2818H91.6572C91.8508 82.2818 92.0365 82.2049 92.1734 82.068C92.3103 81.9312 92.3872 81.7454 92.3872 81.5518V77.172C92.3872 76.9784 92.3102 76.7927 92.1734 76.6558C92.0365 76.5189 91.8508 76.442 91.6572 76.442L91.6565 76.4413ZM89.3388 42.7292L89.9644 45.5435C90.1078 46.1881 90.115 46.8555 89.9847 47.5033L87.4368 60.2393L83.5914 59.3953L83.9219 57.9627C83.9903 57.6662 83.8678 57.3585 83.6143 57.1904C83.3718 57.0294 83.2408 56.7452 83.276 56.4565C83.3118 56.1678 83.5074 55.9234 83.7811 55.8256L84.0953 55.7142V55.7148C84.3305 55.6314 84.5065 55.4339 84.5626 55.1908L86.5282 46.6776C86.553 46.5714 86.553 46.4612 86.5295 46.355L85.8843 43.4488L89.3388 42.7292ZM81.8565 28.2347C82.0872 28.633 82.3773 28.994 82.7155 29.3062L83.0225 29.5865V29.5871C83.875 30.3901 84.4036 31.4779 84.5085 32.6438H80.7068V29.952C81.4035 29.6666 81.8578 28.9874 81.8565 28.2346V28.2347ZM72.8596 32.5345C72.8498 31.6155 73.1555 30.722 73.7258 30.001C74.3143 29.2684 74.7002 28.3951 74.8462 27.4669L74.9289 26.9598H74.9283C75.0723 25.9717 75.5937 25.0769 76.3823 24.4649C76.8764 24.0921 77.478 23.8881 78.0971 23.8842C78.7188 23.8887 79.3172 24.1181 79.7826 24.5301L80.1886 24.8781H80.1893C80.7485 25.3734 81.133 26.0369 81.2842 26.7688C81.2966 26.8262 81.3136 26.8823 81.3279 26.939C81.311 26.9207 81.2947 26.9025 81.2771 26.8862C80.6357 26.2813 79.6568 26.2136 78.9378 26.7232C78.449 26.574 78.0469 26.2253 77.8298 25.7625C77.7093 25.5064 77.4512 25.3434 77.1683 25.3441C76.3008 25.3454 75.5982 26.048 75.5969 26.9155V29.359C75.5969 29.8459 75.7364 30.323 75.9984 30.7336C76.2604 31.1442 76.6345 31.4714 77.0757 31.6767L77.0699 32.6439H72.8596L72.8596 32.5345ZM77.9459 30.4338C77.4303 30.3348 77.0575 29.8837 77.0569 29.3591V27.2044C77.5796 27.7747 78.2874 28.1403 79.0546 28.2367C79.3003 28.268 79.546 28.1722 79.7057 27.9832C79.7767 27.8972 79.8817 27.8457 79.9931 27.8424C80.0974 27.8405 80.1984 27.8783 80.2747 27.9493C80.3509 28.0204 80.3952 28.1194 80.3985 28.2237C80.4018 28.328 80.3633 28.4297 80.2916 28.5053C80.2219 28.5809 80.1248 28.6252 80.0218 28.6285H79.9957C79.7989 28.6232 79.6086 28.6982 79.4671 28.8357C79.3264 28.9732 79.2468 29.1622 79.2468 29.3591V33.7422C79.2488 33.8394 79.2116 33.9339 79.1432 34.0029C79.0748 34.0727 78.9816 34.1118 78.8838 34.1118C78.7867 34.1111 78.6935 34.072 78.6257 34.0023C78.5573 33.9326 78.5208 33.838 78.5227 33.7409L78.539 31.1561L78.5397 31.1554C78.5416 30.8035 78.292 30.4998 77.9459 30.4339L77.9459 30.4338ZM69.5975 44.0086C69.1041 45.1792 68.0952 46.0539 66.8673 46.3777C65.6388 46.7016 64.33 46.437 63.3238 45.6621C62.3175 44.8865 61.7276 43.6886 61.7276 42.4183V33.3739C61.7276 33.0689 61.5379 32.7958 61.2512 32.6895L59.8043 32.1531C59.2933 31.9615 58.9224 31.5138 58.8292 30.976L64.2857 31.7803C64.9114 31.8748 65.3748 32.4112 65.3774 33.0434V42.1334C65.3774 42.4815 65.6231 42.7806 65.964 42.8491C66.3055 42.9175 66.6471 42.7357 66.7813 42.4144L67.2167 41.3702L70.1256 42.7546L69.5975 44.0086ZM31.7992 80.8225H8.44013V77.9026H31.7992V80.8225ZM33.2591 80.8225V77.9026H69.3122L69.1851 80.8225H33.2591ZM76.35 86.6623H68.6006L70.0605 85.2023H74.138C74.5415 85.2023 74.868 84.8758 74.868 84.4724C74.868 84.0689 74.5415 83.7424 74.138 83.7424H70.5207L71.2181 67.683H76.9431L76.35 86.6623ZM83.4841 39.3785L85.0686 46.5114L83.2306 54.4746C82.5442 54.7419 82.0339 55.3317 81.8684 56.0499C81.7022 56.7675 81.9016 57.5216 82.4015 58.0632L82.1701 59.0669C82.0821 59.4468 82.1499 59.8457 82.3585 60.1755C82.5664 60.5046 82.8981 60.7373 83.2794 60.8201L87.1215 61.6641C87.1632 61.6739 87.2056 61.6798 87.2473 61.685L87.8958 66.2232H70.5433L71.9472 46.5665L71.9492 46.5163V39.0029C71.9557 38.619 71.6715 38.2924 71.2909 38.2449C71.0856 38.224 70.8816 38.2918 70.7284 38.43C70.5759 38.5688 70.4886 38.765 70.4886 38.9716V41.3113L67.7799 40.0221L69.8304 35.102C70.0702 34.5285 70.6164 34.1414 71.2369 34.1048H77.1008C77.2729 34.9541 78.0198 35.5641 78.8859 35.5641C79.7528 35.5641 80.4997 34.9541 80.6718 34.1048H86.0076C86.8327 34.1094 87.5464 34.6817 87.7295 35.4859L89.0226 41.3048L85.5683 42.025L84.91 39.0621H84.9107C84.8651 38.8587 84.7347 38.6841 84.5529 38.5824C84.3704 38.4814 84.1534 38.4625 83.9565 38.5316C83.6072 38.6534 83.4045 39.0178 83.4846 39.3788L83.4841 39.3785ZM81.2976 76.4427H78.1307L78.4045 67.683H80.354L81.2976 76.4427ZM77.9931 80.8225L78.0843 77.9026H81.4559L81.7707 80.8225H77.9931ZM81.4507 86.6623L83.1661 85.2023H87.2775C87.6809 85.2023 88.0075 84.8758 88.0075 84.4724C88.0075 84.0689 87.6809 83.7424 87.2775 83.7424H83.5534L81.821 67.683H87.0963L89.3735 86.6623H81.4507ZM90.9273 80.8225H90.1446L89.7939 77.9026H90.9273V80.8225Z" fill="black"/>
</svg>
