<svg width="1920" height="1314" viewBox="0 0 1920 1314" fill="none" xmlns="http://www.w3.org/2000/svg">
<g opacity="0.1" clip-path="url(#clip0_1277_5557)">
<path d="M-61.8475 561.421C-5.58805 606.295 55.8522 645.684 123.485 662.086C215.069 684.274 324.536 656.447 374.461 566.278C432.048 462.406 456.992 366.21 577.479 328.078C662.46 301.182 773.721 316.549 839.018 386.874C877.768 428.585 905.533 480.766 940.155 526.632C1023.17 636.619 1124.9 644.83 1222.27 555.09C1268.8 512.207 1321.31 462.954 1382.17 471.523C1461.97 482.745 1514.55 589.685 1594.86 588.963C1638.77 588.551 1675.18 555.387 1711.6 529.21C1798.14 466.649 1857.81 548.57 1942.16 518.12C1963.32 510.462 1980.2 493.082 2000.23 482.394C2020.87 471.378 2065.39 468.145 2065.26 504.131" stroke="white" stroke-width="1.01" stroke-linecap="round" stroke-linejoin="round"/>
<path d="M-51.7509 588.474C4.12579 633.162 66.1801 669.435 133.303 682.721C181.506 692.323 234.137 688.073 280.135 668.7C320.712 651.588 356.297 622.832 379.954 581.333C423.348 505.229 449.581 432.586 509.198 384.054C530.764 366.688 555.21 353.242 581.424 344.327C664.926 314.918 773.394 325.445 840.47 391.274C880.644 430.67 910.152 481.541 945.534 527.191C961.799 548.728 980.815 568.041 1002.1 584.636C1071.64 637.362 1146.56 629.191 1226.91 569.157C1252.35 550.148 1278.39 525.9 1305.41 506.277C1340.48 480.86 1380.07 465.504 1421.7 471.068C1496.97 481.495 1547.87 579.879 1623.99 580.075C1665.56 580.151 1700.3 550.529 1734.93 526.797C1816.9 470.613 1873.87 544.788 1953.1 515.484C1973.02 508.096 1989.02 491.738 2007.83 481.368C2027.24 470.668 2068.23 466.96 2068.78 498.643" stroke="white" stroke-width="1.01" stroke-linecap="round" stroke-linejoin="round"/>
<path d="M-41.6313 615.521C13.9042 659.991 76.3159 693.204 143.115 703.334C191.998 710.943 242.037 704.294 287.237 684.185C328.234 665.887 362.546 635.323 385.443 596.706C428.947 522.559 456.543 451.01 514.943 401.938C535.958 384.424 559.747 370.538 585.331 360.853C667.392 328.875 773.104 334.626 841.935 395.965C883.534 433.044 914.688 482.724 950.888 527.976C967.417 549.329 986.376 568.686 1007.38 585.656C1076.15 639.309 1149.01 634.814 1231.36 583.364C1262.57 563.9 1293.03 535.067 1324.53 511.653C1365.09 481.468 1412.39 464.377 1461.12 471.003C1531.96 480.616 1581.08 570.417 1652.95 571.565C1692.19 572.151 1725.24 545.979 1758.1 524.86C1835.4 475.05 1889.79 541.453 1963.89 513.295C1982.57 506.178 1997.69 490.895 2015.29 480.836C2033.47 470.43 2071.14 466.177 2072.13 493.632" stroke="white" stroke-width="1.01" stroke-linecap="round" stroke-linejoin="round"/>
<path d="M-31.54 642.552C23.6879 686.845 86.5612 716.803 152.933 723.97C201.396 729.223 250.362 720.809 294.292 699.681C334.265 680.259 367.806 649.749 390.917 611.79C434.554 539.594 463.538 469.135 520.691 419.504C541.179 401.846 564.323 387.528 589.271 377.079C669.879 342.486 772.869 343.503 843.386 400.366C886.527 435.104 919.444 483.347 956.356 528.614C973.159 549.791 992.096 569.184 1012.87 586.486C1080.42 641.43 1152.78 641.764 1235.96 597.686C1273.2 577.955 1307.78 544.383 1343.77 517.029C1389.77 481.987 1444.8 463.352 1500.58 470.709C1566.92 479.62 1614.31 560.731 1682.06 562.829C1718.8 563.937 1750.35 541.295 1781.43 522.691C1854.02 479.243 1905.86 537.892 1974.83 510.903C1992.25 504.061 2006.49 489.801 2022.89 480.054C2039.85 469.966 2074.07 465.17 2075.65 488.365" stroke="white" stroke-width="1.01" stroke-linecap="round" stroke-linejoin="round"/>
<path d="M-21.4435 669.604C33.4665 713.673 96.7388 740.537 162.774 744.601C210.828 747.539 258.777 737.349 301.483 715.122C340.381 694.628 373.165 664.206 396.505 626.946C440.252 556.705 470.623 487.337 526.534 437.171C546.498 419.361 568.99 404.607 593.277 393.387C672.423 356.131 772.762 352.4 844.928 404.844C889.488 437.242 924.208 484.113 961.724 529.126C978.856 550.088 997.786 569.513 1018.3 587.18C1084.89 643.191 1157.25 649.464 1240.55 611.74C1284.14 591.989 1322.52 553.407 1362.98 522.165C1414.47 482.5 1477.22 462.129 1540.1 470.474C1601.96 478.678 1647.63 551.121 1711.09 554.181C1745.47 555.758 1775.34 536.636 1804.68 520.587C1872.52 483.482 1921.83 534.373 1985.69 508.577C2001.87 501.982 2015.21 488.773 2030.41 479.362C2046.15 469.59 2076.94 464.298 2079.09 483.188" stroke="white" stroke-width="1.01" stroke-linecap="round" stroke-linejoin="round"/>
<path d="M-11.3471 696.657C43.2269 740.531 107.033 764.247 172.591 765.237C220.181 765.87 267.094 753.924 308.585 730.607C346.407 709.05 378.474 678.693 402.07 642.107C445.815 573.872 477.667 505.573 532.355 454.843C551.804 436.874 573.646 421.682 597.261 409.701C674.934 369.736 772.672 361.269 846.522 409.336C892.589 439.351 929.052 484.912 967.257 529.725C984.651 550.5 1003.54 569.972 1023.78 587.986C1089.43 645.058 1162.11 657.959 1245.18 625.884C1295.28 606.493 1337.32 562.538 1382.26 527.46C1439.23 483.027 1509.66 461.047 1579.65 470.235C1637.01 477.761 1680.95 541.512 1740.33 545.465C1772.32 547.539 1800.53 531.909 1828.14 518.439C1891.2 487.659 1938.02 530.833 1996.75 506.182C2011.7 499.881 2024.15 487.723 2038.14 478.601C2052.65 469.146 2079.99 463.265 2082.74 477.966" stroke="white" stroke-width="1.01" stroke-linecap="round" stroke-linejoin="round"/>
<path d="M-1.23246 723.682C50.4467 765.937 115.689 788.032 182.409 785.873C229.509 784.2 275.398 770.504 315.71 746.087C352.406 723.499 383.74 693.19 407.536 657.266C451.503 590.938 484.636 523.801 538.082 472.536C557.052 454.386 578.283 438.758 601.249 426.039C677.453 383.266 772.601 370.109 847.923 413.845C895.522 441.472 933.551 485.811 972.581 530.37C990.257 550.98 1009.14 570.522 1029.14 588.893C1093.84 647.003 1163.18 649.316 1249.69 640.127C1309.03 633.823 1352.07 571.732 1401.41 532.78C1463.82 483.612 1541.95 460.024 1619.06 470.025C1671.9 476.902 1714.15 531.929 1769.2 536.854C1798.83 539.42 1825.31 527.296 1851.23 516.47C1909.43 491.984 1953.86 527.467 2007.4 504.001C2021.11 497.947 2032.68 486.835 2045.48 478.048C2058.73 468.892 2082.63 462.468 2085.92 472.944" stroke="white" stroke-width="1.01" stroke-linecap="round" stroke-linejoin="round"/>
<path d="M8.86385 750.734C62.7839 794.188 127.497 811.766 192.18 806.518C238.76 802.548 283.632 787.1 322.784 761.554C358.328 737.964 388.961 707.705 412.984 672.452C457.084 608.075 491.604 542.028 543.809 490.228C562.266 471.915 582.829 455.856 605.069 442.388C679.69 396.734 772.398 378.904 849.291 418.312C898.434 443.499 938.062 486.657 977.865 530.95C996.74 551.976 1015.42 571.994 1034.43 589.617C1098.21 648.76 1169.18 661.448 1254.11 654.217C1319.63 648.617 1366.55 580.737 1420.48 537.946C1488.38 483.987 1574.3 458.84 1658.42 469.681C1706.76 475.879 1747.29 522.186 1798.13 528.059C1825.37 531.121 1850.17 522.447 1874.37 514.173C1927.77 495.917 1969.72 523.777 2018.26 501.454C2030.71 495.676 2041.41 485.587 2053 477.112C2065.02 468.273 2085.48 461.33 2089.38 467.541" stroke="white" stroke-width="1.01" stroke-linecap="round" stroke-linejoin="round"/>
<path d="M18.96 777.788C72.5673 821.041 137.731 835.538 202.044 827.145C248.062 820.887 291.914 803.703 329.933 777.029C364.312 752.447 394.275 722.213 418.548 687.614C462.759 625.193 498.666 560.236 549.624 507.877C567.614 489.403 587.537 472.916 609.052 458.702C682.123 410.21 772.386 387.683 850.84 422.936C901.53 445.585 942.74 487.59 983.315 531.616C1002.26 552.285 1021 572.265 1039.92 590.47C1102.87 650.504 1175.08 674.655 1258.73 668.412C1330.43 663.048 1381.36 589.99 1439.74 543.27C1513.12 484.589 1606.67 457.872 1697.94 469.447C1741.77 475.018 1780.71 512.581 1827.23 519.397C1852.11 522.952 1875.14 517.719 1897.69 512.078C1946.18 499.959 1985.78 520.291 2029.14 499.147C2040.35 493.616 2050.16 484.601 2060.55 476.415C2071.34 467.893 2088.36 460.407 2092.85 462.383" stroke="white" stroke-width="1.01" stroke-linecap="round" stroke-linejoin="round"/>
<path d="M29.0363 804.747C82.4475 847.775 147.962 859.408 211.986 847.68C257.426 839.221 300.281 820.326 337.175 792.483C370.352 766.927 399.658 736.707 424.183 702.76C468.475 642.276 505.775 578.433 555.515 525.534C573.047 506.872 592.341 489.947 613.129 474.995C684.555 423.563 772.448 396.348 852.408 427.311C904.72 447.65 947.425 488.448 988.826 532.22C1007.93 552.488 1026.63 572.646 1045.45 591.266C1107.48 652.356 1180.72 688.48 1263.41 682.545C1341.27 676.958 1396.19 599.117 1459 548.518C1497.75 517.354 1542.36 494.277 1590.18 480.652C1638.01 467.027 1688.08 463.131 1737.44 469.193C1776.78 474.133 1813.88 502.956 1856.3 510.693C1878.79 514.745 1900.09 512.874 1920.96 509.947C1964.51 503.846 2001.79 516.716 2040.04 496.765C2050.01 491.527 2058.93 483.54 2068.11 475.689C2076.79 468.471 2086.25 462.259 2096.33 457.173" stroke="white" stroke-width="1.01" stroke-linecap="round" stroke-linejoin="round"/>
<path d="M39.1712 831.865C92.1296 874.723 158.22 883.174 221.697 868.388C266.531 857.665 308.386 837.017 344.179 807.966C376.061 782.17 404.079 751.451 429.607 717.952C473.994 659.354 512.697 596.671 561.195 543.237C578.28 524.386 596.94 507.024 616.972 491.34C686.729 436.972 772.289 405.012 853.786 431.826C907.63 449.556 951.924 489.346 994.125 532.87C1013.31 552.729 1032.02 573.009 1050.76 592.108C1111.85 654.236 1186.21 707.203 1267.88 696.723C1351.49 686.017 1410.81 608.265 1478.17 553.786C1519.78 520.425 1567.64 495.729 1618.94 481.151C1670.24 466.573 1723.94 462.409 1776.88 468.904C1811.72 473.287 1847.11 493.292 1885.34 501.994C1904.68 506.185 1924.44 508.131 1944.23 507.793C1982.84 507.537 2017.8 513.216 2050.91 494.387C2059.89 488.887 2068.19 482.354 2075.64 474.922C2084.01 467.006 2094.05 458.502 2099.76 451.95" stroke="white" stroke-width="1.01" stroke-linecap="round" stroke-linejoin="round"/>
<path d="M49.2829 858.987C138.184 930.946 266.763 896.618 351.281 823.45C435.798 750.283 492.397 645.918 566.945 560.924C641.494 475.93 748.444 407.195 855.24 436.348C935.578 458.306 996.019 529.791 1056.14 592.864C1116.25 655.936 1190.52 717.627 1272.41 710.816C1362.63 703.307 1425.52 617.318 1497.34 558.956C1587.12 486.031 1703.76 454.924 1816.31 468.567C1909.89 479.881 2035.54 564.067 2103.17 446.656" stroke="white" stroke-width="1.01" stroke-linecap="round" stroke-linejoin="round"/>
<path d="M55.607 874.716C153.996 949.709 292.742 912.35 382.513 830.676C462.655 757.732 517.777 657.015 590.89 575.513C666.207 491.573 774.123 431.06 878.963 463.452C958.695 488.452 1019.98 557.429 1082.12 610.746C1143.63 663.517 1213.95 713.456 1292.11 701.203C1377.78 687.747 1439.43 603.546 1511.11 547.804C1599.27 479.219 1712.27 452.476 1821.3 466.815C1912.55 478.859 2046.99 564.888 2107.84 443.411" stroke="white" stroke-width="1.01" stroke-linecap="round" stroke-linejoin="round"/>
<path d="M61.9643 890.707C169.744 968.511 318.791 928.288 413.722 837.908C489.756 765.52 543.143 668.042 614.839 590.125C690.997 507.346 799.825 454.578 902.677 490.509C981.905 518.235 1043.66 584.886 1108.09 628.461C1170.66 670.781 1237.31 709.178 1311.81 691.468C1392.9 672.123 1453.32 589.63 1524.82 536.519C1611.33 472.23 1720.76 450.058 1826.2 464.939C1915.15 477.679 2058.43 565.564 2112.43 440.013" stroke="white" stroke-width="1.01" stroke-linecap="round" stroke-linejoin="round"/>
<path d="M68.3241 906.598C185.533 987.278 344.921 944.378 444.926 845.114C517.036 773.561 568.542 679.109 638.784 604.713C715.82 523.159 825.433 478.336 926.444 517.701C1005.11 548.336 1066.95 612.474 1134.07 646.319C1197.29 678.281 1260.67 705.073 1331.5 681.784C1407.99 656.623 1467.21 575.763 1538.64 525.258C1623.42 465.16 1729.44 447.574 1831.22 463.106C1917.83 476.506 2069.75 566.242 2117.19 436.648" stroke="white" stroke-width="1.01" stroke-linecap="round" stroke-linejoin="round"/>
<path d="M74.7072 922.485C201.346 1006.04 371.266 960.667 476.181 852.335C544.524 781.777 594.016 690.186 662.756 619.32C740.69 538.964 851.06 502.188 950.196 544.823C1028.29 578.42 1089.89 640.118 1160.06 664.104C1223.7 685.851 1284.02 700.969 1351.23 672.067C1423.09 641.172 1481.12 561.818 1552.43 513.98C1635.57 458.202 1737.82 445.129 1836.19 461.237C1920.48 475.34 2081.3 566.967 2121.76 433.301" stroke="white" stroke-width="1.01" stroke-linecap="round" stroke-linejoin="round"/>
<path d="M81.0439 938.382C217.088 1024.82 397.704 977.155 507.367 859.571C572.1 790.169 619.43 701.324 686.677 633.914C765.547 554.819 876.642 526.05 973.803 571.953C1051.33 608.558 1112.37 668.153 1185.95 682.007C1249.67 693.911 1307.26 697.034 1370.83 662.451C1438.05 625.872 1494.91 547.95 1566.07 502.785C1647.42 451.235 1746.3 442.738 1841.06 459.464C1923.03 474.245 2092.65 567.762 2126.31 430.035" stroke="white" stroke-width="1.01" stroke-linecap="round" stroke-linejoin="round"/>
<path d="M87.4039 954.274C232.908 1043.73 424.397 993.807 538.591 866.872C599.857 798.717 645.028 712.52 710.642 648.596C790.476 570.782 902.225 550.035 997.64 599.13C1074.58 638.748 1134.92 696.688 1212.01 699.776C1275.58 702.3 1330.73 693.026 1390.61 652.724C1453.25 610.546 1508.75 533.996 1579.94 491.538C1659.48 444.148 1754.96 440.11 1846.11 457.626C1925.8 472.931 2104.17 568.493 2131.05 426.699" stroke="white" stroke-width="1.01" stroke-linecap="round" stroke-linejoin="round"/>
<path d="M93.7407 970.171C248.651 1062.28 451.323 1010.63 569.808 874.028C627.684 807.249 670.565 723.656 734.572 663.114C815.432 586.64 927.737 573.911 1021.35 626.187C1097.69 668.846 1157.41 725.649 1237.98 717.489C1301.53 711.072 1354.14 689.056 1410.3 642.942C1468.31 595.248 1522.49 519.819 1593.68 480.148C1671.4 436.846 1763.46 437.516 1851.05 455.64C1928.4 471.652 2115.59 569.051 2135.64 423.202" stroke="white" stroke-width="1.01" stroke-linecap="round" stroke-linejoin="round"/>
<path d="M100.106 986.086C264.438 1081.15 478.541 1027.78 601.017 881.259C655.611 815.906 696.121 734.885 758.521 677.726C840.442 602.633 953.291 597.877 1045.01 653.451C1120.75 699.175 1178.68 747.668 1263.88 735.416C1328.71 726.128 1377.59 685.32 1429.91 633.372C1483.53 580.09 1536.16 505.854 1607.37 469.012C1683.25 429.758 1771.89 435.356 1855.87 453.952C1930.88 470.792 2126.88 569.908 2140.14 419.992" stroke="white" stroke-width="1.01" stroke-linecap="round" stroke-linejoin="round"/>
<path d="M106.465 1001.98C280.226 1099.92 506.066 1045.1 632.22 888.466C683.652 824.637 721.781 746.14 782.442 692.32C865.461 618.674 978.781 621.881 1068.78 680.423C1143.85 729.274 1203.27 784.898 1289.89 753.073C1354.08 729.5 1401.13 681.371 1449.78 623.503C1498.99 564.828 1550.05 491.572 1621.28 457.586C1695.29 422.334 1780.55 432.728 1861.07 451.91C1933.74 469.458 2138.53 570.439 2145.02 416.457" stroke="white" stroke-width="1.01" stroke-linecap="round" stroke-linejoin="round"/>
<path d="M112.826 1017.87C296.016 1118.69 533.961 1062.66 663.453 895.692C711.769 833.375 747.448 757.541 806.41 706.903C890.58 634.717 1004.17 646.079 1092.56 707.54C1166.89 759.73 1226.8 814.806 1315.92 770.847C1380.84 738.853 1424.81 677.537 1469.42 613.806C1514.3 549.672 1563.68 477.322 1634.98 446.329C1707.08 414.988 1789.01 430.267 1865.94 450.062C1936.28 468.316 2149.88 571.135 2149.57 413.116" stroke="white" stroke-width="1.01" stroke-linecap="round" stroke-linejoin="round"/>
<path d="M119.186 1033.76C311.787 1137.48 562.288 1080.52 694.682 903.016C740.056 842.223 773.129 768.89 830.38 721.609C915.792 651.081 1029.75 670.063 1116.3 734.859C1190.01 789.974 1250.6 844.827 1341.91 788.851C1407.81 748.357 1448.5 673.894 1489.12 604.291C1529.73 534.688 1577.38 463.202 1648.76 435.247C1718.95 407.675 1797.56 427.983 1870.93 448.384C1938.97 467.312 2161.34 572.026 2154.25 409.94" stroke="white" stroke-width="1.01" stroke-linecap="round" stroke-linejoin="round"/>
<path d="M83.6408 1017.21C194.678 1076.04 329.297 1084.42 443.913 1042.02C530.655 1009.41 608.638 957.103 671.717 889.216C686.33 873.431 699.961 856.956 713.334 840.758C744.263 803.339 773.06 766.339 813.179 740.429C824.931 732.801 837.487 726.489 850.62 721.607C930.398 691.937 1026.17 714.702 1102.95 764.206C1122.85 776.965 1141.96 789.336 1160.79 799.885C1213.95 829.595 1265.59 843.847 1332.29 801.661C1377.95 772.584 1412.39 728.166 1443.13 680.3C1456.96 658.773 1470.06 636.522 1483.09 614.653C1524.87 544.551 1572.66 472.229 1642.02 439.509C1660.7 430.896 1680.52 425.005 1700.87 422.018C1733.98 416.952 1768.16 418.546 1802.73 423.576C1822.2 426.547 1841.49 430.603 1860.51 435.727C1889.6 443.347 1941.2 466.017 1992.07 480.292C2069.78 501.994 2149.46 505.86 2151.61 412.278" stroke="white" stroke-width="1.02" stroke-linecap="round" stroke-linejoin="round"/>
<path d="M48.1144 1000.63C159.959 1059.02 299.856 1068.95 414.022 1022.6C502.416 986.718 583.616 931.021 648.767 875.485C664.293 862.311 678.939 848.915 693.286 836.048C726.123 806.573 755.701 778.177 796.004 759.365C807.971 753.723 820.478 749.309 833.335 746.19C913.638 726.966 1010.16 750.714 1089.43 793.93C1110.02 805.145 1129.95 815.576 1149.47 824.262C1204.04 848.457 1256.74 857.908 1322.33 814.913C1368.26 784.8 1403.71 739.891 1435.36 691.705C1449.56 670.095 1463.18 647.559 1476.65 625.448C1519.61 554.819 1567.4 481.494 1634.89 444.171C1652.87 434.378 1672.03 426.957 1691.91 422.094C1724.08 413.911 1757.13 411.792 1791.45 413.894C1811.24 415.288 1830.87 418.474 1850.09 423.412C1881.11 431.124 1932.7 455.311 1982.57 471.197C2059.74 495.756 2140.33 504.458 2148.9 414.753" stroke="white" stroke-width="1.04" stroke-linecap="round" stroke-linejoin="round"/>
<path d="M12.593 984.08C125.281 1041.96 270.587 1053.38 384.162 1003.31C473.703 963.737 556.26 907.205 625.847 861.895C642.22 851.25 657.944 840.991 673.24 831.461C707.846 809.959 738.293 790.125 778.849 778.395C791.052 774.797 803.546 772.269 816.188 770.841C897.028 762.011 994.398 786.625 1076.03 823.653C1097.33 833.295 1118.03 841.796 1138.27 848.615C1194.23 867.52 1247.96 871.856 1312.52 828.158C1358.66 796.922 1394.99 751.673 1427.76 703.097C1442.53 681.239 1456.56 658.639 1470.49 636.257C1514.6 565.107 1562.51 490.876 1628 448.857C1645.28 437.924 1663.73 428.969 1683 422.161C1714.16 410.881 1746.95 404.799 1780.08 404.159C1800.12 403.93 1820.12 406.243 1839.59 411.042C1872.63 418.826 1924.14 444.57 1972.99 462.123C2049.62 489.633 2131.07 503.112 2146.11 417.296" stroke="white" stroke-width="1.05" stroke-linecap="round" stroke-linejoin="round"/>
<path d="M-23.0035 967.517C90.5101 1024.93 241.209 1037.76 354.269 983.769C445.022 940.455 528.483 883.139 602.877 848.071C620.049 839.964 636.63 832.843 653.166 826.635C689.305 813.036 720.806 801.82 761.621 797.197C774.012 795.724 786.488 795.078 798.966 795.263C880.478 796.993 978.604 822.273 1062.57 853.118C1083.65 860.94 1105.17 867.498 1127.03 872.756C1184.31 886.312 1239.09 885.528 1302.7 841.159C1349.06 808.799 1386.34 763.197 1420.15 714.246C1435.37 692.215 1449.9 669.457 1464.26 646.786C1509.53 575.114 1557.52 500.034 1621.05 453.286C1637.66 441.217 1655.39 430.759 1673.99 422.055C1703.77 407.444 1735.85 398.088 1768.82 394.397C1789.04 392.53 1809.42 393.967 1829.18 398.651C1864.21 406.465 1915.68 433.83 1963.59 453.03C2039.68 483.496 2122.1 501.698 2143.5 419.797" stroke="white" stroke-width="1.06" stroke-linecap="round" stroke-linejoin="round"/>
<path d="M-58.3977 950.983C55.8376 1007.89 211.896 1022.09 324.458 964.376C416.27 917.408 500.743 859.015 580.007 834.371C597.412 828.946 615.187 824.789 633.193 821.933C669.963 815.701 707.332 813.763 744.549 816.159C756.54 816.886 768.995 817.951 781.878 819.851C864 832.082 962.945 858.087 1049.24 882.801C1071.11 889.099 1093.39 893.865 1115.92 897.064C1174.49 905.351 1230.39 899.384 1292.99 854.331C1339.59 820.819 1377.84 774.881 1412.66 725.49C1428.34 703.288 1443.34 680.352 1458.15 657.411C1504.58 585.24 1552.68 509.329 1614.23 457.783C1630.28 444.528 1647.33 432.544 1665.23 421.939C1694.36 404.424 1724.44 390.854 1757.73 384.599C1778.05 381.051 1798.88 381.601 1818.98 386.214C1855.99 394.058 1907.4 423.102 1954.33 443.883C2029.85 477.357 2113.21 500.269 2141.03 422.267" stroke="white" stroke-width="1.08" stroke-linecap="round" stroke-linejoin="round"/>
<path d="M-94.0146 934.327C20.9943 990.749 182.374 1006.25 294.519 944.841C387.431 893.965 472.809 834.568 557.013 820.553C575.539 817.475 594.333 816.322 613.096 817.113C651.81 818.644 685.757 825.203 727.321 834.961C739.307 837.791 751.787 840.757 764.661 844.297C847.322 867.264 947.115 893.792 1035.64 912.396C1058.32 917.167 1081.34 920.159 1104.48 921.346C1164.36 924.41 1221.33 913.173 1283 867.466C1329.81 832.785 1369.04 786.51 1404.88 736.872C1421.06 714.487 1436.49 691.385 1451.75 668.173C1499.41 595.465 1547.58 518.756 1607.21 462.424C1622.7 447.951 1639.07 434.451 1656.23 422.003C1684.31 401.194 1713.31 383.877 1746.39 374.858C1766.71 369.629 1787.99 369.282 1808.48 373.844C1847.48 381.718 1898.83 412.435 1944.8 434.822C2019.73 471.309 2104.06 498.897 2138.29 424.799" stroke="white" stroke-width="1.09" stroke-linecap="round" stroke-linejoin="round"/>
<path d="M-129.549 917.824C-13.692 973.767 152.802 990.524 264.619 925.492C358.586 870.719 444.893 810.092 534.037 806.926C553.846 806.261 573.658 808.13 592.993 812.489C633.115 821.242 668.391 836.897 710.085 853.959C722.085 858.864 734.595 863.755 747.462 868.935C835.892 903.991 928.144 928.508 1022.31 941.98C1045.84 945.202 1069.61 946.399 1093.35 945.561C1154.52 943.477 1212.55 926.825 1273.3 880.54C1320.29 844.717 1360.53 798.101 1397.38 748.093C1414.02 725.56 1429.97 702.27 1445.66 678.868C1494.43 605.671 1542.77 528.07 1600.34 467.007C1615.71 450.665 1631.53 435.935 1647.31 422.022C1674.38 398.135 1702.35 376.813 1735.1 365.153C1755.51 357.878 1776.67 357.382 1798.05 361.506C1839.06 369.381 1890.3 401.81 1935.33 425.768C2009.7 465.338 2094.97 497.561 2135.62 427.362" stroke="white" stroke-width="1.1" stroke-linecap="round" stroke-linejoin="round"/>
<path d="M-165.071 901.269C-48.4164 956.72 123.446 974.773 234.729 906.068C329.765 847.467 417.09 785.347 511.11 793.19C532.316 795.101 553.143 800.011 572.968 807.775C614.646 823.643 650.987 848.525 692.934 872.891C704.942 879.847 717.435 886.673 730.294 893.492C814.144 937.881 915.683 965.128 1008.94 971.622C1033.36 973.282 1057.88 972.683 1082.18 969.833C1144.66 962.648 1203.75 940.656 1263.54 893.699C1310.71 856.665 1351.93 809.759 1389.83 759.4C1406.87 736.705 1423.35 713.251 1439.48 689.509C1489.36 615.8 1537.94 537.464 1593.43 471.524C1608.19 453.97 1623.33 437.656 1638.39 421.943C1664.4 394.889 1691.34 369.637 1723.86 355.34C1744.48 346.258 1765.93 345.063 1787.7 349.053C1830.69 356.911 1881.85 391.117 1925.92 416.606C1999.67 459.293 2085.93 496.116 2133 429.816" stroke="white" stroke-width="1.12" stroke-linecap="round" stroke-linejoin="round"/>
<path d="M-200.615 884.72C-83.1357 939.697 93.9366 958.883 204.843 886.667C300.895 824.105 389.406 760.478 488.165 779.483C510.8 784.067 532.619 792.018 552.897 803.07C596.247 826.029 633.577 860.131 675.731 891.809C687.776 900.835 700.234 909.624 713.097 918.031C797.385 973.252 899.871 1000.8 995.473 1001.24C1020.79 1001.33 1046.06 998.944 1070.92 994.125C1134.75 981.852 1194.8 954.396 1253.73 906.846C1301.05 868.628 1343.31 821.399 1382.23 770.694C1399.77 747.817 1416.7 724.191 1433.23 700.188C1484.34 625.942 1533.07 546.84 1586.46 476.005C1600.63 457.263 1615.11 439.307 1629.45 421.845C1654.37 391.608 1680.28 362.402 1712.57 345.513C1733.34 334.639 1755.09 332.718 1777.25 336.598C1822.24 344.434 1873.28 380.427 1916.44 407.459C1989.55 453.267 2076.82 494.611 2130.31 432.263" stroke="white" stroke-width="1.13" stroke-linecap="round" stroke-linejoin="round"/>
<path d="M-236.142 868.142C-117.894 922.608 64.2365 942.791 175.069 867.218C271.881 800.529 361.852 735.531 465.22 765.776C489.284 773.134 512.086 784.114 532.843 798.338C577.999 828.43 616.303 871.682 658.551 910.722C670.745 921.769 683.051 932.547 695.929 942.589C780.626 1008.62 884.135 1036.27 982.054 1030.87C1008.29 1029.33 1034.3 1025.15 1059.7 1018.38C1124.9 1001.09 1185.85 968.037 1243.93 919.963C1291.37 880.474 1334.7 833.034 1374.63 781.965C1392.66 758.928 1410.04 735.107 1427.03 710.857C1479.3 636.113 1528.31 556.288 1579.58 480.639C1593.15 460.707 1606.79 441.133 1620.52 421.916C1644.29 388.434 1669.21 355.288 1701.28 335.808C1722.17 323.124 1744.37 320.469 1766.83 324.259C1813.85 332.017 1864.8 369.838 1906.96 398.41C1979.42 447.392 2067.74 493.345 2127.6 434.836" stroke="white" stroke-width="1.15" stroke-linecap="round" stroke-linejoin="round"/>
<path d="M-271.663 851.587C-152.613 905.586 34.8204 927.102 145.085 847.815C263.715 762.518 372.596 682.605 512.795 793.629C573.236 841.524 620.513 914.518 678.762 967.146C786.789 1064.75 926.335 1083.58 1048.5 1042.74C1170.67 1001.89 1276.96 906.359 1367.05 793.254C1457.13 680.148 1532.81 548.901 1611.63 421.977C1634.35 385.352 1658.16 348.244 1690.07 326.158C1755.9 280.644 1836.91 345.38 1897.57 389.44C1969.33 441.606 2058.74 492.064 2125.07 437.467" stroke="white" stroke-width="1.16" stroke-linecap="round" stroke-linejoin="round"/>
</g>
<defs>
<clipPath id="clip0_1277_5557">
<rect width="2466.84" height="804.663" fill="white" transform="translate(-344 527.301) rotate(-12.3359)"/>
</clipPath>
</defs>
</svg>
