<svg width="1300" height="803" viewBox="0 0 1300 803" fill="none" xmlns="http://www.w3.org/2000/svg">
<g opacity="0.1" clip-path="url(#clip0_1261_4867)">
<path d="M172.872 342.991C207.26 370.42 244.814 394.496 286.154 404.521C342.134 418.083 409.044 401.075 439.56 345.96C474.759 282.47 490.005 223.671 563.651 200.364C615.595 183.924 683.602 193.317 723.514 236.302C747.199 261.797 764.17 293.692 785.332 321.727C836.074 388.955 898.254 393.974 957.769 339.121C986.209 312.91 1018.31 282.805 1055.51 288.042C1104.29 294.902 1136.42 360.267 1185.51 359.826C1212.35 359.574 1234.61 339.303 1256.87 323.303C1309.76 285.063 1346.24 335.136 1397.79 316.524C1410.73 311.844 1421.04 301.22 1433.29 294.687C1445.9 287.954 1473.11 285.977 1473.04 307.973" stroke="#B3B3B3" stroke-opacity="0.65" stroke-width="1.01" stroke-linecap="round" stroke-linejoin="round"/>
<path d="M179.043 359.527C213.197 386.843 251.127 409.014 292.155 417.135C321.619 423.003 353.788 420.406 381.904 408.564C406.706 398.105 428.457 380.528 442.917 355.162C469.441 308.645 485.475 264.243 521.916 234.578C535.097 223.964 550.04 215.745 566.062 210.296C617.102 192.32 683.402 198.755 724.401 238.992C748.957 263.072 766.993 294.166 788.62 322.069C798.561 335.233 810.185 347.038 823.194 357.182C865.699 389.409 911.494 384.415 960.606 347.72C976.16 336.101 992.074 321.28 1008.59 309.285C1030.03 293.75 1054.23 284.363 1079.67 287.764C1125.68 294.138 1156.79 354.274 1203.32 354.394C1228.73 354.44 1249.96 336.334 1271.13 321.828C1321.23 287.487 1356.06 332.825 1404.48 314.913C1416.66 310.398 1426.44 300.399 1437.93 294.06C1449.8 287.52 1474.85 285.254 1475.19 304.619" stroke="#B3B3B3" stroke-opacity="0.65" stroke-width="1.01" stroke-linecap="round" stroke-linejoin="round"/>
<path d="M185.229 376.06C219.174 403.241 257.322 423.542 298.153 429.734C328.031 434.385 358.617 430.321 386.245 418.029C411.304 406.845 432.276 388.163 446.272 364.559C472.863 319.238 489.731 275.505 525.427 245.51C538.272 234.805 552.813 226.317 568.451 220.397C618.609 200.851 683.224 204.367 725.297 241.859C750.723 264.523 769.766 294.889 791.892 322.549C801.996 335.601 813.584 347.432 826.423 357.805C868.454 390.6 912.992 387.852 963.327 356.404C982.406 344.507 1001.02 326.883 1020.28 312.572C1045.06 294.122 1073.98 283.675 1103.76 287.725C1147.06 293.601 1177.09 348.49 1221.02 349.192C1245 349.55 1265.2 333.553 1285.29 320.644C1332.54 290.199 1365.78 330.786 1411.07 313.575C1422.5 309.225 1431.73 299.883 1442.49 293.735C1453.61 287.375 1476.63 284.775 1477.24 301.556" stroke="#B3B3B3" stroke-opacity="0.65" stroke-width="1.01" stroke-linecap="round" stroke-linejoin="round"/>
<path d="M191.397 392.581C225.154 419.654 263.585 437.966 304.154 442.347C333.776 445.557 363.706 440.415 390.557 427.5C414.99 415.629 435.492 396.98 449.618 373.778C476.291 329.649 494.007 286.583 528.94 256.246C541.463 245.453 555.61 236.701 570.859 230.314C620.13 209.17 683.081 209.791 726.184 244.548C752.552 265.781 772.673 295.269 795.235 322.938C805.505 335.882 817.08 347.736 829.776 358.312C871.068 391.895 915.296 392.1 966.138 365.158C988.901 353.097 1010.04 332.576 1032.04 315.857C1060.15 294.438 1093.79 283.047 1127.88 287.545C1168.43 292.991 1197.4 342.569 1238.81 343.851C1261.27 344.528 1280.55 330.689 1299.55 319.317C1343.92 292.76 1375.6 328.609 1417.76 312.112C1428.41 307.931 1437.12 299.214 1447.14 293.257C1457.5 287.09 1478.42 284.158 1479.39 298.337" stroke="#B3B3B3" stroke-opacity="0.65" stroke-width="1.01" stroke-linecap="round" stroke-linejoin="round"/>
<path d="M197.568 409.117C231.131 436.054 269.806 452.474 310.169 454.958C339.541 456.754 368.849 450.525 394.952 436.939C418.729 424.412 438.767 405.818 453.034 383.043C479.774 340.109 498.337 297.709 532.512 267.045C544.715 256.16 558.463 247.141 573.308 240.283C621.685 217.511 683.015 215.23 727.126 247.286C754.363 267.089 775.585 295.738 798.516 323.252C808.987 336.064 820.558 347.938 833.096 358.737C873.799 392.972 918.029 396.807 968.943 373.749C995.589 361.676 1019.04 338.093 1043.78 318.997C1075.25 294.752 1113.6 282.301 1152.04 287.402C1189.85 292.416 1217.76 336.696 1256.56 338.566C1277.57 339.53 1295.83 327.842 1313.76 318.033C1355.23 295.353 1385.37 326.459 1424.4 310.691C1434.29 306.66 1442.45 298.586 1451.74 292.834C1461.35 286.861 1480.18 283.627 1481.49 295.173" stroke="#B3B3B3" stroke-opacity="0.65" stroke-width="1.01" stroke-linecap="round" stroke-linejoin="round"/>
<path d="M203.74 425.652C237.097 452.469 276.098 466.966 316.17 467.571C345.258 467.957 373.933 460.656 399.294 446.404C422.412 433.227 442.013 414.672 456.435 392.309C483.174 350.602 502.643 308.855 536.07 277.847C547.958 266.863 561.309 257.578 575.743 250.255C623.22 225.826 682.961 220.651 728.1 250.031C756.258 268.378 778.545 296.226 801.898 323.618C812.529 336.315 824.076 348.218 836.447 359.229C876.574 394.113 921.002 401.999 971.775 382.393C1002.4 370.541 1028.09 343.674 1055.56 322.233C1090.38 295.074 1133.43 281.639 1176.22 287.255C1211.27 291.855 1238.13 330.822 1274.43 333.238C1293.98 334.506 1311.23 324.952 1328.1 316.719C1366.65 297.905 1395.26 324.294 1431.16 309.227C1440.3 305.376 1447.91 297.944 1456.46 292.368C1465.33 286.589 1482.04 282.994 1483.72 291.98" stroke="#B3B3B3" stroke-opacity="0.65" stroke-width="1.01" stroke-linecap="round" stroke-linejoin="round"/>
<path d="M209.922 442.171C241.51 467.999 281.389 481.504 322.17 480.184C350.96 479.162 379.009 470.79 403.649 455.866C426.078 442.06 445.231 423.533 459.776 401.575C486.651 361.033 506.902 319.997 539.571 288.662C551.166 277.568 564.143 268.016 578.181 260.241C624.759 234.096 682.917 226.055 728.957 252.788C758.051 269.674 781.295 296.776 805.152 324.012C815.956 336.61 827.5 348.554 839.721 359.783C879.269 395.302 921.655 396.716 974.531 391.099C1010.8 387.246 1037.11 349.294 1067.27 325.485C1105.42 295.432 1153.17 281.014 1200.3 287.127C1232.6 291.33 1258.42 324.965 1292.07 327.975C1310.18 329.543 1326.37 322.133 1342.21 315.516C1377.79 300.549 1404.95 322.237 1437.67 307.894C1446.05 304.194 1453.13 297.402 1460.95 292.031C1469.05 286.434 1483.65 282.508 1485.66 288.911" stroke="#B3B3B3" stroke-opacity="0.65" stroke-width="1.01" stroke-linecap="round" stroke-linejoin="round"/>
<path d="M216.093 458.707C249.051 485.267 288.606 496.012 328.142 492.804C356.614 490.377 384.041 480.935 407.972 465.32C429.698 450.901 448.422 432.406 463.106 410.858C490.062 371.508 511.161 331.138 543.071 299.476C554.352 288.283 566.921 278.467 580.515 270.234C626.126 242.329 682.793 231.431 729.793 255.518C759.831 270.914 784.053 297.293 808.382 324.366C819.918 337.218 831.335 349.454 842.955 360.226C881.94 396.377 925.323 404.132 977.235 399.712C1017.28 396.289 1045.96 354.798 1078.93 328.643C1120.42 295.661 1172.94 280.29 1224.36 286.917C1253.91 290.705 1278.68 319.01 1309.76 322.599C1326.41 324.471 1341.56 319.169 1356.36 314.112C1389 302.954 1414.64 319.982 1444.31 306.338C1451.92 302.806 1458.46 296.639 1465.54 291.459C1472.89 286.056 1485.4 281.812 1487.78 285.609" stroke="#B3B3B3" stroke-opacity="0.65" stroke-width="1.01" stroke-linecap="round" stroke-linejoin="round"/>
<path d="M222.265 475.242C255.031 501.68 294.862 510.541 334.172 505.411C362.3 501.586 389.104 491.082 412.342 474.778C433.356 459.752 451.671 441.273 466.507 420.124C493.53 381.97 515.478 342.267 546.626 310.263C557.621 298.971 569.8 288.894 582.95 280.205C627.614 250.565 682.786 236.796 730.74 258.344C761.723 272.188 786.912 297.863 811.713 324.773C823.292 337.407 834.748 349.619 846.311 360.747C884.788 397.442 928.927 412.204 980.06 408.388C1023.88 405.109 1055.01 360.454 1090.7 331.896C1135.55 296.028 1192.73 279.698 1248.52 286.773C1275.31 290.178 1299.11 313.138 1327.54 317.304C1342.75 319.477 1356.83 316.279 1370.61 312.831C1400.25 305.423 1424.46 317.85 1450.96 304.927C1457.81 301.546 1463.81 296.036 1470.16 291.032C1476.76 285.823 1487.16 281.248 1489.9 282.455" stroke="#B3B3B3" stroke-opacity="0.65" stroke-width="1.01" stroke-linecap="round" stroke-linejoin="round"/>
<path d="M228.423 491.721C261.07 518.021 301.115 525.132 340.249 517.963C368.023 512.793 394.218 501.243 416.769 484.225C437.048 468.604 454.961 450.132 469.951 429.383C497.024 392.413 519.823 353.39 550.226 321.056C560.942 309.649 572.736 299.304 585.442 290.165C629.1 258.727 682.823 242.093 731.698 261.019C763.673 273.45 789.776 298.387 815.081 325.143C826.755 337.531 838.191 349.853 849.69 361.234C887.605 398.574 932.373 420.654 982.92 417.026C1030.51 413.612 1064.08 366.032 1102.47 335.104C1126.15 316.056 1153.42 301.95 1182.65 293.622C1211.89 285.294 1242.49 282.913 1272.66 286.619C1296.7 289.638 1319.38 307.255 1345.31 311.985C1359.06 314.461 1372.08 313.318 1384.84 311.529C1411.45 307.799 1434.24 315.666 1457.62 303.471C1463.72 300.27 1469.17 295.388 1474.78 290.589C1480.08 286.177 1485.87 282.38 1492.03 279.271" stroke="#B3B3B3" stroke-opacity="0.65" stroke-width="1.01" stroke-linecap="round" stroke-linejoin="round"/>
<path d="M234.618 508.296C266.988 534.492 307.385 539.658 346.185 530.62C373.589 524.066 399.172 511.445 421.05 493.688C440.537 477.921 457.663 459.144 473.267 438.668C500.398 402.851 524.054 364.537 553.698 331.876C564.141 320.354 575.547 309.742 587.791 300.155C630.429 266.923 682.726 247.388 732.541 263.777C765.452 274.615 792.526 298.936 818.321 325.539C830.045 337.678 841.482 350.074 852.94 361.748C890.277 399.723 935.728 432.098 985.652 425.692C1036.76 419.148 1073.01 371.624 1114.18 338.324C1139.62 317.933 1168.88 302.837 1200.23 293.927C1231.59 285.017 1264.41 282.471 1296.77 286.441C1318.06 289.12 1339.7 301.348 1363.07 306.667C1374.89 309.229 1386.96 310.418 1399.06 310.211C1422.66 310.055 1444.03 313.526 1464.26 302.017C1469.75 298.656 1474.83 294.662 1479.38 290.119C1484.5 285.281 1490.64 280.083 1494.12 276.078" stroke="#B3B3B3" stroke-opacity="0.65" stroke-width="1.01" stroke-linecap="round" stroke-linejoin="round"/>
<path d="M240.799 524.875C295.138 568.858 373.731 547.876 425.391 503.153C477.051 458.431 511.646 394.639 557.213 342.687C602.78 290.736 668.151 248.723 733.429 266.542C782.534 279.964 819.478 323.658 856.224 362.21C892.97 400.763 938.361 438.47 988.417 434.307C1043.56 429.717 1082.01 377.158 1125.9 341.484C1180.78 296.91 1252.08 277.896 1320.87 286.236C1378.07 293.151 1454.87 344.609 1496.21 272.843" stroke="#B3B3B3" stroke-opacity="0.65" stroke-width="1.01" stroke-linecap="round" stroke-linejoin="round"/>
<path d="M244.664 534.489C304.803 580.327 389.61 557.492 444.481 507.57C493.466 462.984 527.159 401.422 571.848 351.605C617.885 300.297 683.847 263.31 747.929 283.109C796.664 298.39 834.125 340.551 872.107 373.141C909.702 405.396 952.685 435.92 1000.46 428.431C1052.83 420.206 1090.5 368.74 1134.32 334.668C1188.2 292.746 1257.28 276.4 1323.92 285.165C1379.7 292.526 1461.87 345.11 1499.06 270.859" stroke="#B3B3B3" stroke-opacity="0.65" stroke-width="1.01" stroke-linecap="round" stroke-linejoin="round"/>
<path d="M248.55 544.262C314.429 591.819 405.532 567.234 463.557 511.99C510.032 467.744 542.664 408.162 586.487 360.536C633.037 309.938 699.557 277.685 762.424 299.647C810.851 316.594 848.598 357.334 887.982 383.968C926.227 409.836 966.966 433.305 1012.5 422.48C1062.06 410.656 1099 360.233 1142.7 327.77C1195.58 288.474 1262.47 274.922 1326.91 284.018C1381.29 291.805 1468.86 345.524 1501.87 268.782" stroke="#B3B3B3" stroke-opacity="0.65" stroke-width="1.01" stroke-linecap="round" stroke-linejoin="round"/>
<path d="M252.437 553.976C324.08 603.291 421.504 577.069 482.63 516.395C526.706 472.659 558.189 414.927 601.123 369.453C648.21 319.605 715.209 292.207 776.951 316.268C825.035 334.994 862.835 374.197 903.862 394.885C942.5 414.421 981.24 430.797 1024.54 416.562C1071.29 401.183 1107.49 351.758 1151.15 320.888C1202.97 284.153 1267.77 273.404 1329.99 282.898C1382.92 291.089 1475.78 345.938 1504.78 266.726" stroke="#B3B3B3" stroke-opacity="0.65" stroke-width="1.01" stroke-linecap="round" stroke-linejoin="round"/>
<path d="M256.339 563.687C333.745 614.759 437.607 587.024 501.735 520.809C543.508 477.68 573.76 421.697 615.776 378.381C663.412 329.264 730.875 306.786 791.47 332.846C839.202 353.382 876.855 391.093 919.747 405.755C958.648 419.047 995.513 428.288 1036.6 410.622C1080.52 391.738 1115.99 343.234 1159.58 313.994C1210.39 279.9 1272.9 271.909 1333.02 281.755C1384.54 290.375 1482.84 346.381 1507.57 264.68" stroke="#B3B3B3" stroke-opacity="0.65" stroke-width="1.01" stroke-linecap="round" stroke-linejoin="round"/>
<path d="M260.212 573.404C343.367 626.237 453.766 597.103 520.796 525.232C560.364 482.81 589.293 428.505 630.397 387.302C678.605 338.956 746.51 321.372 805.899 349.429C853.286 371.803 890.598 408.23 935.572 416.698C974.518 423.974 1009.72 425.883 1048.58 404.745C1089.66 382.386 1124.42 334.757 1167.91 307.151C1217.64 275.642 1278.07 270.448 1336 280.671C1386.1 289.706 1489.78 346.867 1510.35 262.684" stroke="#B3B3B3" stroke-opacity="0.65" stroke-width="1.01" stroke-linecap="round" stroke-linejoin="round"/>
<path d="M264.1 583.117C353.037 637.793 470.082 607.281 539.882 529.694C577.33 488.035 604.94 435.348 645.046 396.276C693.843 348.713 762.148 336.031 820.469 366.04C867.497 390.256 904.379 425.671 951.5 427.558C990.357 429.101 1024.07 423.433 1060.67 398.799C1098.96 373.018 1132.88 326.228 1176.39 300.276C1225.01 271.309 1283.37 268.841 1339.08 279.548C1387.79 288.903 1496.82 347.313 1513.25 260.644" stroke="#B3B3B3" stroke-opacity="0.65" stroke-width="1.01" stroke-linecap="round" stroke-linejoin="round"/>
<path d="M267.973 592.835C362.66 649.137 486.54 617.563 558.962 534.068C594.338 493.251 620.549 442.156 659.672 405.15C709.097 358.407 777.741 350.626 834.963 382.579C881.621 408.654 918.127 443.374 967.375 438.386C1006.22 434.464 1038.37 421.007 1072.7 392.82C1108.16 363.668 1141.28 317.563 1184.79 293.315C1232.3 266.848 1288.57 267.257 1342.11 278.335C1389.39 288.122 1503.8 347.656 1516.06 258.507" stroke="#B3B3B3" stroke-opacity="0.65" stroke-width="1.01" stroke-linecap="round" stroke-linejoin="round"/>
<path d="M271.864 602.562C372.309 660.668 503.177 628.044 578.038 538.487C611.409 498.542 636.17 449.018 674.311 414.081C724.383 368.181 793.361 365.274 849.426 399.243C895.716 427.191 931.126 456.832 983.204 449.343C1022.83 443.665 1052.71 418.722 1084.69 386.97C1117.46 354.402 1149.63 309.026 1193.16 286.507C1239.54 262.514 1293.72 265.936 1345.05 277.302C1390.9 287.595 1510.7 348.178 1518.81 256.545" stroke="#B3B3B3" stroke-opacity="0.65" stroke-width="1.01" stroke-linecap="round" stroke-linejoin="round"/>
<path d="M275.751 612.275C381.96 672.139 520.001 638.634 597.112 542.893C628.549 503.878 651.854 455.898 688.932 423.001C739.677 377.986 808.942 379.946 863.954 415.729C909.841 445.589 946.158 479.588 999.102 460.135C1038.34 445.727 1067.09 416.309 1096.83 380.938C1126.91 345.074 1158.12 300.297 1201.66 279.524C1246.9 257.976 1299.01 264.329 1348.23 276.054C1392.65 286.78 1517.82 348.503 1521.79 254.384" stroke="#B3B3B3" stroke-opacity="0.65" stroke-width="1.01" stroke-linecap="round" stroke-linejoin="round"/>
<path d="M279.638 621.989C391.611 683.611 537.051 649.369 616.202 547.309C645.734 509.219 667.543 462.867 703.582 431.915C755.029 387.792 824.459 394.737 878.486 432.304C923.922 464.205 960.541 497.869 1015.01 470.999C1054.7 451.444 1081.57 413.965 1108.83 375.011C1136.27 335.81 1166.45 291.587 1210.03 272.642C1254.1 253.486 1304.18 262.825 1351.21 274.924C1394.2 286.082 1524.76 348.929 1524.57 252.341" stroke="#B3B3B3" stroke-opacity="0.65" stroke-width="1.01" stroke-linecap="round" stroke-linejoin="round"/>
<path d="M283.526 631.703C401.251 695.101 554.366 660.286 635.29 551.787C663.024 514.628 683.24 469.804 718.234 440.904C770.441 397.795 840.097 409.398 893.001 449.003C938.051 482.692 975.088 516.22 1030.9 482.005C1071.18 457.253 1096.05 411.739 1120.88 369.195C1145.7 326.651 1174.83 282.957 1218.46 265.87C1261.36 249.016 1309.41 261.429 1354.26 273.9C1395.84 285.469 1531.77 349.474 1527.43 250.401" stroke="#B3B3B3" stroke-opacity="0.65" stroke-width="1.01" stroke-linecap="round" stroke-linejoin="round"/>
<path d="M261.8 621.587C329.67 657.547 411.954 662.667 482.011 636.752C535.031 616.82 582.697 584.846 621.253 543.351C630.185 533.703 638.517 523.633 646.691 513.732C665.596 490.86 683.197 468.244 707.72 452.407C714.903 447.745 722.578 443.887 730.605 440.903C779.368 422.767 837.905 436.682 884.836 466.941C897 474.74 908.68 482.301 920.191 488.749C952.686 506.909 984.25 515.62 1025.02 489.835C1052.93 472.061 1073.98 444.911 1092.77 415.654C1101.22 402.496 1109.23 388.896 1117.2 375.528C1142.73 332.68 1171.94 288.474 1214.33 268.474C1225.75 263.209 1237.87 259.609 1250.31 257.783C1270.55 254.686 1291.44 255.661 1312.57 258.735C1324.47 260.551 1336.26 263.031 1347.89 266.163C1365.67 270.82 1397.21 284.677 1428.3 293.402C1475.8 306.667 1524.5 309.03 1525.82 251.83" stroke="#B3B3B3" stroke-opacity="0.65" stroke-width="1.02" stroke-linecap="round" stroke-linejoin="round"/>
<path d="M240.084 611.454C308.448 647.141 393.958 653.214 463.741 624.879C517.77 602.948 567.403 568.904 607.225 534.959C616.715 526.906 625.667 518.718 634.437 510.853C654.508 492.837 672.587 475.48 697.222 463.982C704.536 460.533 712.181 457.835 720.04 455.929C769.124 444.178 828.121 458.694 876.571 485.109C889.157 491.964 901.34 498.34 913.274 503.649C946.631 518.438 978.838 524.215 1018.93 497.935C1047 479.529 1068.67 452.078 1088.02 422.625C1096.7 409.417 1105.02 395.642 1113.26 382.127C1139.51 338.956 1168.73 294.137 1209.98 271.324C1220.97 265.338 1232.68 260.802 1244.83 257.83C1264.49 252.828 1284.7 251.533 1305.67 252.818C1317.77 253.67 1329.77 255.617 1341.52 258.635C1360.48 263.349 1392.01 278.133 1422.5 287.843C1469.66 302.854 1518.92 308.174 1524.16 253.343" stroke="#B3B3B3" stroke-opacity="0.65" stroke-width="1.04" stroke-linecap="round" stroke-linejoin="round"/>
<path d="M218.373 601.336C287.252 636.716 376.068 643.694 445.489 613.093C500.22 588.901 550.682 554.347 593.216 526.652C603.223 520.145 612.834 513.874 622.184 508.049C643.336 494.907 661.947 482.783 686.736 475.614C694.195 473.414 701.832 471.869 709.559 470.996C758.971 465.599 818.488 480.644 868.382 503.277C881.4 509.171 894.057 514.367 906.429 518.534C940.632 530.09 973.471 532.74 1012.93 506.03C1041.14 486.938 1063.34 459.28 1083.37 429.589C1092.4 416.228 1100.98 402.415 1109.49 388.734C1136.45 345.244 1165.74 299.871 1205.77 274.188C1216.33 267.506 1227.61 262.032 1239.39 257.87C1258.43 250.975 1278.47 247.258 1298.72 246.867C1310.98 246.727 1323.2 248.141 1335.1 251.074C1355.29 255.832 1386.78 271.568 1416.64 282.296C1463.48 299.112 1513.26 307.351 1522.45 254.897" stroke="#B3B3B3" stroke-opacity="0.65" stroke-width="1.05" stroke-linecap="round" stroke-linejoin="round"/>
<path d="M196.615 591.212C265.999 626.302 358.111 634.144 427.217 601.145C482.689 574.67 533.704 539.636 579.176 518.202C589.672 513.247 599.807 508.894 609.914 505.099C632.003 496.787 651.258 489.932 676.206 487.106C683.78 486.206 691.405 485.811 699.032 485.924C748.855 486.981 808.834 502.433 860.158 521.287C873.04 526.068 886.196 530.076 899.555 533.291C934.568 541.576 968.052 541.097 1006.93 513.977C1035.27 494.198 1058.06 466.324 1078.72 436.403C1088.03 422.937 1096.91 409.027 1105.68 395.169C1133.35 351.36 1162.69 305.469 1201.52 276.895C1211.67 269.518 1222.51 263.126 1233.88 257.805C1252.08 248.875 1271.69 243.156 1291.84 240.9C1304.2 239.759 1316.66 240.637 1328.74 243.5C1350.15 248.276 1381.61 265.003 1410.89 276.739C1457.4 295.361 1507.78 306.486 1520.86 256.425" stroke="#B3B3B3" stroke-opacity="0.65" stroke-width="1.06" stroke-linecap="round" stroke-linejoin="round"/>
<path d="M174.98 581.106C244.805 615.891 340.194 624.57 408.996 589.292C465.114 560.584 516.747 524.892 565.197 509.829C575.835 506.513 586.7 503.972 597.706 502.226C620.181 498.417 643.022 497.233 665.771 498.697C673.1 499.141 680.713 499.792 688.587 500.954C738.783 508.43 799.262 524.325 852.008 539.431C865.374 543.28 878.992 546.193 892.763 548.149C928.566 553.214 962.732 549.567 1001 522.029C1029.48 501.546 1052.86 473.466 1074.14 443.277C1083.73 429.706 1092.9 415.687 1101.95 401.664C1130.33 357.551 1159.73 311.151 1197.35 279.644C1207.16 271.543 1217.58 264.218 1228.53 257.736C1246.33 247.03 1264.71 238.735 1285.07 234.912C1297.49 232.744 1310.21 233.079 1322.5 235.899C1345.13 240.693 1376.55 258.446 1405.23 271.149C1451.39 291.609 1502.35 305.614 1519.35 257.936" stroke="#B3B3B3" stroke-opacity="0.65" stroke-width="1.08" stroke-linecap="round" stroke-linejoin="round"/>
<path d="M153.21 570.925C223.508 605.412 322.149 614.889 390.696 577.351C447.487 546.254 499.673 509.949 551.142 501.382C562.465 499.501 573.953 498.796 585.422 499.28C609.085 500.216 629.834 504.225 655.24 510.189C662.566 511.919 670.194 513.732 678.064 515.896C728.589 529.934 789.586 546.149 843.697 557.52C857.559 560.436 871.627 562.265 885.774 562.991C922.372 564.863 957.194 557.995 994.893 530.057C1023.5 508.859 1047.48 480.574 1069.39 450.233C1079.28 436.551 1088.71 422.43 1098.04 408.242C1127.17 363.8 1156.61 316.913 1193.06 282.481C1202.53 273.635 1212.53 265.383 1223.02 257.774C1240.19 245.055 1257.91 234.47 1278.13 228.957C1290.55 225.761 1303.56 225.549 1316.08 228.338C1339.92 233.15 1371.31 251.926 1399.4 265.61C1445.21 287.912 1496.75 304.774 1517.67 259.483" stroke="#B3B3B3" stroke-opacity="0.65" stroke-width="1.09" stroke-linecap="round" stroke-linejoin="round"/>
<path d="M131.49 560.838C202.307 595.032 304.074 605.275 372.421 565.525C429.857 532.045 482.61 494.988 537.098 493.053C549.206 492.646 561.316 493.789 573.134 496.453C597.658 501.803 619.22 511.372 644.706 521.801C652.04 524.799 659.687 527.789 667.551 530.955C721.603 552.383 777.991 567.369 835.549 575.603C849.933 577.572 864.46 578.304 878.97 577.792C916.36 576.518 951.832 566.34 988.961 538.049C1017.69 516.152 1042.28 487.659 1064.81 457.092C1074.97 443.319 1084.73 429.084 1094.31 414.78C1124.12 370.039 1153.68 322.606 1188.86 285.282C1198.25 275.293 1207.93 266.29 1217.57 257.786C1234.12 243.185 1251.21 230.152 1271.23 223.025C1283.71 218.579 1296.64 218.276 1309.71 220.796C1334.77 225.61 1366.09 245.431 1393.62 260.076C1439.08 284.262 1491.2 303.958 1516.04 261.05" stroke="#B3B3B3" stroke-opacity="0.65" stroke-width="1.1" stroke-linecap="round" stroke-linejoin="round"/>
<path d="M109.778 550.719C181.082 584.613 286.13 595.647 354.15 553.652C412.24 517.833 465.616 479.863 523.085 484.657C536.046 485.825 548.776 488.826 560.894 493.572C586.37 503.271 608.582 518.48 634.222 533.373C641.562 537.625 649.198 541.797 657.057 545.965C708.31 573.098 770.374 589.752 827.378 593.721C842.302 594.736 857.288 594.37 872.144 592.627C910.331 588.236 946.449 574.794 982.995 546.092C1011.83 523.455 1037.03 494.785 1060.19 464.004C1070.61 450.131 1080.68 435.796 1090.54 421.283C1121.03 376.23 1150.72 328.348 1184.64 288.043C1193.66 277.314 1202.91 267.342 1212.12 257.737C1228.02 241.201 1244.49 225.766 1264.36 217.027C1276.97 211.476 1290.08 210.746 1303.38 213.184C1329.66 217.988 1360.93 238.895 1387.87 254.475C1432.95 280.567 1485.67 303.075 1514.44 262.55" stroke="#B3B3B3" stroke-opacity="0.65" stroke-width="1.12" stroke-linecap="round" stroke-linejoin="round"/>
<path d="M88.0522 540.603C159.86 574.207 268.093 585.934 335.883 541.793C394.594 503.553 448.695 464.662 509.06 476.279C522.895 479.081 536.232 483.94 548.626 490.696C575.124 504.729 597.941 525.573 623.707 544.936C631.069 550.453 638.684 555.825 646.546 560.964C698.066 594.717 760.709 611.558 819.145 611.823C834.622 611.877 850.067 610.421 865.261 607.475C904.277 599.974 940.979 583.192 976.998 554.127C1005.93 530.767 1031.75 501.899 1055.55 470.906C1066.26 456.923 1076.61 442.482 1086.72 427.811C1117.96 382.429 1147.74 334.078 1180.38 290.782C1189.04 279.326 1197.89 268.351 1206.65 257.677C1221.89 239.195 1237.72 221.343 1257.46 211.02C1270.15 204.374 1283.45 203.199 1297 205.571C1324.49 210.361 1355.69 232.361 1382.08 248.884C1426.76 276.884 1480.1 302.155 1512.8 264.045" stroke="#B3B3B3" stroke-opacity="0.65" stroke-width="1.13" stroke-linecap="round" stroke-linejoin="round"/>
<path d="M66.3369 530.47C138.614 563.762 249.939 576.098 317.684 529.905C376.859 489.143 431.852 449.414 495.035 467.9C509.743 472.398 523.681 479.109 536.368 487.803C563.969 506.197 587.382 532.634 613.205 556.497C620.659 563.249 628.181 569.837 636.053 575.975C687.822 616.337 751.091 633.236 810.943 629.933C826.979 628.995 842.88 626.439 858.402 622.303C898.257 611.735 935.511 591.53 971.011 562.145C1000.01 538.008 1026.49 509.011 1050.9 477.796C1061.92 463.715 1072.54 449.154 1082.93 434.332C1114.88 388.646 1144.84 339.854 1176.17 293.614C1184.47 281.431 1192.81 269.467 1201.19 257.721C1215.73 237.255 1230.96 216.995 1250.56 205.089C1263.33 197.336 1276.9 195.713 1290.63 198.029C1319.37 202.771 1350.51 225.889 1376.28 243.353C1420.57 273.293 1474.56 301.381 1511.14 265.618" stroke="#B3B3B3" stroke-opacity="0.65" stroke-width="1.15" stroke-linecap="round" stroke-linejoin="round"/>
<path d="M44.6251 520.351C117.393 553.357 231.959 566.508 299.356 518.045C371.868 465.909 438.42 417.063 524.114 484.925C561.058 514.2 589.955 558.817 625.559 590.985C691.589 650.641 776.885 662.155 851.557 637.188C926.23 612.222 991.202 553.83 1046.26 484.696C1101.33 415.561 1147.58 335.338 1195.76 257.758C1209.65 235.372 1224.2 212.69 1243.71 199.19C1283.94 171.37 1333.46 210.939 1370.54 237.87C1414.4 269.756 1469.05 300.598 1509.6 267.226" stroke="#B3B3B3" stroke-opacity="0.65" stroke-width="1.16" stroke-linecap="round" stroke-linejoin="round"/>
</g>
<defs>
<clipPath id="clip0_1261_4867">
<rect width="1507.82" height="491.839" fill="white" transform="translate(0.410156 322.136) rotate(-12.3359)"/>
</clipPath>
</defs>
</svg>
