<svg width="33" height="25" viewBox="0 0 33 25" fill="none" xmlns="http://www.w3.org/2000/svg">
<path d="M17.2999 7.13953C17.4253 6.88339 17.4929 6.60256 17.4977 6.3171C17.5568 5.77916 17.6297 5.11264 18.1918 4.73452C18.5395 4.47789 18.9813 4.3842 19.403 4.47765L14.9293 0.00030899H8.54688L16.2587 7.70901C16.3766 7.65357 16.4913 7.60152 16.6058 7.55286H16.6056C16.8646 7.46812 17.1017 7.32698 17.2999 7.13984L17.2999 7.13953ZM14.3705 4.68586L10.7923 1.11444L11.5281 0.37871L15.0995 3.95689L14.3705 4.68586Z" fill="#1FC28F"/>
<path d="M21.5783 9.00013C21.5783 9.30494 21.3311 9.55211 21.0263 9.55211C20.7218 9.55211 20.4746 9.30493 20.4746 9.00013C20.4746 8.69557 20.7218 8.44839 21.0263 8.44839C21.3312 8.44839 21.5783 8.69558 21.5783 9.00013Z" fill="#1FC28F"/>
<path d="M16.3022 13.1997L16.3264 13.2725C16.3714 13.4529 16.6387 13.5848 17.0449 13.7688C17.4848 13.924 17.8763 14.192 18.1799 14.5462C18.4253 14.9379 18.5597 15.3892 18.5687 15.8514C18.6033 16.1985 18.6345 16.5455 18.7873 16.6428L18.8497 16.6879C18.9921 16.8094 19.287 16.7573 19.7208 16.667C19.9997 16.5995 20.2847 16.5612 20.5711 16.5525C20.7502 16.5511 20.9282 16.5779 21.0988 16.6322C21.524 16.8094 21.8934 17.0984 22.1677 17.4686C22.4071 17.7393 22.6362 17.9891 22.8097 17.9787H22.886C23.0734 17.9787 23.2816 17.7775 23.5801 17.4512L23.5803 17.4514C23.8645 17.08 24.2415 16.7905 24.6736 16.6113C25.122 16.5048 25.591 16.5218 26.0306 16.66C26.3778 16.7399 26.7247 16.8128 26.8533 16.6946L26.9157 16.6496C27.0753 16.5489 27.1169 16.254 27.1656 15.8131C27.1767 15.3459 27.3106 14.8898 27.5544 14.4908C27.855 14.1412 28.2448 13.8797 28.6823 13.7342C29.0295 13.5919 29.3243 13.4566 29.3764 13.2796L29.4006 13.2067C29.4701 13.0331 29.3311 12.7695 29.1125 12.3841C28.8474 11.9994 28.6881 11.5517 28.651 11.086C28.6883 10.6272 28.8488 10.1871 29.1161 9.8123C29.3001 9.50338 29.4633 9.2085 29.4042 9.04167L29.38 8.9688C29.335 8.78844 29.0677 8.65286 28.6614 8.4725C28.2201 8.31804 27.8274 8.0498 27.5229 7.69512C27.2837 7.30171 27.1553 6.85069 27.1517 6.3902C27.1171 6.04303 27.0859 5.69612 26.9331 5.59875L26.8706 5.55372C26.7283 5.43582 26.4334 5.48424 25.9996 5.57454H25.9993C25.548 5.70988 25.0689 5.72295 24.6112 5.6128C24.1858 5.43558 23.8164 5.14652 23.5421 4.77635C23.3026 4.50569 23.0804 4.25585 22.9 4.26625L22.8029 4.26601C22.6085 4.26601 22.4074 4.46719 22.1089 4.79354H22.1086C21.8244 5.16492 21.4475 5.45446 21.0153 5.63364C20.5669 5.74041 20.098 5.7237 19.6583 5.58498C19.3111 5.50508 18.9642 5.43221 18.8357 5.55036L18.7732 5.59539C18.6137 5.6961 18.572 5.99097 18.5234 6.43183C18.5122 6.89908 18.3784 7.35516 18.1348 7.75417C17.8351 8.10012 17.4477 8.35893 17.0137 8.50372C16.6665 8.64607 16.3716 8.78141 16.3196 8.95838L16.2954 9.03125C16.2259 9.20483 16.3648 9.46848 16.5835 9.85387H16.5832C16.8486 10.2386 17.0079 10.6862 17.0449 11.152C17.0076 11.6107 16.8469 12.0509 16.5798 12.4257C16.4062 12.7416 16.2363 13.0331 16.3021 13.1996L16.3022 13.1997ZM26.8984 12.7554C26.8984 13.1779 26.7306 13.5831 26.4318 13.8819C26.1331 14.1806 25.7278 14.3484 25.3054 14.3484C24.8829 14.3484 24.4776 14.1806 24.1789 13.8819C23.8801 13.5832 23.7123 13.1779 23.7123 12.7554C23.7123 12.3329 23.8801 11.9277 24.1789 11.6289C24.4776 11.3302 24.8829 11.1624 25.3054 11.1624C25.7276 11.1634 26.1321 11.3314 26.4309 11.6299C26.7294 11.9284 26.8974 12.3332 26.8983 12.7554L26.8984 12.7554ZM24.9894 8.31289L25.7251 9.04862L20.8071 13.977L20.0714 13.2413L24.9894 8.31289ZM21.0258 7.40357C21.4485 7.40357 21.8535 7.57134 22.1523 7.87009C22.451 8.16883 22.619 8.57408 22.619 8.99658C22.619 9.41904 22.451 9.82428 22.1523 10.1231C21.8535 10.4218 21.4485 10.5896 21.0258 10.5896C20.6033 10.5896 20.1983 10.4218 19.8995 10.1231C19.6008 9.82433 19.4328 9.41908 19.4328 8.99658C19.4338 8.57436 19.602 8.16981 19.9005 7.87108C20.199 7.57257 20.6036 7.40456 21.0258 7.40358L21.0258 7.40357Z" fill="#1FC28F"/>
<path d="M25.8713 12.7553C25.8713 13.0601 25.6241 13.307 25.3193 13.307C25.0145 13.307 24.7676 13.0601 24.7676 12.7553C24.7676 12.4505 25.0145 12.2036 25.3193 12.2036C25.6241 12.2036 25.8713 12.4505 25.8713 12.7553Z" fill="#1FC28F"/>
<path d="M24.7811 17.708C24.6191 17.8402 24.4693 17.9866 24.3334 18.1455C23.9863 18.5447 23.5248 19.041 22.8375 19.0165H22.7717C22.133 19.0165 21.7132 18.5411 21.3835 18.1523H21.3832C21.222 17.931 21.0133 17.7484 20.7724 17.618C20.4899 17.5775 20.2018 17.6 19.929 17.6838C19.4015 17.7949 18.742 17.9303 18.1936 17.5102C17.6245 17.1422 17.562 16.469 17.4996 15.9485C17.5 15.6749 17.4395 15.4045 17.3226 15.1573C17.1173 14.959 16.8708 14.8084 16.6007 14.7164C16.1078 14.4942 15.4969 14.2201 15.3096 13.564C15.0665 12.9324 15.4033 12.3595 15.6776 11.9015C15.8393 11.68 15.9494 11.4251 16.0003 11.1554C15.9514 10.8746 15.8412 10.608 15.6776 10.3746C15.4103 9.90615 15.0772 9.33333 15.3132 8.68431H15.313C15.3422 8.57827 15.3853 8.47683 15.4415 8.38241L7.07337 0.000642776H2.37037C1.74211 0.00161117 1.13957 0.251699 0.69532 0.695963C0.251069 1.14046 0.000991632 1.74282 0 2.37126V22.2721C0.000968391 22.9006 0.251057 23.5029 0.69532 23.9474C1.13957 24.3916 1.74217 24.6417 2.37037 24.6427H30.6015C30.9189 24.6478 31.2341 24.5887 31.528 24.4691L24.7811 17.708ZM2.08263 3.53012C2.08263 3.14616 2.2349 2.77815 2.50654 2.50676C2.77793 2.23537 3.14589 2.08285 3.5299 2.08285H6.30653V3.12412H3.5299C3.30548 3.12412 3.12366 3.30594 3.12366 3.53012V7.63585H2.08238L2.08263 3.53012ZM2.08263 10.0656V8.67744H3.1239V10.0656H2.08263ZM5.6124 20.8248H2.83577V19.7835H5.6124V20.8248ZM7.92737 18.3954L2.83583 18.3951V17.3539H7.92377L7.92737 18.3954ZM11.1654 18.3954H9.77726V17.3541H11.1654V18.3954Z" fill="#1FC28F"/>
<path d="M20.9159 4.51545C21.0704 4.38738 21.2142 4.24696 21.3461 4.09565C21.6933 3.69643 22.1617 3.19674 22.842 3.22457C23.5361 3.18631 23.9562 3.68624 24.3102 4.08883V4.08859C24.4707 4.30963 24.6781 4.49217 24.9176 4.62314C25.2001 4.66333 25.4882 4.64082 25.761 4.55705C26.2885 4.44593 26.9447 4.31059 27.4964 4.73064C28.0655 5.09863 28.128 5.77191 28.1905 6.2924C28.19 6.56621 28.2505 6.83639 28.3674 7.08384C28.5727 7.28212 28.8192 7.43246 29.0893 7.5247C29.5822 7.74695 30.1931 8.021 30.3804 8.6771C30.6235 9.30871 30.2868 9.88156 30.0125 10.3396V10.3393C29.8507 10.5611 29.7406 10.816 29.6897 11.0855C29.7386 11.3663 29.8488 11.6331 30.0125 11.8665C30.2797 12.335 30.6129 12.9078 30.3768 13.5568H30.3771C30.3502 13.6536 30.3117 13.7469 30.2625 13.8343L33.0009 16.5726V2.37061C33 1.74211 32.7499 1.13981 32.3056 0.695314C31.8611 0.251063 31.2588 0.00098591 30.6303 -5.72205e-06H16.4004L20.9159 4.51545Z" fill="#1FC28F"/>
<path d="M29.4463 14.5186C29.3214 14.5811 29.1928 14.6365 29.0749 14.6886C28.8159 14.7733 28.5786 14.9142 28.3806 15.1016C28.255 15.358 28.1874 15.6388 28.1828 15.9242C28.1237 16.4621 28.0509 17.1287 27.4887 17.5068C27.1561 17.7557 26.7334 17.8515 26.3262 17.7707L32.3791 23.834C32.7606 23.4031 32.9717 22.8477 32.9725 22.272V18.0447L29.4463 14.5186ZM31.7576 19.3184L29.7758 17.3366L30.5115 16.6008L32.504 18.5689L31.7576 19.3184Z" fill="#1FC28F"/>
<rect x="1.73633" y="15.6181" width="11.9616" height="6.94142" fill="#1FC28F"/>
<rect x="1.73633" y="1.48738" width="4.77223" height="9.60644" fill="#1FC28F"/>
</svg>
