<svg width="33" height="24" viewBox="0 0 33 24" fill="none" xmlns="http://www.w3.org/2000/svg">
<path d="M0.612686 0.997272C1.10237 0.374142 1.83718 0 2.65339 0H9.26521V7.35441C8.89795 6.8559 8.40797 6.39883 7.8776 6.02466C7.38792 5.69223 6.85725 5.44298 6.24518 5.31835C5.7555 5.23517 5.18409 5.27691 4.73513 5.52616C4.32688 5.77542 4.00063 6.23247 3.91892 6.73096C3.7965 7.35409 3.95963 8.01893 4.20476 8.6424C4.53131 9.34872 5.02097 10.0136 5.6334 10.5121H0.000976562V2.61759C0.0414037 2.07735 0.245534 1.4542 0.612788 0.997147L0.612686 0.997272Z" fill="#1FC28F"/>
<path d="M10.5707 5.66073e-07H29.6717C29.9576 5.66073e-07 30.2431 8.44687e-07 30.529 0.0414462C31.5086 0.20752 32.3249 0.99702 32.5697 1.95289C32.6921 2.36851 32.6514 2.82559 32.6514 3.24087V10.5536H13.9993C14.4076 10.2211 14.7338 9.80583 15.0197 9.39018C15.4279 8.76705 15.7135 8.10221 15.7542 7.35416C15.7949 6.81392 15.6318 6.27394 15.2645 5.89976C14.938 5.52588 14.4483 5.35953 13.9583 5.31808C13.3462 5.27663 12.7338 5.48415 12.2035 5.77514C11.5504 6.14903 10.979 6.60607 10.4893 7.18777C10.571 4.77839 10.571 2.4099 10.571 0L10.5707 5.66073e-07Z" fill="#1FC28F"/>
<path d="M5.59126 6.64797C5.99952 6.60653 6.36681 6.73115 6.73406 6.89723C7.30545 7.18822 7.79516 7.64498 8.20337 8.1438C8.52992 8.55942 8.77476 9.01649 8.85647 9.51495C8.89718 9.72275 8.89718 9.97201 8.77476 10.1798C8.65234 10.3459 8.40749 10.3876 8.20337 10.3876C7.79511 10.3462 7.38716 10.1798 7.06058 9.972C6.57089 9.63956 6.12192 9.22425 5.75438 8.72543C5.50953 8.35155 5.26469 7.97768 5.18299 7.52063C5.14228 7.31282 5.14228 7.10501 5.2237 6.8975C5.3057 6.77258 5.46883 6.6894 5.59125 6.64796L5.59126 6.64797Z" fill="#1FC28F"/>
<path d="M13.6732 6.64813C13.8774 6.60668 14.0815 6.60668 14.2853 6.73131C14.4485 6.85593 14.4895 7.10519 14.4485 7.31299C14.4078 7.77005 14.2036 8.18569 13.9995 8.55956C13.6322 9.0998 13.1833 9.59831 12.6119 9.97219C12.2446 10.2214 11.8364 10.3878 11.3874 10.4293C11.1833 10.4293 10.9384 10.3878 10.816 10.2214C10.6936 10.0136 10.7343 9.76438 10.7753 9.55658C10.857 9.09951 11.1019 8.64248 11.3874 8.2686C11.7139 7.81154 12.1629 7.39591 12.6526 7.1052C12.9791 6.85595 13.3057 6.68959 13.6732 6.64814L13.6732 6.64813Z" fill="#1FC28F"/>
<path d="M0.0407256 11.8832H8.326C7.42809 12.7973 6.5301 13.7114 5.63219 14.6255C5.46906 14.7916 5.38735 14.9994 5.42806 15.2072C5.46877 15.4982 5.6729 15.7057 5.95873 15.7475C6.16286 15.7889 6.4077 15.706 6.57083 15.5396C7.46874 14.6255 8.36673 13.7114 9.26464 12.7973V22.6862V23.2678H2.65282C2.12215 23.2678 1.55076 23.1018 1.10181 22.7693C0.571135 22.3537 0.163154 21.7721 0.0407111 21.0657C-2.82368e-07 20.8579 0 20.6915 0 20.484C0.0407114 17.617 0.0407111 14.7501 0.0407111 11.8832L0.0407256 11.8832Z" fill="#1FC28F"/>
<path d="M11.5506 11.8832H32.6515V19.9854V20.7749C32.6108 21.3566 32.3657 21.9383 31.9984 22.3954C31.5495 22.8939 30.8964 23.2263 30.2436 23.2681H29.5091H10.5713V12.7559C11.4692 13.67 12.4079 14.6256 13.3058 15.5398C13.3875 15.6644 13.5507 15.7476 13.6731 15.7476C13.9179 15.789 14.1628 15.7061 14.2852 15.4983C14.4483 15.2905 14.4483 15.0413 14.3669 14.792C14.3262 14.6674 14.2445 14.5842 14.1221 14.501C13.2648 13.6283 12.4076 12.7559 11.5507 11.8833L11.5506 11.8832ZM18.2035 13.5455C17.9993 13.5869 17.8362 13.7533 17.7952 13.9611C17.7135 14.1689 17.7545 14.4181 17.8769 14.6259C17.9993 14.792 18.2035 14.8752 18.4076 14.8752H28.3254C28.4479 14.8752 28.5703 14.8752 28.6927 14.8338C28.8968 14.7923 29.0193 14.6259 29.101 14.4599C29.1827 14.2521 29.1417 13.9614 29.0193 13.795C28.8968 13.6289 28.6927 13.5457 28.4886 13.5457H18.6116C18.4484 13.5455 18.326 13.5037 18.2036 13.5455H18.2035ZM18.285 16.5368C18.0809 16.5782 17.9177 16.7028 17.7953 16.8692C17.6729 17.077 17.6729 17.3263 17.7953 17.5341C17.9177 17.7419 18.1219 17.8665 18.3667 17.8665H24.693H24.9788C25.1829 17.825 25.3871 17.7004 25.4685 17.4926C25.5909 17.2848 25.5502 17.0355 25.4278 16.8277C25.3054 16.6617 25.1012 16.5368 24.8971 16.5368H21.5095C20.4482 16.5368 19.3871 16.4953 18.2851 16.5368H18.285ZM18.2851 19.5283C18.0809 19.5698 17.8768 19.6944 17.7544 19.9022C17.6727 20.11 17.6727 20.4007 17.8361 20.5671C17.9585 20.7332 18.1627 20.8164 18.3668 20.8164H26.6929C26.8153 20.8164 26.9377 20.8164 27.0601 20.7749C27.305 20.6917 27.4684 20.4425 27.5091 20.1932C27.5498 19.8193 27.2233 19.4869 26.856 19.4869C23.9994 19.5284 21.1422 19.4869 18.285 19.5284L18.2851 19.5283Z" fill="#1FC28F"/>
</svg>
