<svg width="26" height="30" viewBox="0 0 26 30" fill="none" xmlns="http://www.w3.org/2000/svg">
<path d="M12.8125 23.7375C11.2375 23.7375 10 24.975 10 26.55C10 28.1251 11.2375 29.3626 12.8125 29.3626C14.3875 29.3626 15.625 28.1251 15.625 26.55C15.625 24.975 14.3875 23.7375 12.8125 23.7375Z" fill="#1FC28F"/>
<path d="M12.8125 23.7375C11.2375 23.7375 10 24.975 10 26.55C10 28.1251 11.2375 29.3626 12.8125 29.3626C14.3875 29.3626 15.625 28.1251 15.625 26.55C15.625 24.975 14.3875 23.7375 12.8125 23.7375Z" fill="#1FC28F"/>
<path d="M19.8125 23.7375C18.2375 23.7375 17 24.975 17 26.55C17 28.1251 18.2375 29.3626 19.8125 29.3626C21.3875 29.3626 22.625 28.1251 22.625 26.55C22.625 24.975 21.3875 23.7375 19.8125 23.7375Z" fill="#1FC28F"/>
<path d="M24.75 20.5875H22.6125V10.4625C22.6125 9.7875 22.05 9.3375 21.4875 9.3375H18.225V3.375C18.225 2.7 17.6625 2.25 17.1 2.25H10.2375C9.5625 2.25 9.1125 2.8125 9.1125 3.375V20.5875H7.3125C6.975 20.5875 6.75 20.3625 6.75 20.025V2.925C6.75 1.2375 5.5125 0 3.9375 0H1.125C0.45 0 0 0.5625 0 1.125C0 1.6875 0.5625 2.25 1.125 2.25H3.9375C4.275 2.25 4.5 2.475 4.5 2.8125V20.025C4.5 21.6 5.7375 22.95 7.425 22.95H24.75C25.425 22.95 25.875 22.3875 25.875 21.825C25.875 21.2625 25.3125 20.5875 24.75 20.5875ZM11.5875 4.1625C11.5875 3.825 11.8125 3.6 12.15 3.6H14.9625C15.3 3.6 15.525 3.825 15.525 4.1625C15.525 4.5 15.3 4.725 14.9625 4.725H12.15C11.925 4.8375 11.5875 4.5 11.5875 4.1625ZM18.1125 12.4875H13.5C13.1625 12.4875 12.9375 12.2625 12.9375 11.925C12.9375 11.5875 13.1625 11.3625 13.5 11.3625H18.1125C18.45 11.3625 18.675 11.5875 18.675 11.925C18.675 12.2625 18.45 12.4875 18.1125 12.4875Z" fill="#1FC28F"/>
</svg>
