<svg width="14" height="15" viewBox="0 0 14 15" fill="none" xmlns="http://www.w3.org/2000/svg">
<circle cx="7" cy="8" r="6.5" fill="white" stroke="#B8B8B8"/>
<path d="M6.188 12V5.7H7.04V12H6.188ZM6.62 4.308C6.444 4.308 6.296 4.248 6.176 4.128C6.056 4.008 5.996 3.864 5.996 3.696C5.996 3.528 6.056 3.388 6.176 3.276C6.296 3.156 6.444 3.096 6.62 3.096C6.796 3.096 6.944 3.152 7.064 3.264C7.184 3.376 7.244 3.516 7.244 3.684C7.244 3.86 7.184 4.008 7.064 4.128C6.952 4.248 6.804 4.308 6.62 4.308Z" fill="#B8B8B8"/>
</svg>
