<svg width="45" height="45" viewBox="0 0 45 45" fill="none" xmlns="http://www.w3.org/2000/svg">
<path d="M22.5056 0.000883808C18.0554 -0.000371601 13.7044 1.3184 10.0037 3.79001C6.30278 6.26162 3.41811 9.77516 1.71437 13.8863C0.0104687 17.9975 -0.435855 22.5219 0.431643 26.8863C1.29914 31.2511 3.44181 35.2608 6.58817 38.408C9.73453 41.5553 13.7437 43.6989 18.1082 44.5673C22.4729 45.436 26.9977 44.9907 31.109 43.288C35.2208 41.5851 38.735 38.7014 41.2077 35.0011C43.6802 31.3011 45 26.9504 45 22.5001C44.994 16.5356 42.6222 10.8169 38.4053 6.59875C34.1885 2.38058 28.4705 0.00755254 22.5056 0L22.5056 0.000883808ZM31.3677 27.7203H13.6321V26.582H31.3677V27.7203ZM31.3677 18.5737L13.6321 18.574V17.4184H31.3677V18.5737Z" fill="#1FC28F"/>
</svg>
