<svg width="40" height="29" viewBox="0 0 40 29" fill="none" xmlns="http://www.w3.org/2000/svg">
<path d="M39.0784 0.882583C38.4911 0.315033 37.7085 0 36.8602 0H3.1315C2.2833 0 1.56569 0.315043 0.913326 0.882583C0.326006 1.45013 0 2.20642 0 3.02609V25.9739C0 26.7936 0.326017 27.487 0.913326 28.1174C1.50065 28.685 2.28328 29 3.1315 29H36.8602C37.7084 29 38.4261 28.685 39.0784 28.1174C39.6657 27.5499 39.9917 26.7936 39.9917 25.9739V3.02609C40.0573 2.20644 39.7309 1.51259 39.0784 0.882583V0.882583ZM25.3128 5.35846C26.2913 4.41295 27.4004 3.97161 28.7704 3.97161C30.1405 3.97161 31.2496 4.4129 32.228 5.35846C33.2065 6.30398 33.6632 7.37573 33.6632 8.69967C33.6632 10.0236 33.2065 11.0954 32.228 12.0409C32.0974 12.1671 31.902 12.3559 31.7714 12.4192C30.9232 13.1127 29.9447 13.4281 28.7705 13.4281C27.5963 13.4281 26.6174 13.113 25.7696 12.4192C25.639 12.293 25.4436 12.1671 25.313 12.0409C24.3345 11.0954 23.8778 10.0236 23.8778 8.69967C23.8778 7.37573 24.3345 6.30398 25.313 5.35846H25.3128ZM17.5495 18.7235C17.5495 18.9127 17.4844 19.0385 17.3538 19.1648C17.2231 19.291 17.0929 19.354 16.8971 19.354H5.67621C5.48044 19.354 5.35019 19.291 5.21954 19.1648C5.08889 19.0385 5.02377 18.9127 5.02377 18.7235V17.5259C5.02377 17.3367 5.08889 17.2109 5.21954 17.0846C5.35019 16.9584 5.48044 16.8954 5.67621 16.8954H16.8971C17.0929 16.8954 17.2231 16.9583 17.3538 17.0846C17.4844 17.2109 17.5495 17.3367 17.5495 17.5259V18.7235ZM17.5495 13.8064C17.5495 13.9956 17.4844 14.1847 17.3538 14.3106C17.2231 14.4368 17.0278 14.4998 16.832 14.4998H5.7411C5.54533 14.4998 5.34955 14.4368 5.21931 14.3106C5.08866 14.1843 5.02354 13.9956 5.02354 13.8064V12.7346C5.02354 12.5454 5.08866 12.3562 5.21931 12.2304C5.34996 12.1041 5.54533 12.0412 5.7411 12.0412H16.832C17.0278 12.0412 17.2235 12.1041 17.3538 12.2304C17.4844 12.3566 17.5495 12.5454 17.5495 12.7346V13.8064ZM17.5495 9.078C17.5495 9.26718 17.4844 9.39304 17.3538 9.51929C17.2231 9.64555 17.0929 9.70848 16.8971 9.70848H5.67621C5.48044 9.70848 5.35019 9.64555 5.21954 9.51929C5.08889 9.39304 5.02377 9.26718 5.02377 9.078V7.8804C5.02377 7.69122 5.08889 7.56536 5.21954 7.43911C5.35019 7.31285 5.48044 7.24992 5.67621 7.24992H16.8971C17.0929 7.24992 17.2231 7.31285 17.3538 7.43911C17.4844 7.56536 17.5495 7.69122 17.5495 7.8804V9.078ZM36.9256 22.443C36.9256 22.5693 36.7949 22.6951 36.6647 22.6951H20.8766C20.7459 22.6951 20.6157 22.5689 20.6157 22.443V19.6061C20.6157 19.1019 20.6157 18.5973 20.6808 18.156C20.7459 17.7147 20.8114 17.1472 20.8766 16.6429C21.0072 16.1387 21.1375 15.6341 21.3332 15.1928C21.529 14.7515 21.7899 14.3732 22.1159 13.9952C22.3768 13.6169 22.8335 13.3018 23.225 13.1126C23.6817 12.9235 24.2034 12.7976 24.7908 12.7976C24.9866 12.7976 25.1824 12.9239 25.4432 13.1126C25.7693 13.3018 25.965 13.4277 26.0957 13.491C26.2263 13.5539 26.4217 13.6802 26.7481 13.8061C27.009 13.9952 27.2699 14.0582 27.4657 14.1211C27.6615 14.184 27.8572 14.2474 28.1181 14.3103C28.379 14.3732 28.6399 14.4365 28.9008 14.4365C29.0966 14.4365 29.3575 14.3736 29.6835 14.3103C29.9444 14.2474 30.2053 14.184 30.3359 14.1211C30.5317 14.0582 30.7926 13.9319 31.0535 13.8061C31.3144 13.6798 31.5102 13.5539 31.7059 13.491C31.8366 13.4281 32.0975 13.3018 32.3584 13.1126C32.6844 12.9235 32.8802 12.7976 32.9457 12.7343H33.0763C33.7288 12.7343 34.3157 12.8605 34.8379 13.1756C35.2946 13.4906 35.7512 13.9319 36.0121 14.3732C36.273 14.8774 36.5339 15.4449 36.7297 16.0125C36.9254 16.643 36.9906 17.2734 37.0557 17.8406C37.1208 18.4082 37.1863 18.9753 37.1863 19.5429V22.4427L36.9256 22.443Z" fill="black"/>
</svg>
