<svg width="14" height="16" viewBox="0 0 14 16" fill="none" xmlns="http://www.w3.org/2000/svg">
<path d="M6.93535 0.933594C5.98146 0.933594 5.17901 1.55439 4.89131 2.41735H1.60579C0.90927 2.41735 0.349121 2.97752 0.349121 3.67402V14.3027C0.349121 14.9993 0.909297 15.5594 1.60579 15.5594H12.2799C12.9765 15.5594 13.5366 14.9992 13.5366 14.3027V3.67402C13.5366 2.9775 12.9764 2.41735 12.2799 2.41735H8.97928C8.69158 1.5695 7.88915 0.933594 6.93535 0.933594ZM6.93535 2.32653C7.34417 2.32653 7.67727 2.65962 7.67727 3.06845C7.67727 3.47727 7.34417 3.81037 6.93535 3.81037C6.52652 3.81037 6.19343 3.47727 6.19343 3.06845C6.19343 2.65962 6.52652 2.32653 6.93535 2.32653ZM6.95045 5.46064C7.93454 5.46064 8.73699 6.26309 8.73699 7.24718C8.73699 8.23127 7.93454 9.03372 6.95045 9.03372C5.96636 9.03372 5.16391 8.23127 5.16391 7.24718C5.16391 6.26309 5.96636 5.46064 6.95045 5.46064ZM10.5236 13.2126H3.37726C3.37726 11.2292 4.98214 9.63945 6.95045 9.63945C8.91876 9.63945 10.5236 11.2443 10.5236 13.2126Z" fill="#f0575d"/>
</svg>
