<svg width="20" height="20" viewBox="0 0 20 20" fill="none" xmlns="http://www.w3.org/2000/svg">
<path d="M18.5 9.5C18.5 14.1944 14.6944 18 10 18C5.30558 18 1.5 14.1944 1.5 9.5C1.5 4.80558 5.30558 1 10 1C14.6944 1 18.5 4.80558 18.5 9.5Z" fill="white" stroke="#353535" stroke-width="2"/>
<path d="M9.084 16V7.6H10.22V16H9.084ZM9.66 5.744C9.42533 5.744 9.228 5.664 9.068 5.504C8.908 5.344 8.828 5.152 8.828 4.928C8.828 4.704 8.908 4.51733 9.068 4.368C9.228 4.208 9.42533 4.128 9.66 4.128C9.89467 4.128 10.092 4.20267 10.252 4.352C10.412 4.50133 10.492 4.688 10.492 4.912C10.492 5.14667 10.412 5.344 10.252 5.504C10.1027 5.664 9.90533 5.744 9.66 5.744Z" fill="#142E45"/>
</svg>
