<svg width="19" height="17" viewBox="0 0 19 17" fill="none" xmlns="http://www.w3.org/2000/svg">
<path d="M1.81002 0.700011C0.84678 0.700011 0.0500488 1.49674 0.0500488 2.45999V11.1386C0.0500488 12.1018 0.84678 12.8985 1.81002 12.8985L9.56057 12.8987C9.91163 15.1581 11.87 16.8997 14.225 16.8997C16.8266 16.8997 18.95 14.7763 18.95 12.1747C18.95 10.0424 17.522 8.23424 15.575 7.65027V2.45971C15.575 1.49647 14.7783 0.699738 13.815 0.699738L1.81002 0.700011ZM3.85084 3.55036L7.81251 6.70389C7.82818 6.71669 11.7742 3.55036 11.7742 3.55036C12.0638 3.31471 12.4897 3.35901 12.7248 3.6492C12.9604 3.93879 12.9161 4.36474 12.6259 4.59979L8.73793 7.75197C8.19041 8.19616 7.43449 8.19616 6.88697 7.75197L3.00013 4.59964C2.71009 4.36475 2.66564 3.9388 2.90129 3.6492C3.13015 3.38176 3.5219 3.28503 3.85049 3.55036H3.85084ZM14.225 8.79993C16.0969 8.79993 17.6 10.303 17.6 12.1749C17.6 14.0468 16.0969 15.5499 14.225 15.5499C12.3531 15.5499 10.85 14.0468 10.85 12.1749C10.85 10.303 12.3531 8.79993 14.225 8.79993Z" fill="#1FC28F"/>
<path d="M14.225 10.15C14.046 10.15 13.8742 10.2211 13.7476 10.3477C13.6211 10.4743 13.55 10.646 13.55 10.825V11.5H12.875C12.696 11.5 12.5242 11.5711 12.3976 11.6977C12.2711 11.8243 12.2 11.996 12.2 12.175C12.2 12.354 12.2711 12.5258 12.3976 12.6523C12.5242 12.7789 12.696 12.85 12.875 12.85H13.55V13.525C13.55 13.704 13.6211 13.8758 13.7476 14.0023C13.8742 14.1289 14.046 14.2 14.225 14.2C14.4039 14.2 14.5757 14.1289 14.7023 14.0023C14.8288 13.8758 14.9 13.704 14.9 13.525V12.85H15.575C15.7539 12.85 15.9257 12.7789 16.0523 12.6523C16.1788 12.5258 16.25 12.354 16.25 12.175C16.25 11.996 16.1788 11.8243 16.0523 11.6977C15.9257 11.5711 15.7539 11.5 15.575 11.5H14.9V10.825C14.9 10.646 14.8288 10.4743 14.7023 10.3477C14.5757 10.2211 14.4039 10.15 14.225 10.15Z" fill="#1FC28F"/>
</svg>
