<svg width="17" height="12" viewBox="0 0 17 12" fill="none" xmlns="http://www.w3.org/2000/svg">
<path d="M0.123314 8.00869H5.72C5.75569 8.00869 5.79153 7.99244 5.81431 7.96313C5.88584 7.87535 5.9475 7.80063 6.0125 7.73244C6.03847 7.70313 6.05153 7.66425 6.045 7.62841C5.78819 6.19841 4.49473 5.11618 3.04193 5.11618C1.45916 5.11618 0.15262 6.30245 0 7.87549C0 7.90799 0.00972103 7.94368 0.0325 7.96646C0.055279 7.99243 0.0877798 8.00868 0.12347 8.00868L0.123314 8.00869Z" fill="#1FC28F"/>
<path d="M5.08627 2.30502C5.08627 3.43409 4.17103 4.34933 3.04196 4.34933C1.913 4.34933 0.997803 3.43409 0.997803 2.30502C0.997803 1.17606 1.91304 0.260864 3.04196 0.260864C4.17103 0.260864 5.08627 1.1761 5.08627 2.30502Z" fill="#1FC28F"/>
<path d="M8.00671 7.81452C9.13448 7.81452 10.051 6.89798 10.051 5.77021C10.051 4.64244 9.13448 3.72591 8.00671 3.72591C6.87894 3.72591 5.9624 4.64244 5.9624 5.77021C5.9624 6.89798 6.87894 7.81452 8.00671 7.81452Z" fill="#1FC28F"/>
<path d="M10.2392 7.96348C10.262 7.99279 10.2977 8.00904 10.3335 8.00904H15.9202C15.9558 8.00904 15.9883 7.99598 16.0111 7.97001C16.0339 7.94404 16.0468 7.91154 16.0436 7.8757C15.8942 6.30263 14.5843 5.11639 13.0017 5.11639C11.5523 5.11639 10.262 6.19209 10.002 7.6157C9.99544 7.65473 10.0052 7.69376 10.0313 7.71973C10.109 7.8107 10.174 7.88557 10.239 7.96348H10.2392Z" fill="#1FC28F"/>
<path d="M13.0016 4.34948C14.1293 4.34948 15.0459 3.43294 15.0459 2.30517C15.0459 1.1774 14.1293 0.260864 13.0016 0.260864C11.8738 0.260864 10.9573 1.1774 10.9573 2.30517C10.9573 3.43309 11.8738 4.34948 13.0016 4.34948Z" fill="#1FC28F"/>
<path d="M4.96421 11.3409C4.96102 11.3766 4.97074 11.4091 4.99671 11.4352C5.01949 11.4611 5.05199 11.4742 5.08768 11.4742L10.9247 11.4741C10.9604 11.4741 10.9929 11.461 11.0156 11.435C11.0384 11.4091 11.0513 11.3766 11.0481 11.3407C10.9962 10.8076 10.8012 10.291 10.4826 9.85225C10.372 9.70281 10.2519 9.55975 10.1219 9.43629C9.54996 8.88698 8.79912 8.58156 8.00619 8.58156C7.20992 8.58156 6.45592 8.88712 5.88062 9.44283C5.75715 9.56311 5.63687 9.69964 5.52965 9.8491C5.21118 10.2912 5.01618 10.8078 4.96407 11.3409L4.96421 11.3409Z" fill="#1FC28F"/>
</svg>
