<svg width="19" height="20" viewBox="0 0 19 20" fill="none" xmlns="http://www.w3.org/2000/svg">
<path d="M0.394621 6.81818C0.523354 6.34091 0.71645 5.86364 0.909548 5.45455C2.26123 2.52273 4.90023 0.477273 7.98979 0.0681818L8.31161 0H9.01964H9.72766L10.1139 0.0681818C13.2034 0.409091 15.8424 2.45455 17.1941 5.45455C17.3872 5.86364 17.5803 6.34091 17.709 6.81818C18.2239 8.59091 18.2239 10.5 17.709 12.2727C17.5803 12.75 17.3872 13.2273 17.1941 13.6364C15.8424 16.5682 13.2034 18.6136 10.1139 19.0227L9.72766 19.0909H9.01964H8.31161L7.92542 19.0227C4.83586 18.6136 2.19686 16.5682 0.845182 13.6364C0.652084 13.2273 0.458986 12.75 0.330256 12.2727C-0.120306 10.4318 -0.120306 8.59091 0.394621 6.81818ZM2.32559 5.45455H5.67262C5.99445 4.09091 6.50937 2.79545 7.2174 1.56818C5.15769 2.11364 3.41981 3.47727 2.32559 5.45455ZM6.44501 9.54545C6.44501 10.4318 6.50937 11.3864 6.70247 12.2727H11.4012C11.723 10.5 11.723 8.59091 11.4012 6.81818H6.70247C6.50937 7.70455 6.44501 8.65909 6.44501 9.54545ZM6.95993 13.6364C7.34613 15.1364 7.98979 16.5 8.89091 17.7273H9.084C9.98512 16.5 10.6288 15.1364 11.015 13.6364H6.95993ZM11.0793 5.45455C10.6931 3.95455 10.0495 2.59091 9.14837 1.36364H8.95527C8.05415 2.59091 7.41049 3.95455 7.0243 5.45455H11.0793ZM10.8219 1.56818C11.5299 2.79545 12.0448 4.09091 12.3667 5.45455H15.7137C14.6195 3.47727 12.8816 2.11364 10.8219 1.56818ZM16.7435 9.54545C16.7435 8.59091 16.6148 7.70455 16.293 6.81818H12.6241C12.946 8.59091 12.946 10.5 12.6241 12.2727H16.293C16.6148 11.3864 16.7435 10.5 16.7435 9.54545ZM15.7137 13.6364H12.3667C12.0448 15 11.5299 16.2955 10.8219 17.5227C12.8816 16.9773 14.6195 15.6136 15.7137 13.6364ZM7.2174 17.5227C6.50937 16.2955 5.99445 15 5.67262 13.6364H2.32559C3.41981 15.6136 5.15769 16.9773 7.2174 17.5227ZM5.35079 12.2727C5.22206 11.3864 5.15769 10.4318 5.15769 9.54545C5.15769 8.65909 5.22206 7.70455 5.35079 6.81818H1.7463C1.16701 8.59091 1.16701 10.5 1.7463 12.2727H5.35079Z" fill="#1FC28F"/>
</svg>
