<svg width="18" height="19" viewBox="0 0 18 19" fill="none" xmlns="http://www.w3.org/2000/svg">
<path fill-rule="evenodd" clip-rule="evenodd" d="M17.5872 8.2125C17.6966 6.75794 16.5415 6.3335 16.0832 6.3335C14.3065 6.33304 12.5294 6.33365 10.7524 6.33184C11.0082 5.6784 11.3201 3.94585 10.9273 1.55901C10.7721 0.615359 10.2978 -0.0123139 9.69356 0.000183276C9.20675 0.0101274 8.74172 0.450698 8.69297 1.00034C8.63957 1.60452 8.51315 2.46486 8.39366 3.05323C8.01094 4.9342 5.9639 7.41759 4.66962 8.2839V17.4724C5.54767 18.0549 6.49987 18.2589 7.5169 18.2361C9.12355 18.2001 13.7131 18.2316 14.5447 18.2251C15.1333 18.2206 15.7202 17.891 16.0025 17.0569C16.3882 15.9182 15.394 15.3487 15.394 15.3487C15.394 15.3487 16.4824 15.4118 16.7311 14.2657C16.9863 13.0894 15.985 12.6239 15.985 12.6239C16.6622 12.5371 17.0956 12.3301 17.2596 11.6137C17.4523 10.7697 16.9899 10.136 16.2579 9.76917C16.3687 9.75636 17.4868 9.54422 17.5873 8.21273L17.5872 8.2125ZM3.54204 6.82347H0.552033C0.247207 6.82347 0 7.11351 0 7.47151V17.8665C0 18.2244 0.247069 18.5146 0.552033 18.5146H3.54204C3.84686 18.5146 4.09407 18.2245 4.09407 17.8665V7.47151C4.09407 7.11382 3.84713 6.82362 3.54204 6.82362V6.82347Z" fill="#1FC28F"/>
</svg>
