<svg width="27" height="33" viewBox="0 0 27 33" fill="none" xmlns="http://www.w3.org/2000/svg">
<path d="M12.4045 21.785V21.6266L12.2612 21.5589C11.2726 21.0924 10.5889 20.0912 10.5889 18.9277C10.5889 17.3198 11.8918 16.0166 13.4997 16.0166C15.1075 16.0166 16.4105 17.3202 16.41 18.9276V18.9277C16.41 20.0912 15.7264 21.0929 14.7377 21.5589L14.5943 21.6265V21.785V24.4684C14.5943 25.073 14.104 25.5633 13.4994 25.5633C12.8948 25.5633 12.4045 25.073 12.4045 24.4684V21.785ZM22.4378 10.8514L22.6754 10.8195L22.6539 11.0339C24.9499 11.2638 26.7493 13.2074 26.75 15.563C26.75 15.563 26.75 15.563 26.75 15.5631L26.7498 27.5305C26.7498 30.0398 24.7074 32.0822 22.198 32.0822H4.80178C2.29245 32.0822 0.25 30.0399 0.25 27.5305V15.563C0.25 13.2074 2.04943 11.2635 4.34534 11.0342L4.57048 11.0117V10.7854V4.38507C4.57048 2.10496 6.42545 0.25 8.70555 0.25H18.2938C20.5739 0.25 22.4289 2.10496 22.4289 4.38507V10.5089L22.3416 10.5001L22.4377 10.8512L22.4378 10.8514ZM7.22773 4.38507V4.38508L7.22798 10.7618L7.22799 11.0118L7.47799 11.0118L19.5219 11.0116L19.7719 11.0116V10.7616V4.38507C19.7719 3.56988 19.1091 2.90713 18.294 2.90713H8.70568C7.89049 2.90713 7.22773 3.56988 7.22773 4.38507ZM22.1975 29.4254C23.2425 29.4254 24.0922 28.5757 24.0922 27.5307L24.0924 15.5632C24.0924 14.5185 23.2428 13.6686 22.1978 13.6686H4.80158C3.75662 13.6686 2.90693 14.5183 2.90693 15.5632L2.90669 27.5307C2.90669 28.5757 3.75637 29.4254 4.80134 29.4254H22.1975Z" fill="#7B7B7B" stroke="white" stroke-width="0.5"/>
</svg>
