<svg width="34" height="34" viewBox="0 0 34 34" fill="none" xmlns="http://www.w3.org/2000/svg">
<path d="M22.7339 9.93891C22.7339 10.1193 22.8056 10.2922 22.9331 10.4197C23.0606 10.5474 23.2336 10.6189 23.4139 10.6189H24.937C25.3127 10.6189 25.617 10.3146 25.617 9.93891C25.617 9.56343 25.3127 9.25891 24.937 9.25891H23.4139C23.0384 9.25891 22.7339 9.56343 22.7339 9.93891Z" fill="#7B7B7B"/>
<path d="M12.2832 9.93891C12.2832 10.1193 12.3549 10.2922 12.4824 10.4197C12.6099 10.5474 12.783 10.6189 12.9632 10.6189H14.4865C14.862 10.6189 15.1665 10.3146 15.1665 9.93891C15.1665 9.56343 14.862 9.25891 14.4865 9.25891H12.9632C12.5877 9.25891 12.2832 9.56343 12.2832 9.93891Z" fill="#7B7B7B"/>
<path d="M19.63 5.47525V3.95209C19.63 3.57642 19.3255 3.27209 18.95 3.27209C18.5745 3.27209 18.27 3.57642 18.27 3.95209V5.47525C18.27 5.85073 18.5745 6.15525 18.95 6.15525C19.3255 6.15525 19.63 5.85073 19.63 5.47525Z" fill="#7B7B7B"/>
<path d="M22.7118 5.22502L21.6239 6.31292H21.6237C21.3579 6.57893 21.3579 7.01002 21.6237 7.2758C21.8897 7.54181 22.3208 7.54181 22.5866 7.2758L23.6745 6.1879H23.6747C23.9405 5.92189 23.9405 5.4908 23.6747 5.22502C23.4086 4.95901 22.9776 4.95901 22.7118 5.22502Z" fill="#7B7B7B"/>
<path d="M15.7947 7.46348C16.0702 7.46405 16.3187 7.29841 16.424 7.04398C16.5295 6.78955 16.4711 6.49658 16.2762 6.30215L15.1883 5.21424H15.1881C14.9223 4.94824 14.4912 4.94824 14.2252 5.21424C13.9594 5.48006 13.9594 5.91115 14.2252 6.17693L15.3133 7.26503C15.4408 7.39272 15.6143 7.46425 15.7947 7.46349L15.7947 7.46348Z" fill="#7B7B7B"/>
<path d="M7.62124 15.3051C7.26055 15.3051 6.91467 15.4483 6.65967 15.7035C6.40467 15.9585 6.26123 16.3044 6.26123 16.6651V28.5675C6.26123 28.9282 6.40467 29.2743 6.65967 29.5293C6.91467 29.7843 7.26054 29.9275 7.62124 29.9275H11.5599C11.9046 29.9285 12.2369 29.7983 12.4894 29.5634C12.7419 29.3287 12.8958 29.0068 12.9199 28.6628L13.7631 29.1686V29.1688C14.5658 29.6505 15.4843 29.9053 16.4205 29.9059H22.1679C22.8631 29.9133 23.5522 29.7761 24.1916 29.5033C26.0276 28.6872 26.3158 27.2539 26.18 26.302C26.6513 25.906 26.9892 25.3745 27.1473 24.7797C27.3055 24.1849 27.2765 23.5558 27.064 22.978C27.5191 22.4274 27.7605 21.7311 27.744 21.0169C27.7142 20.4574 27.5203 19.9191 27.1864 19.4691C27.3951 18.9889 27.4471 18.455 27.3353 17.9433C27.2236 17.4318 26.9536 16.9683 26.5635 16.6186C26.5073 16.5661 26.4483 16.5161 26.3866 16.4691H26.3868C26.0774 16.239 25.7205 16.0811 25.3423 16.0067H25.3124C23.5089 15.6233 22.2958 15.5988 20.5116 15.5988C20.4436 15.188 20.4463 14.3259 20.9848 12.702C21.4824 11.1977 21.439 9.9548 20.8542 9.00542C20.366 8.23702 19.562 7.72493 18.6592 7.60729H18.575C18.2627 7.60198 17.957 7.69818 17.7043 7.88165C17.4518 8.0653 17.2656 8.326 17.1742 8.62464C17.1645 8.65671 17.1571 8.68934 17.1524 8.72254L16.9484 10.1912C16.8869 10.6326 16.7585 11.0617 16.5676 11.4644L14.5847 15.6286C14.2836 16.3255 13.6628 16.8326 12.92 16.9886V16.6649C12.92 16.3042 12.7768 15.9583 12.5218 15.7033C12.2666 15.4481 11.9207 15.3049 11.56 15.3049L7.62124 15.3051ZM7.62124 28.5675V16.6651H11.5599V28.5675H7.62124ZM13.0612 18.3568C14.2858 18.1421 15.319 17.3236 15.8085 16.1808L17.7751 12.0273C18.0252 11.4993 18.1929 10.9362 18.2728 10.3573L18.4822 8.98366C18.4921 8.97418 18.5042 8.96754 18.5175 8.96469C18.9973 9.04058 19.4229 9.31512 19.6899 9.72075C20.0489 10.3028 20.0489 11.1868 19.6899 12.2749C19.1622 13.8634 18.999 15.1173 19.2004 16.0041V16.0039C19.2624 16.2773 19.4159 16.5213 19.6356 16.6955C19.8551 16.8695 20.1278 16.9634 20.408 16.9615C22.2059 16.9615 23.3156 16.9778 25.032 17.3396H25.0591L25.0593 17.3394C25.2405 17.3722 25.4124 17.4447 25.5624 17.5517L25.6495 17.6252C26.3458 18.2536 25.9053 19.0586 25.8127 19.2083V19.2081C25.633 19.4891 25.6837 19.8589 25.9322 20.0813C26.1971 20.3492 26.3597 20.7015 26.3919 21.0768C26.376 21.583 26.1551 22.0611 25.78 22.4015C25.5708 22.6227 25.5339 22.9561 25.6903 23.2173C25.7203 23.2689 26.4192 24.485 25.0348 25.5021V25.5023C24.7968 25.6812 24.7003 25.9926 24.7953 26.2747C24.8687 26.4923 25.1571 27.6075 23.6638 28.2631C23.1904 28.461 22.6808 28.5572 22.1677 28.546H16.4096C15.7204 28.5448 15.0446 28.3568 14.454 28.002L12.9198 27.0826V18.3786L13.0612 18.3568Z" fill="#7B7B7B"/>
<path d="M10.4204 26.4517C10.4204 26.9099 10.0491 27.2812 9.59093 27.2812C9.13272 27.2812 8.76123 26.9099 8.76123 26.4517C8.76123 25.9935 9.13272 25.6222 9.59093 25.6222C10.0491 25.6222 10.4204 25.9935 10.4204 26.4517Z" fill="#7B7B7B"/>
</svg>
