<svg id="Layer_1" data-name="Layer 1" xmlns="http://www.w3.org/2000/svg" viewBox="0 0 44 43.92"><path d="M33.85,19.75a9.43,9.43,0,1,0,9.43,9.43A9.45,9.45,0,0,0,33.85,19.75Zm0,15.71a6.29,6.29,0,1,1,6.29-6.28A6.31,6.31,0,0,1,33.85,35.46Z" transform="translate(-11.85 -11.89)"/><path d="M33.85,11.89a22,22,0,0,0-15.71,37.4,20,20,0,0,0,3.14,2.59,21.48,21.48,0,0,0,12.57,3.93,22.06,22.06,0,0,0,12.57-3.93,31.71,31.71,0,0,0,3.14-2.59,22,22,0,0,0-15.71-37.4Zm0,40.86a18.72,18.72,0,0,1-12.26-4.56,6.84,6.84,0,0,1,6.52-4.87H39.66a6.84,6.84,0,0,1,6.53,4.87,19.1,19.1,0,0,1-12.34,4.56Zm14.69-7.07a9.92,9.92,0,0,0-8.88-5.5H28.11a9.86,9.86,0,0,0-8.87,5.5A18.33,18.33,0,0,1,15,33.89a18.86,18.86,0,0,1,37.72,0,18.71,18.71,0,0,1-4.17,11.79Z" transform="translate(-11.85 -11.89)"/></svg>