<svg width="30" height="30" viewBox="0 0 30 30" fill="none" xmlns="http://www.w3.org/2000/svg">
<path d="M29.3748 18.7501H26.8749C25.4938 18.7501 24.375 17.6313 24.375 16.2502C24.375 14.869 25.4938 13.7502 26.8749 13.7502H29.3748C29.7185 13.7502 29.9997 14.0314 29.9997 14.3752V18.1252C29.9997 18.4689 29.7185 18.7501 29.3748 18.7501ZM27.4998 15.625H26.8749C26.5312 15.625 26.25 15.9062 26.25 16.2499C26.25 16.5936 26.5312 16.8748 26.8749 16.8748H27.4998C27.8435 16.8748 28.1247 16.5936 28.1247 16.2499C28.1247 15.9064 27.8435 15.625 27.4998 15.625Z" fill="#1FC28F"/>
<path d="M14.4435 24.375H21.2498V28.125C21.2498 29.1561 20.4059 30 19.3748 30H1.875C0.843883 30 0 29.1561 0 28.125V1.87502C0 0.843901 0.843883 1.71661e-05 1.875 1.71661e-05H19.3748C20.4059 1.71661e-05 21.2498 0.843901 21.2498 1.87502V8.12492H14.4435C12.6813 8.12492 11.2499 9.55628 11.2499 11.3188V21.1813C11.2499 22.9435 12.6813 24.3749 14.4435 24.3749V24.375ZM7.4183 26.8749C7.4183 27.2186 7.69322 27.4998 8.04321 27.4998H8.66812C9.01183 27.4998 9.29303 27.2186 9.29303 26.8749C9.29303 26.5312 9.01183 26.25 8.66812 26.25H8.04321C7.69348 26.25 7.4183 26.5312 7.4183 26.8749ZM12.4997 3.75015C12.8435 3.75015 13.1247 3.46895 13.1247 3.12524C13.1247 2.78153 12.8435 2.50033 12.4997 2.50033H8.74975C8.40603 2.50033 8.12484 2.78153 8.12484 3.12524C8.12484 3.46895 8.40603 3.75015 8.74975 3.75015H12.4997ZM10.5434 26.2501C10.1934 26.2501 9.91848 26.5313 9.91848 26.875C9.91848 27.2188 10.1934 27.5 10.5434 27.5H13.0433C13.387 27.5 13.6682 27.2188 13.6682 26.875C13.6682 26.5313 13.387 26.2501 13.0433 26.2501H10.5434Z" fill="#1FC28F"/>
<path d="M29.9998 21.1816V20.0003H26.8747C24.8058 20.0003 23.1247 18.3191 23.1247 16.2503C23.1247 14.1814 24.8058 12.5003 26.8747 12.5003H29.9998V11.319C29.9998 10.2438 29.131 9.37519 28.056 9.37519H14.4435C13.3687 9.37519 12.5 10.2439 12.5 11.319V14.3753H16.425L16.9063 12.9254C16.9936 12.6753 17.2312 12.5003 17.4998 12.5003H19.4873C19.7436 11.7752 20.4374 11.2502 21.2498 11.2502C22.2809 11.2502 23.1248 12.0941 23.1248 13.1252C23.1248 14.1563 22.2809 15.0002 21.2498 15.0002C20.4373 15.0002 19.7436 14.4752 19.4873 13.7501H17.9497L17.4684 15.2C17.3811 15.4501 17.1435 15.6251 16.8749 15.6251H12.5V16.8752H16.25C16.5186 16.8752 16.7562 17.0502 16.8438 17.3003L17.3248 18.7502H18.8624C19.1187 18.0251 19.8125 17.5001 20.6249 17.5001C21.656 17.5001 22.4999 18.344 22.4999 19.3751C22.4999 20.4062 21.656 21.2501 20.6249 21.2501C19.8124 21.2501 19.1187 20.7251 18.8624 20L16.8749 20.0002C16.6063 20.0002 16.3687 19.8252 16.2811 19.5752L15.7998 18.1253H12.5V21.1816C12.5 22.2567 13.3687 23.1254 14.4438 23.1254H28.0563C29.1311 23.1251 29.9998 22.2564 29.9998 21.1816L29.9998 21.1816Z" fill="#1FC28F"/>
</svg>
