<svg width="17" height="15" viewBox="0 0 17 15" fill="none" xmlns="http://www.w3.org/2000/svg">
<path d="M8.85778 0.158967L8.85792 0.159061L16.6994 5.47442C16.9373 5.63602 16.9937 5.88923 16.9195 6.10286C16.8452 6.31703 16.6389 6.49283 16.3436 6.49283H15.0705H15.0205V6.54283V13.6989V13.7489H15.0705H16.5489C16.615 13.7489 16.6632 13.7987 16.6632 13.852V14.8469C16.6632 14.9002 16.615 14.95 16.5489 14.95H0.450999C0.384885 14.95 0.336734 14.9002 0.336734 14.8469V13.852C0.336734 13.7987 0.384885 13.7489 0.450999 13.7489H1.92938H1.97938V13.6989V6.54283V6.49283H1.92938H0.658382C0.362044 6.49283 0.155216 6.31653 0.0806327 6.10211C0.00623319 5.88821 0.0626502 5.63511 0.300354 5.47449L0.300416 5.47445L8.14198 0.159061L8.14212 0.158967C8.24559 0.0883256 8.37093 0.05 8.49995 0.05C8.62897 0.05 8.75431 0.0883256 8.85778 0.158967ZM8.528 1.42522L8.49995 1.40621L8.4719 1.42522L2.90539 5.19842L2.77057 5.28981H2.93344H14.0665H14.2293L14.0945 5.19842L8.528 1.42522ZM3.40776 6.49283H3.35776V6.54283V13.6989V13.7489H3.40776H5.81012H5.86012V13.6989V6.54283V6.49283H5.81012H3.40776ZM7.2885 6.49283H7.2385V6.54283V13.6989V13.7489H7.2885H9.69087H9.74087V13.6989V6.54283V6.49283H9.69087H7.2885ZM13.5921 13.7489H13.6421V13.6989V6.54283V6.49283H13.5921H11.1692H11.1192V6.54283V13.6989V13.7489H11.1692H13.5921Z" fill="#7B7B7B" stroke="white" stroke-width="0.1"/>
</svg>
