<svg width="19" height="12" viewBox="0 0 19 12" fill="none" xmlns="http://www.w3.org/2000/svg">
<path d="M18 7.55673e-06H2.66667C2.48988 7.55673e-06 2.32024 0.0702475 2.19524 0.195246C2.07024 0.320244 2 0.489889 2 0.666674V1.50001H16C16.3094 1.50001 16.6061 1.62292 16.825 1.84168C17.0437 2.06057 17.1667 2.35729 17.1667 2.66667V10H18C18.1768 10 18.3464 9.92976 18.4714 9.80476C18.5964 9.67976 18.6667 9.51011 18.6667 9.33333V0.666666C18.6667 0.489882 18.5964 0.320236 18.4714 0.195238C18.3464 0.07024 18.1768 0 18 0L18 7.55673e-06Z" fill="#1FC28F"/>
<path d="M0 11.3333C0 11.5101 0.07024 11.6798 0.195238 11.8048C0.320236 11.9298 0.489882 12 0.666666 12H16C16.1768 12 16.3464 11.9298 16.4714 11.8048C16.5964 11.6798 16.6667 11.5101 16.6667 11.3333V5.33334H0V11.3333ZM5.33333 6.66668H6.66666V8.00001H5.33333V6.66668ZM1.33333 6.66668H4V8.00001H1.33333V6.66668Z" fill="#1FC28F"/>
<path d="M16 2H0.666666C0.489882 2 0.320236 2.07024 0.195238 2.19524C0.07024 2.32024 0 2.48988 0 2.66667V3.33333H16.6667V2.66667C16.6667 2.48988 16.5964 2.32024 16.4714 2.19524C16.3464 2.07024 16.1768 2 16 2Z" fill="#1FC28F"/>
</svg>
