<svg width="40" height="38" viewBox="0 0 40 38" fill="none" xmlns="http://www.w3.org/2000/svg">
<path d="M20.8769 29.6954C21.4513 29.6954 21.9023 29.2441 21.9023 28.67C21.9023 28.0957 21.451 27.6447 20.8769 27.6447C20.3026 27.6447 19.8516 28.096 19.8516 28.67C19.8516 28.8752 19.9337 29.1213 20.0568 29.2853C20.0977 29.3262 20.0977 29.3674 20.1389 29.4083C20.3029 29.5723 20.5899 29.6954 20.8769 29.6954L20.8769 29.6954Z" fill="#1FC28F"/>
<path d="M13.7812 28.4644C13.7812 27.89 13.3299 27.439 12.7558 27.439C12.1815 27.439 11.7305 27.8903 11.7305 28.4644C11.7305 29.0387 12.1818 29.4897 12.7558 29.4897C13.289 29.531 13.7812 29.0387 13.7812 28.4644Z" fill="#1FC28F"/>
<path d="M3.52734 28.6701C3.52734 29.2444 3.97864 29.6954 4.55271 29.6954C4.83972 29.6954 5.12705 29.5724 5.33193 29.3672C5.37284 29.3263 5.41407 29.285 5.41407 29.2441C5.53712 29.0802 5.61926 28.875 5.61926 28.6289C5.61926 28.0545 5.16796 27.6035 4.5939 27.6035C3.97864 27.6035 3.52737 28.0957 3.52737 28.67L3.52734 28.6701Z" fill="#1FC28F"/>
<path d="M15.3398 23.1327C15.3398 23.707 15.7911 24.158 16.3652 24.158C16.9396 24.158 17.3906 23.7067 17.3906 23.1327C17.3906 22.5583 16.9393 22.1073 16.3652 22.1073C15.7911 22.1073 15.3398 22.5583 15.3398 23.1327Z" fill="#1FC28F"/>
<path d="M37.5293 30.8847H32.5666C31.172 30.8847 29.8594 30.3515 28.8754 29.3262C27.8909 28.3827 27.3578 27.0704 27.3578 25.635C27.3578 22.7639 29.6958 20.4259 32.5669 20.4259H37.5708C37.6938 20.4259 37.8169 20.4259 37.9808 20.4668C38.063 20.4668 38.1039 20.4668 38.186 20.5077L38.1857 17.5545C38.1857 15.9549 37.0782 14.6013 35.6016 14.1912V9.72077C35.6016 7.79315 34.0432 6.19351 32.0744 6.19351H26.6604C25.3068 2.46105 21.8205 0 17.8417 0C13.8631 0 10.3767 2.46105 9.02371 6.19319L4.30682 6.1935C3.15843 6.1935 2.05097 6.6448 1.23048 7.46491C0.574315 8.12108 0.123024 8.98245 0 9.92596C0.000314771 10.0899 0.000314711 10.2948 0.000314711 10.5V33.2228C0.000314711 35.6017 1.92794 37.5293 4.34806 37.5293H8.03927V32.7718C8.03927 32.5666 7.95713 32.4027 7.83408 32.2387L5.74218 30.1468C5.41394 30.3929 5.04479 30.5159 4.63472 30.5159C3.60936 30.5159 2.78895 29.6955 2.78895 28.6702C2.78895 27.6448 3.60944 26.8244 4.63472 26.8244C5.66008 26.8244 6.48049 27.6449 6.48049 28.6702C6.48049 28.9984 6.39835 29.2854 6.27529 29.5315L8.40812 31.6643C8.69513 31.9513 8.85942 32.3617 8.85942 32.7718V37.5705H12.3049V30.3107C11.4844 30.1056 10.8695 29.3672 10.8695 28.5062C10.8695 27.4809 11.69 26.6605 12.7153 26.6605C13.7407 26.6605 14.5611 27.4809 14.5611 28.5062C14.5611 29.4085 13.9458 30.1468 13.1257 30.3107V37.6114H16.612L16.6114 32.7718C16.6114 32.3617 16.7754 31.9513 17.0627 31.6643L19.1955 29.5315C19.0725 29.2854 18.9903 28.9984 18.9903 28.6702C18.9903 27.6448 19.8108 26.8244 20.8361 26.8244C21.8615 26.8244 22.6819 27.6449 22.6819 28.6702C22.6819 29.6955 21.8614 30.5159 20.8361 30.5159C20.426 30.5159 20.0156 30.3929 19.7286 30.1468L17.6367 32.2387C17.4728 32.3617 17.4316 32.5669 17.4316 32.7718V37.5705H34.6171C36.5447 37.5705 38.1443 36.012 38.1443 34.0432V30.8029C38.0622 30.8029 37.9804 30.8438 37.8982 30.8438C37.8167 30.8851 37.6937 30.8851 37.5294 30.8851L37.5293 30.8847ZM24.5686 24.8142C23.5433 24.8142 22.7228 23.9937 22.7228 22.9684C22.7228 22.6402 22.805 22.3532 22.928 22.1071L20.7544 19.9743C20.4674 19.6872 20.3031 19.2769 20.3031 18.8668V14.0272H16.8167V21.3279C17.6372 21.533 18.2521 22.2714 18.2521 23.1324C18.2521 24.1577 17.4316 24.9781 16.4063 24.9781C15.381 24.9781 14.5606 24.1577 14.5606 23.1324C14.5606 22.2301 15.1758 21.4918 15.9959 21.3279L15.9966 14.0272H12.5102V18.8259C12.5102 19.2359 12.3463 19.6464 12.0589 19.9333L9.88526 22.0662C10.0083 22.3123 10.0905 22.5993 10.0905 22.9275C10.0905 23.9529 9.26997 24.7733 8.24469 24.7733C7.21933 24.7733 6.39892 23.9528 6.39892 22.9275C6.39892 21.9021 7.21941 21.0817 8.24469 21.0817C8.65475 21.0817 9.06517 21.2048 9.35215 21.4509L11.444 19.359C11.5671 19.2359 11.6492 19.0307 11.6492 18.8259L11.6489 14.0272H4.2661C3.07678 14.0272 1.96932 13.4119 1.35404 12.4687C0.984888 11.8944 0.738783 11.2382 0.738783 10.4999C0.820606 10.3359 0.820606 10.1716 0.820606 10.0486C0.943655 9.31024 1.2719 8.61319 1.80504 8.03884C2.46121 7.38267 3.36351 7.01347 4.30702 7.01347H8.77779C8.77779 7.05439 8.77779 7.09561 8.73687 7.13652C8.73687 7.17744 8.69596 7.25957 8.69596 7.30049C8.65505 7.46446 8.61382 7.62873 8.61382 7.7927C8.61382 7.87484 8.57291 7.91575 8.57291 7.99789C8.532 8.16186 8.532 8.32614 8.532 8.4901V8.6953C8.532 8.9414 8.49109 9.1466 8.49109 9.39269C8.49109 9.63879 8.49109 9.8849 8.532 10.1719V10.295C8.57291 10.5411 8.57291 10.7872 8.61414 11.0333V11.0742C8.73719 11.8125 8.98329 12.5508 9.27031 13.2479H12.1005C11.3213 12.1404 10.9112 10.7868 10.9112 9.39238C10.9112 8.36702 11.1164 7.38266 11.5674 6.43915C12.7158 4.06028 15.1356 2.50181 17.8018 2.50181C20.4268 2.50181 22.8879 4.06028 24.0362 6.43915C24.4875 7.38266 24.6924 8.36677 24.6924 9.39238C24.6924 10.7869 24.2823 12.0996 23.5031 13.2479H26.3333C26.6615 12.5505 26.8664 11.8125 26.9895 11.0742V11.0333C27.0304 10.7872 27.0716 10.5411 27.0716 10.295V10.1719C27.0716 9.92581 27.1125 9.67971 27.1125 9.39269C27.1125 9.14659 27.1125 8.94139 27.0716 8.6953V8.4901C27.0716 8.32614 27.0307 8.16186 27.0307 7.99789C27.0307 7.91576 26.9898 7.83393 26.9898 7.7927C26.9489 7.62873 26.9489 7.46446 26.9076 7.3414C26.9076 7.25926 26.8667 7.21835 26.8667 7.13621C26.8667 7.0953 26.8667 7.05407 26.8258 7.05407H31.9937C33.4703 7.05407 34.7009 8.28456 34.7009 9.76125V14.0677H34.5779L21.1233 14.0681V18.8667C21.1233 19.0719 21.2055 19.2359 21.3285 19.3998L23.4204 21.4917C23.7487 21.2456 24.1178 21.1226 24.5279 21.1226C25.5532 21.1226 26.3737 21.9431 26.3737 22.9684C26.3733 23.994 25.5941 24.8141 24.5688 24.8141L24.5686 24.8142Z" fill="#1FC28F"/>
<path d="M24.5705 21.9025C24.2834 21.9025 23.9961 22.0255 23.7912 22.2307C23.7503 22.2716 23.7503 22.3129 23.7091 22.3129C23.5861 22.4768 23.5039 22.682 23.5039 22.9281C23.5039 23.5025 23.9552 23.9535 24.5293 23.9535C25.1036 23.9535 25.5546 23.5022 25.5546 22.9281C25.5549 22.3535 25.1449 21.9025 24.5705 21.9025L24.5705 21.9025Z" fill="#1FC28F"/>
<path d="M37.8145 21.2869C37.7324 21.2869 37.6093 21.246 37.5275 21.246H32.5644C30.1447 21.246 28.1758 23.2149 28.1758 25.6347C28.1758 26.824 28.6271 27.9315 29.4472 28.7519C30.2677 29.5724 31.3748 30.0642 32.5644 30.0642H37.5682H37.8143C38.7166 29.9412 39.3728 29.1619 39.3728 28.2597V23.1327C39.3728 22.2301 38.7166 21.4509 37.8143 21.2869L37.8145 21.2869ZM31.9083 27.3571C31.006 27.3571 30.2268 26.6188 30.2268 25.6756C30.2268 24.7321 30.9651 23.9941 31.9083 23.9941C32.8105 23.9941 33.5898 24.7324 33.5898 25.6756C33.5898 26.6191 32.8105 27.3571 31.9083 27.3571Z" fill="#1FC28F"/>
<path d="M8.98427 22.2303C8.77908 22.0251 8.53297 21.9021 8.20505 21.9021C7.6307 21.9021 7.17969 22.3534 7.17969 22.9274C7.17969 23.5018 7.63098 23.9528 8.20505 23.9528C8.77939 23.9528 9.23041 23.5015 9.23041 22.9274C9.23041 22.7222 9.14827 22.4761 9.02522 22.3122C9.06613 22.3125 9.02522 22.2716 8.9843 22.2304L8.98427 22.2303Z" fill="#1FC28F"/>
<path d="M16.4883 7.38254C16.4883 7.62865 16.5704 7.83384 16.7753 7.95689C16.9805 8.07994 17.2266 8.20299 17.5958 8.28513V6.43936C17.2675 6.48027 16.9805 6.60333 16.8166 6.72638C16.5704 6.89035 16.4883 7.09553 16.4883 7.38255L16.4883 7.38254Z" fill="#1FC28F"/>
<path d="M18.9902 9.51614C18.785 9.39309 18.498 9.27003 18.1289 9.1879V10.9924C18.8672 10.9106 19.2776 10.5827 19.2776 10.0083C19.2776 9.80311 19.1546 9.63915 18.9903 9.51609L18.9902 9.51614Z" fill="#1FC28F"/>
<path d="M23.9144 9.35199C23.9144 8.44973 23.7092 7.58832 23.34 6.76792C22.3147 4.67602 20.1819 3.28159 17.8439 3.28159C15.5059 3.28159 13.3731 4.63517 12.3478 6.76792C11.9786 7.5884 11.7734 8.44941 11.7734 9.35199C11.7734 10.7874 12.2656 12.1409 13.168 13.2075H22.5192C23.4218 12.1409 23.914 10.7874 23.914 9.35199H23.9144ZM19.7718 10.8695C19.6079 11.1156 19.4027 11.2796 19.1157 11.4439C18.8287 11.5669 18.5004 11.6491 18.0903 11.69V12.2643C18.0903 12.3465 18.0903 12.3874 18.0082 12.4283C17.9673 12.4692 17.8851 12.5104 17.8442 12.5104C17.8033 12.5104 17.7212 12.4695 17.6802 12.4283C17.6393 12.3874 17.5981 12.3462 17.5981 12.2643V11.69C16.9828 11.6491 16.4497 11.526 15.9166 11.2799C15.8345 11.239 15.7936 11.1978 15.7526 11.1569C15.7117 11.0747 15.6705 11.0338 15.6705 10.9517C15.6705 10.8695 15.7114 10.7877 15.7526 10.7056C15.8348 10.6234 15.9166 10.6234 15.9988 10.6234C16.0397 10.6234 16.1218 10.6234 16.1627 10.6643C16.614 10.8695 17.065 10.9926 17.5572 10.9926V9.06497C17.1881 8.98283 16.8598 8.85977 16.6137 8.73672C16.3676 8.61368 16.1215 8.44971 15.9576 8.24451C15.7936 8.03932 15.7115 7.75231 15.7115 7.42403C15.7115 7.13701 15.7936 6.84968 15.9166 6.60355C16.0397 6.35744 16.2858 6.15225 16.5319 5.98829C16.778 5.82432 17.1472 5.74218 17.5573 5.70127V5.12693C17.5573 5.04479 17.5982 5.00388 17.6394 4.92173C17.6803 4.88082 17.7625 4.8396 17.8034 4.8396C17.8855 4.8396 17.9264 4.88051 17.9673 4.92173C18.0083 4.96264 18.0495 5.04478 18.0495 5.12693V5.70127C18.5826 5.70127 19.0748 5.82432 19.4848 5.98829C19.6488 6.0292 19.7309 6.15226 19.7309 6.31653C19.7309 6.39867 19.69 6.4805 19.6488 6.56264C19.5667 6.64477 19.5258 6.68568 19.4027 6.68568C19.3618 6.68568 19.3206 6.68568 19.2797 6.64477C18.9105 6.52172 18.5004 6.43958 18.0492 6.39867V8.36754C18.4592 8.44967 18.7875 8.57273 19.0336 8.69578C19.2797 8.81883 19.5258 8.9828 19.6898 9.18799C19.8537 9.39318 19.9768 9.6802 19.9768 10.0493C20.018 10.3772 19.9359 10.6234 19.7719 10.8695L19.7718 10.8695Z" fill="#1FC28F"/>
</svg>
