<svg width="35" height="35" viewBox="0 0 35 35" fill="none" xmlns="http://www.w3.org/2000/svg">
<path d="M23.3804 20.274L19.1462 18.8819C18.6242 18.7078 18.4504 18.3599 18.5083 17.7798H18.3924C19.6103 16.6198 20.4224 15.5757 20.4224 13.894C20.4224 11.6898 18.9145 9.77608 17.0583 9.77608C15.2024 9.77608 13.6941 11.7482 13.6941 13.9519C13.6941 15.634 14.5062 16.6198 15.7241 17.7798H15.55C15.6079 18.3598 15.3758 18.7078 14.7958 18.824L10.5617 20.6219C10.0396 20.854 9.34375 21.3178 9.34375 21.8978L9.3444 24.1598H24.4244V21.8978C24.5403 21.3178 23.9603 20.5057 23.3802 20.2739L23.3804 20.274Z" fill="#1FC28F"/>
<path d="M20.5956 34.252C19.9576 34.252 19.3777 34.0199 18.7977 33.8461C18.2756 33.672 17.7535 33.4982 17.3477 33.4982C16.9418 33.4982 16.4197 33.6723 15.8977 33.8461C15.3177 34.0782 14.6797 34.252 14.0997 34.252C13.9256 34.252 13.7518 34.252 13.5777 34.1941C12.7656 34.0199 12.1277 33.382 11.6056 32.802C11.1997 32.3961 10.8515 32.0479 10.5035 31.8741C9.98176 31.6999 9.45967 31.642 8.87967 31.5841C8.0676 31.5261 7.2555 31.4099 6.61759 30.8882C5.97965 30.3661 5.68967 29.554 5.45759 28.8003C5.28345 28.2782 5.10965 27.8144 4.81965 27.4661C4.52965 27.1182 4.12379 26.8861 3.65965 26.5961C2.96379 26.1902 2.26757 25.7261 1.86174 24.972C1.5138 24.2178 1.62967 23.4061 1.6876 22.594C1.74554 22.014 1.80347 21.492 1.74554 21.0861C1.62967 20.6802 1.39761 20.2741 1.10761 19.8103C0.643796 19.1141 0.179688 18.36 0.179688 17.49C0.179688 16.62 0.64382 15.8658 1.10761 15.2279C1.39761 14.7637 1.6876 14.3579 1.74554 13.952C1.86141 13.5462 1.80347 13.0241 1.6876 12.4441C1.57174 11.6321 1.51347 10.82 1.86174 10.0662C2.20967 9.31207 2.96382 8.84828 3.65965 8.44203C4.12379 8.15203 4.58757 7.86203 4.81965 7.57203C5.10965 7.2241 5.28378 6.75997 5.45759 6.23787C5.74759 5.48374 5.97965 4.67203 6.61759 4.14995C7.25552 3.62787 8.1255 3.56995 8.87967 3.45408C9.40174 3.39615 9.92383 3.33822 10.3297 3.16408C10.6776 2.98995 11.0838 2.64202 11.4318 2.23617C11.9538 1.65617 12.5918 1.07617 13.4038 0.844084C13.578 0.786149 13.7518 0.786148 13.9259 0.786148C14.5638 0.786148 15.1438 1.01821 15.7238 1.19202C16.2459 1.36615 16.768 1.53995 17.1738 1.53995C17.5797 1.53995 18.1017 1.36582 18.6238 1.19202C19.2038 0.95995 19.8417 0.786148 20.4217 0.786148C20.5959 0.786148 20.7697 0.786149 20.9438 0.844084C21.7559 1.01822 22.3938 1.65615 22.9159 2.23617C23.3218 2.64203 23.67 2.9903 24.018 3.16408C24.4238 3.33822 24.9459 3.39615 25.468 3.45408C26.28 3.51202 27.0921 3.62822 27.7301 4.14995C28.368 4.67202 28.658 5.48412 28.8901 6.23787C29.0642 6.75993 29.238 7.2237 29.528 7.57203C29.818 7.91997 30.2239 8.15203 30.688 8.44203C31.3839 8.8479 32.0801 9.31203 32.4859 10.0662C32.8338 10.8203 32.718 11.632 32.66 12.4441C32.6021 13.0241 32.5442 13.5462 32.6021 13.952C32.718 14.3579 32.95 14.7641 33.24 15.2279C33.6459 15.8658 34.1679 16.62 34.1679 17.49C34.1679 18.36 33.7038 19.1141 33.24 19.752C32.95 20.2162 32.66 20.622 32.6021 21.0279C32.4862 21.4337 32.5442 21.9558 32.66 22.5358C32.7759 23.3479 32.8342 24.16 32.4859 24.9137C32.138 25.6678 31.3838 26.1316 30.688 26.5379C30.2239 26.8279 29.7601 27.1179 29.528 27.4079C29.238 27.7558 29.0639 28.2199 28.8901 28.742C28.6 29.4962 28.368 30.3079 27.7301 30.83C27.0921 31.352 26.2221 31.41 25.468 31.5258C24.9459 31.5838 24.4238 31.6417 24.018 31.8158C23.67 31.99 23.2638 32.3379 22.9159 32.7437C22.3938 33.3237 21.7559 33.9037 20.9438 34.1358C20.9438 34.1941 20.7697 34.252 20.5955 34.252L20.5956 34.252ZM17.2897 32.2799C17.9277 32.2799 18.5656 32.512 19.1456 32.6858C19.7835 32.9179 20.3635 33.0917 20.8277 33.0337C21.3497 32.9179 21.7556 32.4537 22.2777 31.9896C22.7418 31.5254 23.1477 31.1196 23.7277 30.8296C24.3077 30.5396 24.9456 30.4816 25.5835 30.4237C26.2794 30.3658 26.8593 30.3078 27.2656 29.9596C27.6714 29.6696 27.8456 29.0316 28.0776 28.3937C28.2518 27.8137 28.4835 27.1758 28.8897 26.7116C29.2956 26.2475 29.8176 25.8996 30.3397 25.5516C30.9197 25.2037 31.4418 24.8558 31.6739 24.3916C31.9059 23.9275 31.7897 23.3475 31.7318 22.6516C31.6739 22.0137 31.5577 21.3758 31.7318 20.7375C31.8477 20.1575 32.1959 19.5775 32.5439 19.0554C32.8918 18.4754 33.2397 17.9533 33.2397 17.4312C33.2397 16.9091 32.8918 16.3871 32.5439 15.8071C32.1959 15.285 31.848 14.7629 31.7318 14.125C31.6159 13.487 31.6739 12.8491 31.7318 12.2108C31.7897 11.5729 31.9059 10.935 31.6739 10.4708C31.4418 10.0067 30.9197 9.65874 30.3397 9.31081C29.8176 8.96288 29.2376 8.67288 28.8897 8.15081C28.4838 7.68668 28.3097 7.04873 28.0776 6.46873C27.8456 5.83079 27.6718 5.25081 27.2656 4.90289C26.8597 4.61289 26.2214 4.55496 25.5835 4.43876C24.9456 4.38082 24.3077 4.32289 23.7277 4.03289C23.1477 3.74289 22.7418 3.27876 22.2777 2.87289C21.8135 2.40876 21.3497 1.94497 20.8277 1.82873C20.3635 1.71286 19.7835 1.94459 19.1456 2.17666C18.5656 2.40873 17.9277 2.58253 17.2897 2.58253C16.6518 2.58253 16.0139 2.35046 15.4339 2.17666C14.796 1.94459 14.216 1.77079 13.7518 1.82873C13.2298 1.94459 12.8239 2.40873 12.3018 2.87289C11.8377 3.33703 11.4318 3.74289 10.8518 4.03289C10.2718 4.32289 9.6339 4.38083 8.99598 4.43876C8.30012 4.4967 7.72015 4.55463 7.3139 4.90289C6.90803 5.19289 6.7339 5.83081 6.50184 6.46873C6.3277 7.04873 6.09597 7.68664 5.68977 8.15081C5.2839 8.61494 4.76185 8.96288 4.23977 9.31081C3.65977 9.65874 3.13769 10.0067 2.9056 10.4708C2.67354 10.9349 2.78974 11.515 2.84767 12.2108C2.9056 12.8487 3.0218 13.4866 2.84767 14.125C2.7318 14.705 2.38353 15.285 2.0356 15.8071C1.68767 16.3871 1.33973 16.9091 1.33973 17.4312C1.33973 17.9533 1.68767 18.4754 2.0356 19.0554C2.38353 19.5775 2.73147 20.0996 2.84767 20.7375C2.96354 21.3754 2.9056 22.0133 2.84767 22.6516C2.78973 23.2896 2.67354 23.9275 2.9056 24.3916C3.13767 24.8558 3.65974 25.2037 4.23977 25.5516C4.76183 25.8996 5.34185 26.1896 5.68977 26.7116C6.09564 27.1758 6.26977 27.8137 6.50184 28.3937C6.7339 29.0317 6.9077 29.6116 7.3139 29.9596C7.71977 30.2496 8.35807 30.3075 8.99598 30.4237C9.63392 30.4816 10.2718 30.5396 10.8518 30.8296C11.4318 31.1196 11.8377 31.5837 12.3018 31.9896C12.766 32.4537 13.2297 32.9175 13.7518 33.0337C14.216 33.1496 14.796 32.9179 15.4339 32.6858C16.0139 32.512 16.6518 32.2799 17.2897 32.2799Z" fill="#1FC28F"/>
</svg>
