<svg width="10" height="16" viewBox="0 0 10 16" fill="#d88585" xmlns="http://www.w3.org/2000/svg">
<path d="M8.65193 0.000117845H8.31218L7.37015 2.44098C7.29327 2.63998 7.10199 2.77094 6.88907 2.77094H3.11216C2.89866 2.77094 2.70795 2.63997 2.63108 2.44098L1.68861 0.000117845H1.34886C0.605267 0.000117845 0 0.605502 0 1.34898V14.1196C0 14.863 0.605267 15.4683 1.34886 15.4683H8.65137C9.39485 15.4683 10.0002 14.863 10.0002 14.1195V1.34886C10.0007 0.605384 9.39544 0 8.65181 0L8.65193 0.000117845ZM6.17653 13.5586H3.82382C3.5392 13.5586 3.30821 13.3281 3.30821 13.043C3.30821 12.7579 3.5392 12.5274 3.82382 12.5274H6.17653C6.46115 12.5274 6.69214 12.7579 6.69214 13.043C6.69214 13.3282 6.46115 13.5586 6.17653 13.5586Z" fill="#f0575d"/>
<path d="M6.53536 1.73973L7.20668 0H2.79395L3.46527 1.73973H6.53536Z" fill="#f0575d"/>
</svg>
