<svg width="19" height="31" viewBox="0 0 19 31" fill="none" xmlns="http://www.w3.org/2000/svg">
<path d="M18.6432 12.1862C18.4993 11.9702 18.2831 11.8623 18.0312 11.8623H10.2192V0.702254C10.2192 0.378312 10.0033 0.0902863 9.64317 0.0181899C9.31922 -0.0538808 8.99529 0.0902607 8.85116 0.414203L0.319166 18.0542C0.211185 18.2702 0.211185 18.5223 0.355075 18.7383C0.498966 18.9542 0.715178 19.0622 0.967043 19.0622L8.77904 19.0625V30.2225C8.77904 30.5464 8.995 30.8344 9.3551 30.9065C9.39101 30.9065 9.46308 30.9424 9.49899 30.9424C9.78702 30.9424 10.0389 30.7985 10.1469 30.5464L18.6789 12.9064C18.7871 12.6543 18.7512 12.4022 18.643 12.1862L18.6432 12.1862ZM10.2192 27.0902V18.3422C10.2192 17.9462 9.89525 17.6223 9.49926 17.6223H2.11926L8.77926 3.83426V12.5823C8.77926 12.9783 9.1032 13.3022 9.49919 13.3022H16.8792L10.2192 27.0902Z" fill="#7B7B7B"/>
</svg>
