<svg width="15" height="18" viewBox="0 0 15 18" fill="none" xmlns="http://www.w3.org/2000/svg">
<path d="M12.0604 4.34581C12.0604 6.68564 10.1544 8.59162 7.81456 8.59162C5.47473 8.59162 3.56875 6.68564 3.56875 4.34581C3.56875 2.00608 5.47473 0.1 7.81456 0.1C10.1544 0.1 12.0604 2.00608 12.0604 4.34581ZM10.58 4.34584C10.58 2.82263 9.33767 1.58038 7.81456 1.58038C6.29149 1.58038 5.04909 2.82262 5.04909 4.34584C5.04909 5.86906 6.29145 7.11131 7.81456 7.11131C9.33778 7.11131 10.58 5.86895 10.58 4.34584Z" fill="#1FC28F" stroke="white" stroke-width="0.2"/>
<path d="M6.90619 9.25549H8.7218H8.72187C12.1433 9.25549 14.8991 12.0113 14.8988 15.4328V17.0359C14.8988 17.4264 14.5752 17.7664 14.1683 17.7664C13.7778 17.7664 13.4379 17.4427 13.4379 17.0359V15.4328C13.4379 12.8278 11.3068 10.7166 8.72167 10.7166H6.90605C4.30108 10.7166 2.18983 12.8476 2.18983 15.4328V17.0359C2.18983 17.4249 1.84835 17.7664 1.45937 17.7664C1.06887 17.7664 0.728906 17.4427 0.728906 17.0359V15.4328C0.728906 12.0305 3.48497 9.25549 6.90619 9.25549Z" fill="#1FC28F" stroke="white" stroke-width="0.2"/>
</svg>
