<svg width="21" height="21" viewBox="0 0 21 21" fill="none" xmlns="http://www.w3.org/2000/svg">
<circle cx="10.5" cy="10.5" r="10" fill="white" stroke="#7B7B7B"/>
<path d="M9.472 12.112C9.472 11.7387 9.53067 11.408 9.648 11.12C9.776 10.832 9.93067 10.576 10.112 10.352C10.304 10.128 10.5067 9.92 10.72 9.728C10.9333 9.536 11.1307 9.35467 11.312 9.184C11.504 9.00267 11.6587 8.816 11.776 8.624C11.904 8.432 11.968 8.21867 11.968 7.984C11.968 7.6 11.808 7.29067 11.488 7.056C11.1787 6.82133 10.7627 6.704 10.24 6.704C9.73867 6.704 9.29067 6.81067 8.896 7.024C8.50133 7.22667 8.176 7.51467 7.92 7.888L5.984 6.752C6.41067 6.10133 7.00267 5.584 7.76 5.2C8.51733 4.80533 9.43467 4.608 10.512 4.608C11.312 4.608 12.016 4.72533 12.624 4.96C13.232 5.184 13.7067 5.51467 14.048 5.952C14.4 6.38933 14.576 6.928 14.576 7.568C14.576 7.984 14.512 8.352 14.384 8.672C14.256 8.992 14.0907 9.26933 13.888 9.504C13.6853 9.73867 13.4667 9.95733 13.232 10.16C13.008 10.3627 12.7947 10.56 12.592 10.752C12.3893 10.944 12.2187 11.1467 12.08 11.36C11.952 11.5733 11.888 11.824 11.888 12.112H9.472ZM10.688 16.128C10.24 16.128 9.872 15.984 9.584 15.696C9.296 15.408 9.152 15.0667 9.152 14.672C9.152 14.2667 9.296 13.9307 9.584 13.664C9.872 13.3867 10.24 13.248 10.688 13.248C11.1467 13.248 11.5147 13.3867 11.792 13.664C12.08 13.9307 12.224 14.2667 12.224 14.672C12.224 15.0667 12.08 15.408 11.792 15.696C11.5147 15.984 11.1467 16.128 10.688 16.128Z" fill="#7B7B7B"/>
</svg>
