<svg width="24" height="21" viewBox="0 0 24 21" fill="none" xmlns="http://www.w3.org/2000/svg">
<path d="M8.14105 6.15833L11.3106 0.924137H11.3114L11.4573 0.682632C11.5189 0.580602 11.6488 0.5 11.8096 0.5C11.9705 0.5 12.1004 0.580606 12.162 0.68263L12.1623 0.683128L15.4778 6.15833L15.478 6.15863C15.6355 6.41829 15.8984 6.59217 16.1918 6.64694C16.1921 6.64698 16.1923 6.64702 16.1925 6.64707L22.8075 7.89154C22.8076 7.89155 22.8076 7.89156 22.8077 7.89157C22.9634 7.92097 23.0666 8.02052 23.1026 8.12419L23.1029 8.12506C23.1378 8.22487 23.1164 8.34059 23.0264 8.43189L18.4596 13.0597L18.4593 13.0601C18.2457 13.277 18.1371 13.5783 18.1746 13.8862L18.1747 13.8873L18.9485 20.1314L18.9486 20.1314C18.9611 20.2327 18.9165 20.3483 18.8009 20.4264L18.8008 20.4265C18.6819 20.507 18.5178 20.5241 18.3777 20.4644L12.2395 17.8498C11.9658 17.733 11.6531 17.733 11.3794 17.8498L5.24124 20.4644C5.10111 20.5241 4.937 20.507 4.81805 20.4265L4.81797 20.4265C4.7024 20.3483 4.65778 20.2327 4.67034 20.1314L4.67035 20.1314L5.44417 13.8873L5.4443 13.8862C5.48181 13.5783 5.37318 13.277 5.15964 13.0601L5.15927 13.0597L0.592464 8.4319C0.59243 8.43186 0.592396 8.43183 0.592362 8.4318C0.502521 8.34049 0.481082 8.22483 0.515964 8.12506L0.516251 8.12423C0.552305 8.02052 0.655494 7.92097 0.811192 7.89157C0.811245 7.89156 0.811298 7.89155 0.811351 7.89154L7.42637 6.64707C7.42662 6.64702 7.42687 6.64697 7.42711 6.64693C7.72047 6.59214 7.98339 6.41829 8.14087 6.15863L8.14105 6.15833Z" stroke="#FFC90B"/>
</svg>
