<svg width="18" height="16" viewBox="0 0 18 16" fill="none" xmlns="http://www.w3.org/2000/svg">
<path d="M13.2441 12.5186H13.244H3.87039C3.57422 12.5186 3.33437 12.2785 3.33437 11.9826C3.33437 11.6866 3.57422 11.4465 3.87039 11.4465L13.2438 11.4465L13.244 11.4465M13.2441 12.5186L15.6622 10.5934C15.0207 11.2348 14.1511 11.5956 13.244 11.5965V11.4465M13.2441 12.5186C14.3957 12.5175 15.4997 12.0595 16.314 11.2453L16.314 11.2452C17.1281 10.4309 17.5862 9.32696 17.5873 8.17543V8.17528V8.01727C17.5873 7.87514 17.5308 7.73876 17.4303 7.63826C17.3298 7.53778 17.1936 7.48126 17.0513 7.48126C16.7553 7.48126 16.5153 7.72127 16.5153 8.01727V8.17513C16.5144 9.04248 16.1695 9.87398 15.5561 10.4874M13.2441 12.5186L15.5561 10.4874M13.244 11.4465C14.1113 11.4456 14.9428 11.1006 15.5561 10.4874M13.244 11.4465L15.5561 10.4874" fill="#1FC28F" stroke="#1FC28F" stroke-width="0.3"/>
<path d="M14.5086 0.864223V0.750924L14.7647 1.00693L17.175 3.41685V3.41586L17.4313 3.67299C17.6399 3.88237 17.6399 4.22112 17.4313 4.4305L17.4311 4.4307L14.7647 7.09656L14.7647 7.09662L14.6586 6.99055C14.508 7.14127 14.2638 7.1414 14.1131 6.99081L14.5086 0.864223ZM14.5086 0.864223C14.3342 0.823281 14.1432 0.870728 14.0071 1.00659L14.0071 1.00663C13.7978 1.21575 13.7976 1.55491 14.0068 1.76424L14.0068 1.76428L16.294 4.05145L14.0068 6.33929L14.0067 6.33932C13.7976 6.54863 13.7977 6.88796 14.0072 7.09698H14.0072L14.5086 0.864223Z" fill="#1FC28F" stroke="#1FC28F" stroke-width="0.3"/>
<path d="M3.92918 15.284V15.1707C4.10359 15.2117 4.29454 15.1642 4.43063 15.0284L4.43067 15.0283C4.63998 14.8192 4.64019 14.4801 4.43103 14.2707L4.431 14.2707L2.14381 11.9828L4.43098 9.69564L4.43103 9.6956C4.64014 9.48631 4.64003 9.14701 4.43067 8.93799C4.22136 8.72886 3.88224 8.72903 3.67312 8.93829C3.6731 8.93831 3.67308 8.93833 3.67306 8.93835L1.00669 11.6042L1.00649 11.6044C0.797839 11.8138 0.797834 12.1525 1.00649 12.3619L1.00649 12.3619L1.00669 12.3621L3.67312 15.028L3.92918 15.284Z" fill="#1FC28F" stroke="#1FC28F" stroke-width="0.3"/>
<path d="M5.19325 3.51583L5.19309 3.51583C4.04157 3.51707 2.93771 3.97508 2.12342 4.78923L2.1234 4.78925C1.30925 5.60355 0.85123 6.7074 0.85 7.85892V7.85908V8.01763C0.85 8.31362 1.09002 8.55364 1.38601 8.55364C1.68201 8.55364 1.92203 8.31362 1.92203 8.01763V7.85916C1.92307 6.99183 2.26809 6.16035 2.88129 5.54712C3.49463 4.93391 4.32611 4.58889 5.19332 4.58786H14.5669C14.863 4.58786 15.1029 4.34781 15.1029 4.05185C15.1029 3.75571 14.863 3.51583 14.5669 3.51583L5.19325 3.51583Z" fill="#1FC28F" stroke="#1FC28F" stroke-width="0.3"/>
</svg>
