<svg width="31" height="31" viewBox="0 0 31 31" fill="none" xmlns="http://www.w3.org/2000/svg">
<path d="M27.5126 23.2332H25.5751V6.57068C25.5739 5.54329 25.1653 4.55829 24.4389 3.83187C23.7125 3.10545 22.7275 2.69687 21.7001 2.69568H6.9751C5.94771 2.69689 4.96271 3.10549 4.23629 3.83187C3.50987 4.55825 3.10129 5.54329 3.1001 6.57068C3.1001 6.67343 3.14092 6.77204 3.21358 6.8447C3.28624 6.91735 3.38484 6.95818 3.4876 6.95818H10.0751V13.1768C10.0751 13.3908 10.2486 13.5643 10.4626 13.5643C10.6766 13.5643 10.8501 13.3908 10.8501 13.1768V6.57068C10.8489 5.34884 10.2706 4.19949 9.29005 3.47068H21.7002C22.5221 3.47154 23.3101 3.79849 23.8912 4.37973C24.4724 4.9608 24.7994 5.74878 24.8002 6.57068V23.2332H17.4377C17.2237 23.2332 17.0502 23.4067 17.0502 23.6207C17.0508 24.5541 16.6306 25.4381 15.9064 26.0272C15.1821 26.6162 14.2312 26.8475 13.3173 26.6569C12.4035 26.4664 11.6242 25.8741 11.1959 25.0448C11.0974 24.8547 10.8636 24.7804 10.6736 24.8789C10.4835 24.9773 10.4093 25.2112 10.5077 25.4013C10.8333 26.0333 11.327 26.5631 11.9344 26.9326C12.5418 27.3023 13.2393 27.4971 13.9503 27.4957H24.0253C25.0527 27.4945 26.0377 27.0859 26.7641 26.3595C27.4905 25.6331 27.8991 24.6481 27.9003 23.6207C27.9003 23.518 27.8594 23.4194 27.7868 23.3467C27.7141 23.274 27.6155 23.2332 27.5128 23.2332L27.5126 23.2332ZM10.0507 6.18318H3.89901C4.02564 5.1755 4.63805 4.29377 5.53812 3.82288C6.438 3.35217 7.51158 3.35217 8.41151 3.82288C9.31157 4.29377 9.92377 5.1755 10.0506 6.18318H10.0507ZM24.0251 26.7207H16.2711C17.1395 26.0711 17.6962 25.0873 17.8055 24.0082H27.1007C27.0053 24.7569 26.6407 25.4454 26.0745 25.9447C25.5084 26.4439 24.7798 26.7198 24.0251 26.7207H24.0251Z" fill="#1FC28F"/>
<path d="M13.95 12.9306H21.7C21.914 12.9306 22.0875 12.7571 22.0875 12.5431C22.0875 12.3291 21.914 12.1556 21.7 12.1556H13.95C13.736 12.1556 13.5625 12.3291 13.5625 12.5431C13.5625 12.7571 13.736 12.9306 13.95 12.9306Z" fill="#1FC28F"/>
<path d="M21.7001 14.7387H15.1126C14.8986 14.7387 14.7251 14.9122 14.7251 15.1262C14.7251 15.3402 14.8986 15.5137 15.1126 15.5137H21.7001C21.9141 15.5137 22.0876 15.3402 22.0876 15.1262C22.0876 14.9122 21.9141 14.7387 21.7001 14.7387Z" fill="#1FC28F"/>
<path d="M21.7001 17.3219H16.6626C16.4487 17.3219 16.2751 17.4954 16.2751 17.7094C16.2751 17.9234 16.4487 18.0969 16.6626 18.0969H21.7001C21.9141 18.0969 22.0876 17.9234 22.0876 17.7094C22.0876 17.4954 21.9141 17.3219 21.7001 17.3219Z" fill="#1FC28F"/>
<path d="M21.7001 19.9056H16.6626C16.4487 19.9056 16.2751 20.0791 16.2751 20.2931C16.2751 20.5071 16.4487 20.6806 16.6626 20.6806H21.7001C21.9141 20.6806 22.0876 20.5071 22.0876 20.2931C22.0876 20.0791 21.9141 19.9056 21.7001 19.9056Z" fill="#1FC28F"/>
<path d="M13.95 7.76371H21.7C21.914 7.76371 22.0875 7.5902 22.0875 7.37621C22.0875 7.16222 21.914 6.98871 21.7 6.98871H13.95C13.736 6.98871 13.5625 7.16222 13.5625 7.37621C13.5625 7.5902 13.736 7.76371 13.95 7.76371Z" fill="#1FC28F"/>
<path d="M13.95 10.3469H21.7C21.914 10.3469 22.0875 10.1734 22.0875 9.9594C22.0875 9.74541 21.914 9.5719 21.7 9.5719H13.95C13.736 9.5719 13.5625 9.74541 13.5625 9.9594C13.5625 10.1734 13.736 10.3469 13.95 10.3469Z" fill="#1FC28F"/>
<path d="M15.5 19.2329C15.5 17.8969 14.9693 16.6157 14.0246 15.671C13.0799 14.7261 11.7986 14.1954 10.4625 14.1954C9.12654 14.1954 7.84517 14.7261 6.90047 15.671C5.95577 16.6157 5.42505 17.8969 5.42505 19.2329C5.42505 20.5691 5.95577 21.8502 6.90047 22.795C7.84517 23.7397 9.12654 24.2704 10.4625 24.2704C11.7982 24.269 13.0787 23.7379 14.023 22.7934C14.9674 21.849 15.4986 20.5685 15.5 19.2329ZM10.4625 23.4954C9.33207 23.4954 8.24791 23.0463 7.44851 22.247C6.64911 21.4476 6.20005 20.3634 6.20005 19.2329C6.20005 18.1026 6.64915 17.0182 7.44851 16.2188C8.24791 15.4194 9.33202 14.9704 10.4625 14.9704C11.5931 14.9704 12.6772 15.4195 13.4766 16.2188C14.276 17.0182 14.725 18.1025 14.725 19.2329C14.7237 20.363 14.2742 21.4464 13.4752 22.2455C12.6759 23.0445 11.5927 23.4941 10.4625 23.4954Z" fill="#1FC28F"/>
<path d="M9.941 17.6696H10.9842C11.323 17.6561 11.6093 17.9187 11.6251 18.2574C11.6251 18.4716 11.7986 18.6449 12.0126 18.6449C12.2266 18.6449 12.4001 18.4716 12.4001 18.2574C12.3925 17.8891 12.2392 17.539 11.9737 17.2835C11.7083 17.028 11.3525 16.8882 10.9842 16.8946H10.8501V16.1327C10.8501 15.9188 10.6766 15.7452 10.4626 15.7452C10.2486 15.7452 10.0751 15.9188 10.0751 16.1327V16.8946H9.94103C9.56979 16.8794 9.20841 17.016 8.94026 17.2733C8.67229 17.5305 8.52075 17.886 8.52075 18.2574C8.52075 18.629 8.67229 18.9845 8.94026 19.2418C9.20839 19.499 9.56978 19.6357 9.94103 19.6203H10.9842C11.1492 19.6057 11.3127 19.6609 11.4348 19.7728C11.5571 19.8846 11.6267 20.0425 11.6267 20.2083C11.6267 20.3738 11.5571 20.5318 11.4348 20.6437C11.3127 20.7554 11.1492 20.8108 10.9842 20.7961H9.94103C9.60214 20.8096 9.31584 20.547 9.30008 20.2083C9.30008 19.9941 9.12657 19.8208 8.91258 19.8208C8.69859 19.8208 8.52508 19.9941 8.52508 20.2083C8.53269 20.5766 8.68596 20.9267 8.9515 21.1822C9.21687 21.4377 9.5727 21.5775 9.94102 21.5711H10.0751V22.3329V22.3328C10.0751 22.5469 10.2486 22.7203 10.4626 22.7203C10.6766 22.7203 10.8501 22.5469 10.8501 22.3328V21.5711H10.9842C11.3554 21.5863 11.7168 21.4497 11.9849 21.1924C12.2529 20.9352 12.4044 20.5797 12.4044 20.2083C12.4044 19.8367 12.2529 19.4812 11.9849 19.2239C11.7168 18.9667 11.3554 18.83 10.9842 18.8452H9.941C9.77597 18.8599 9.61249 18.8048 9.49035 18.6928C9.36805 18.5811 9.29851 18.4231 9.29851 18.2574C9.29851 18.0919 9.36805 17.9339 9.49035 17.822C9.61248 17.7103 9.77596 17.6549 9.941 17.6696V17.6696Z" fill="#1FC28F"/>
</svg>
