<svg width="19" height="19" viewBox="0 0 19 19" fill="none" xmlns="http://www.w3.org/2000/svg">
<path d="M17.9445 8.44484H1.05549C0.472507 8.44484 0 8.91737 0 9.50036C0 10.0834 0.472507 10.5559 1.05549 10.5559H17.9445C18.5275 10.5559 19 10.0834 19 9.50036C19 8.91737 18.5275 8.44484 17.9445 8.44484ZM10.2464 1.80192C10.6587 1.38964 10.6587 0.721292 10.2464 0.309209C9.83416 -0.10307 9.16583 -0.10307 8.75358 0.309209L0.309516 8.75355C-0.102749 9.16583 -0.102749 9.83418 0.309516 10.2464L8.75358 18.6908C9.16584 19.1031 9.83417 19.1031 10.2464 18.6908C10.6587 18.2787 10.6587 17.6103 10.2464 17.1981L2.54833 9.49973L10.2464 1.80192Z" fill="#7B7B7B"/>
</svg>
