<svg width="16" height="9" viewBox="0 0 16 9" fill="none" xmlns="http://www.w3.org/2000/svg">
<path d="M14.1078 0.571082L10.2895 4.24581L4.50958 3.76463L4.41457 3.87849C4.40699 3.88752 4.40699 3.88752 4.37086 3.93079C4.32134 3.99 4.32134 3.99 4.24708 4.07877C4.1137 4.23824 3.96494 4.4159 3.80458 4.60725C3.34635 5.15381 2.88689 5.70045 2.45633 6.21052C2.44038 6.22948 2.44038 6.22948 2.42444 6.24833C1.36604 7.50188 0.539025 8.46193 0.5 8.48779L0.816257 8.96329C0.931341 8.88668 1.57079 8.14441 2.86068 6.61666C2.87663 6.5977 2.87663 6.5977 2.89258 6.57885C3.32371 6.0681 3.78359 5.521 4.24214 4.9739C4.40261 4.78243 4.55149 4.60466 4.68498 4.4451C4.72323 4.39927 4.74185 4.37708 4.75769 4.35823L10.4993 4.8363L14.6574 0.834408V2.92277H15.2283V0H12.3056V0.570964L14.1078 0.571082Z" fill="#1FC28F"/>
</svg>
