<svg width="31" height="31" viewBox="0 0 31 31" fill="none" xmlns="http://www.w3.org/2000/svg">
<path d="M30.5638 28.4678L22.5508 20.4548V20.4551C24.546 17.9254 25.4994 14.7289 25.2156 11.5198C24.932 8.31073 23.4327 5.33118 21.0245 3.19062C18.6165 1.05031 15.4817 -0.0892098 12.2611 0.00545948C9.04062 0.100162 5.97798 1.42161 3.6999 3.69987C1.42163 5.97786 0.100133 9.04048 0.00546332 12.2609C-0.0892397 15.4814 1.05026 18.616 3.19065 21.0243C5.33097 23.4325 8.31054 24.9317 11.5199 25.2154C14.7293 25.4992 17.9257 24.5458 20.4552 22.5506L28.4683 30.5635H28.468C28.7452 30.843 29.1224 31 29.5159 31C29.9094 31 30.2864 30.843 30.5635 30.5635C30.843 30.2864 31 29.9094 31 29.5159C31 29.1224 30.843 28.7452 30.5635 28.468L30.5638 28.4678ZM2.95335 12.6336C2.95154 9.42476 4.54014 6.42335 7.19492 4.62061C9.84944 2.81768 13.225 2.44737 16.2073 3.63189C19.1898 4.8164 21.3913 7.40173 22.0854 10.5348C22.7797 13.6677 21.8762 16.9411 19.6731 19.2744C19.4955 19.3531 19.3534 19.4952 19.2747 19.6728C17.4308 21.4111 14.9791 22.3571 12.4455 22.3077C9.91196 22.2585 7.49883 21.2176 5.72375 19.409C3.94907 17.6001 2.95421 15.1677 2.95315 12.6339L2.95335 12.6336Z" fill="#7B7B7B"/>
</svg>
