<svg width="34" height="39" viewBox="0 0 34 39" fill="none" xmlns="http://www.w3.org/2000/svg">
<path d="M17.0029 2.40733L31.4693 7.83233V14.6665C31.4606 19.2372 30.0761 23.6999 27.4957 27.473C24.9153 31.246 21.259 34.1547 17.0026 35.8205C12.7463 34.1546 9.09003 31.246 6.50959 27.473C3.92923 23.7001 2.5446 19.2377 2.53601 14.6665V7.83233L17.0024 2.40733H17.0029ZM17.0024 0.199951L0.46875 6.39995V14.6665C0.471864 19.7915 2.06339 24.7893 5.02433 28.9726C7.98492 33.1558 12.1699 36.3181 17.0018 38.0246C21.8342 36.3178 26.0193 33.1555 28.9794 28.9726C31.9403 24.7893 33.5318 19.7912 33.5349 14.6665V6.39995L17.0024 0.199951ZM21.3631 17.5042L19.0212 20.974C18.687 21.428 18.4849 21.9656 18.4379 22.5275V23.3911H15.5669V22.3843C15.5333 21.3466 15.8814 20.3326 16.5454 19.534L18.9167 16.151V16.1514C19.4485 15.5414 19.7623 14.772 19.8089 13.9641C19.8397 13.2019 19.5543 12.4608 19.0201 11.9159C18.4863 11.371 17.7511 11.0707 16.9882 11.0859C16.2222 11.0679 15.4835 11.3727 14.9525 11.9256C14.4217 12.4785 14.1474 13.2286 14.1962 13.9936H11.2598C11.238 12.4858 11.8414 11.0361 12.9264 9.98916C14.0117 8.94189 15.4821 8.39107 16.9882 8.46679C18.4957 8.37719 19.9722 8.91865 21.0642 9.96144C22.1562 11.0042 22.7651 12.4545 22.7451 13.9641C22.6883 15.2647 22.2022 16.5091 21.3632 17.5042L21.3631 17.5042ZM15.5669 29.1336V26.2623H18.4382L18.4379 29.1336H15.5669Z" fill="#1FC28F"/>
</svg>
