<svg width="16" height="19" viewBox="0 0 16 19" fill="none" xmlns="http://www.w3.org/2000/svg">
<path d="M6.83389 9.55298L5.13806 7.85714L4.21484 8.78036L6.83389 11.3994L12.072 6.16131L11.1488 5.2381L6.83389 9.55298Z" fill="#7B7B7B"/>
<path d="M8.1423 18.3333L4.09849 16.1772C2.94567 15.5639 1.98163 14.6482 1.30981 13.5285C0.637994 12.4088 0.283773 11.1272 0.28516 9.82142V1.30952C0.285507 0.962322 0.423586 0.629441 0.669094 0.383933C0.914602 0.138425 1.24748 0.000346681 1.59468 0H14.6899C15.0371 0.000346681 15.37 0.138425 15.6155 0.383933C15.861 0.629441 15.9991 0.962322 15.9994 1.30952V9.82142C16.0008 11.1272 15.6466 12.4088 14.9748 13.5285C14.303 14.6482 13.3389 15.5639 12.1861 16.1772L8.1423 18.3333ZM1.59468 1.30952V9.82142C1.5936 10.8899 1.8835 11.9384 2.43328 12.8546C2.98306 13.7707 3.77195 14.5198 4.71528 15.0215L8.1423 16.849L11.5693 15.0222C12.5127 14.5204 13.3017 13.7712 13.8515 12.8549C14.4013 11.9387 14.6911 10.89 14.6899 9.82142V1.30952H1.59468Z" fill="#7B7B7B"/>
</svg>
