<svg width="40" height="40" viewBox="0 0 40 40" fill="none" xmlns="http://www.w3.org/2000/svg">
<rect width="40" height="40" rx="6" fill="#1FC28F"/>
<path d="M7.69499 17.5259C7.54412 17.6883 7.47527 17.9106 7.50799 18.1298C7.5407 18.349 7.67139 18.5413 7.86312 18.6527L15.5525 23.1027L23.8239 17.0113L17.7345 25.2865L22.1802 32.9677C22.2744 33.1316 22.4285 33.2524 22.6101 33.3048C22.7916 33.3572 22.9864 33.337 23.1534 33.2486C23.3204 33.1602 23.4467 33.0104 23.5055 32.8309L30.7969 10.9567C30.8534 10.785 30.8439 10.5985 30.7705 10.4333C30.6973 10.2682 30.5651 10.136 30.3999 10.0628C30.2347 9.98941 30.0482 9.97997 29.8765 10.0364L7.99932 17.3273C7.88246 17.3665 7.77748 17.4347 7.69431 17.5255L7.69499 17.5259Z" fill="white"/>
</svg>
