<svg width="16" height="16" viewBox="0 0 16 16" fill="none" xmlns="http://www.w3.org/2000/svg">
<path d="M14.9833 6.1447H13.5045C13.3914 6.14679 13.2805 6.11406 13.1867 6.05113C13.0928 5.98809 13.0206 5.89771 12.9799 5.79235C12.9337 5.6893 12.9208 5.57446 12.9428 5.46379C12.965 5.35303 13.021 5.25196 13.1031 5.17448L14.149 4.12857H14.1491C14.301 3.97637 14.3863 3.77005 14.3863 3.55503C14.3863 3.34 14.301 3.13367 14.1491 2.98148L12.8155 1.6479C12.6608 1.49966 12.4548 1.41678 12.2404 1.41678C12.0261 1.41678 11.8201 1.49966 11.6653 1.6479L10.6193 2.69392C10.5132 2.79994 10.3691 2.85946 10.219 2.85935C10.0689 2.85924 9.92494 2.79939 9.81903 2.69304C9.713 2.5868 9.65359 2.44275 9.65393 2.29265V0.816891C9.65437 0.600652 9.56884 0.393109 9.4162 0.239933C9.26366 0.0867369 9.05646 0.000440146 8.84023 0H6.95206C6.73582 0 6.5285 0.0858566 6.37564 0.23883C6.22266 0.391696 6.13681 0.599016 6.13681 0.815251V2.29265C6.13714 2.44275 6.07773 2.58681 5.97171 2.69304C5.86579 2.79939 5.72185 2.85924 5.57174 2.85935C5.42163 2.85946 5.27757 2.79994 5.17143 2.69392L4.12541 1.64789C3.97067 1.49966 3.76469 1.41678 3.55031 1.41678C3.33595 1.41678 3.12997 1.49966 2.97522 1.64789L1.64163 2.98148C1.48976 3.13368 1.40446 3.34 1.40446 3.55502C1.40446 3.77005 1.48976 3.97638 1.64163 4.12857L2.68602 5.17614C2.79259 5.2825 2.85244 5.42688 2.85244 5.57732C2.85244 5.72787 2.79259 5.87225 2.68613 5.97873C2.57966 6.08508 2.43529 6.14482 2.28472 6.14471H0.815256C0.600341 6.14427 0.393901 6.22891 0.241148 6.38024C0.0883919 6.53145 0.00165506 6.73709 1.69158e-06 6.95203V8.84813C-0.000439159 9.06448 0.0853055 9.27199 0.238281 9.42508C0.391367 9.57806 0.59889 9.6638 0.815239 9.66336H2.29263C2.4056 9.66127 2.51648 9.69389 2.61038 9.75694C2.70417 9.81998 2.77636 9.91024 2.81714 10.0157C2.86023 10.1183 2.8707 10.2317 2.84723 10.3405C2.82376 10.4493 2.76755 10.5483 2.68599 10.624L1.64008 11.6699V11.67C1.48821 11.8222 1.4029 12.0285 1.4029 12.2436C1.4029 12.4586 1.48821 12.6648 1.64008 12.8171L2.97367 14.1507L2.97356 14.1506C3.12829 14.2989 3.33439 14.3817 3.54876 14.3817C3.76302 14.3817 3.9691 14.2989 4.12386 14.1506L5.16977 13.1047C5.27601 12.9985 5.42006 12.939 5.57016 12.9392C5.72027 12.9393 5.8641 12.9992 5.97013 13.1054C6.07615 13.2118 6.13545 13.3558 6.13523 13.5059V14.9832C6.13479 15.2 6.22075 15.4081 6.37395 15.5613C6.52725 15.7146 6.73535 15.8006 6.95201 15.8001H8.8481C9.06434 15.8001 9.27166 15.7142 9.42453 15.5613C9.5775 15.4084 9.66335 15.2011 9.66335 14.9849V13.5059C9.66126 13.3934 9.69355 13.2827 9.75593 13.1891C9.81831 13.0953 9.9078 13.0229 10.0125 12.9814C10.1156 12.9352 10.2304 12.9222 10.3411 12.9444C10.4518 12.9664 10.5529 13.0224 10.6304 13.1046L11.6763 14.1505C11.831 14.2989 12.0371 14.3817 12.2514 14.3817C12.4657 14.3817 12.6718 14.2989 12.8266 14.1505L14.1602 12.817L14.1601 12.8171C14.3119 12.6648 14.3972 12.4586 14.3972 12.2435C14.3972 12.0285 14.3119 11.8222 14.1601 11.67L13.1142 10.624C13.0076 10.5176 12.9477 10.3732 12.9477 10.2228C12.9477 10.0722 13.0076 9.92786 13.114 9.82137C13.2205 9.71502 13.3649 9.65528 13.5155 9.65539H14.9927C15.2062 9.65341 15.4104 9.56766 15.5614 9.41667C15.7124 9.26568 15.798 9.06157 15.8001 8.8481V6.952C15.7973 6.73719 15.71 6.53208 15.5571 6.381C15.4043 6.23 15.1982 6.14503 14.9832 6.1447L14.9833 6.1447ZM7.90007 9.95422C7.35528 9.95422 6.83289 9.73776 6.44768 9.35257C6.06249 8.96739 5.84603 8.44497 5.84603 7.90017C5.84603 7.35538 6.06249 6.83299 6.44768 6.44778C6.83286 6.06259 7.35528 5.84613 7.90007 5.84613C8.44487 5.84613 8.96726 6.06259 9.35247 6.44778C9.73765 6.83296 9.95411 7.35538 9.95411 7.90017C9.95411 8.44497 9.73765 8.96736 9.35247 9.35257C8.96728 9.73775 8.44487 9.95422 7.90007 9.95422Z" fill="#1FC28F"/>
</svg>
