<svg width="20" height="20" viewBox="0 0 20 20" fill="none" xmlns="http://www.w3.org/2000/svg">
<path d="M7.96007 14.52C7.20004 14.52 6.44011 14.2201 5.86003 13.64C4.70004 12.48 4.70004 10.5999 5.86003 9.41997L10.8 4.47997L3.48004 4.4801C1.55996 4.4801 0 6.0401 0 7.96014V16.0001C0 17.9202 1.56 19.4802 3.48004 19.4802H11.52C13.4401 19.4802 15.0001 17.9202 15.0001 16.0001L14.9999 8.72014L10.0599 13.6601C9.48 14.2401 8.71993 14.5201 7.9599 14.5201L7.96007 14.52Z" fill="#7B7B7B"/>
<path d="M17.9179 0.5H11.5979C10.9978 0.5 10.5179 0.980036 10.5179 1.57993C10.5179 2.17996 10.998 2.65986 11.5979 2.65986H15.3379L7.19787 10.7799C6.77779 11.1999 6.77779 11.8799 7.19787 12.2998C7.39792 12.4999 7.6779 12.6199 7.9579 12.6199C8.23789 12.6199 8.49794 12.5198 8.71794 12.2998L16.8579 4.15982V7.89982C16.8579 8.49986 17.338 8.97975 17.9379 8.97975C18.5379 8.97975 19.0178 8.49971 19.0178 7.89982L19.0177 1.57982C18.9977 0.979929 18.5177 0.499893 17.9178 0.499893L17.9179 0.5Z" fill="#7B7B7B"/>
</svg>
