<svg width="39" height="28" viewBox="0 0 39 28" fill="none" xmlns="http://www.w3.org/2000/svg">
<path d="M33.3846 27.9996H0.987412C0.587961 27.9996 0.2281 27.7472 0.0751768 27.3594C-0.0777203 26.9721 0.00699397 26.5261 0.289369 26.2295L6.17102 20.0518V5.89807C6.17275 4.33409 6.7647 2.83492 7.81742 1.72926C8.87008 0.623613 10.2979 0.00148149 11.7864 0H33.3846C34.8733 0.00144676 36.3009 0.623557 37.3536 1.72926C38.4063 2.83492 38.9982 4.33418 39 5.89807V22.1018C38.9983 23.6654 38.4063 25.1646 37.3536 26.2704C36.3009 27.3764 34.8732 27.9981 33.3846 28L33.3846 27.9996ZM3.37114 25.9257H33.3846C34.3498 25.9243 35.2751 25.521 35.9577 24.8042C36.6405 24.0873 37.0245 23.1155 37.0255 22.1016V5.89781C37.0245 4.88401 36.6405 3.91178 35.9577 3.19493C35.2752 2.47805 34.3499 2.07474 33.3846 2.07372H11.7865C10.8213 2.0748 9.89598 2.47809 9.21339 3.19493C8.53053 3.9118 8.14653 4.88401 8.14556 5.89781V20.4812C8.14556 20.7561 8.04156 21.0197 7.8563 21.2143L3.37114 25.9257Z" fill="#7B7B7B"/>
<path d="M31.8398 8.55513H13.3271C12.7816 8.55513 12.3398 8.09073 12.3398 7.51819C12.3398 6.94527 12.7817 6.48124 13.3271 6.48124H31.8398C32.3852 6.48124 32.827 6.94529 32.827 7.51819C32.827 8.09074 32.3852 8.55513 31.8398 8.55513Z" fill="#7B7B7B"/>
<path d="M31.8398 15.0366H13.3271C12.7816 15.0366 12.3398 14.5722 12.3398 13.9997C12.3398 13.4268 12.7817 12.9627 13.3271 12.9627H31.8398C32.3852 12.9627 32.827 13.4268 32.827 13.9997C32.827 14.5722 32.3852 15.0366 31.8398 15.0366Z" fill="#7B7B7B"/>
<path d="M31.8398 21.5181H13.3271C12.7816 21.5181 12.3398 21.0537 12.3398 20.4812C12.3398 19.9083 12.7817 19.4442 13.3271 19.4442H31.8398C32.3852 19.4442 32.827 19.9083 32.827 20.4812C32.827 21.0537 32.3852 21.5181 31.8398 21.5181Z" fill="#7B7B7B"/>
</svg>
