<svg width="24" height="22" viewBox="0 0 24 22" fill="none" xmlns="http://www.w3.org/2000/svg">
<path fill-rule="evenodd" clip-rule="evenodd" d="M11.1876 1.13369C11.3461 0.877969 11.6447 0.720474 11.968 0.720474C12.2912 0.720474 12.5898 0.877973 12.7484 1.13369L16.0639 6.4679C16.1443 6.59704 16.2821 6.68843 16.4423 6.71747L23.0585 7.93011C23.3757 7.98835 23.6337 8.19641 23.7332 8.47555C23.8334 8.75467 23.7596 9.06079 23.541 9.27704L18.9738 13.7861C18.8635 13.8952 18.8108 14.0426 18.8293 14.1902L19.6031 20.2735C19.6402 20.5648 19.5012 20.8519 19.2393 21.0245C18.9778 21.1968 18.6342 21.2281 18.3401 21.1061L12.2016 18.5587C12.0532 18.497 11.8823 18.497 11.7339 18.5587L5.59541 21.1061C5.30132 21.2281 4.95774 21.1968 4.69622 21.0245C4.43433 20.8519 4.29538 20.5648 4.33247 20.2735L5.10629 14.1902C5.12475 14.0426 5.07203 13.8952 4.9617 13.7861L0.394529 9.27704C0.17594 9.06078 0.102139 8.75468 0.202299 8.47555C0.301896 8.19643 0.559834 7.98835 0.877075 7.93011L7.49325 6.71747C7.65347 6.68843 7.79129 6.59704 7.87168 6.4679L11.1872 1.13369H11.1876Z" fill="#FFC90B"/>
</svg>
