<svg width="145" height="145" viewBox="0 0 145 145" fill="none" xmlns="http://www.w3.org/2000/svg">
<path fill-rule="evenodd" clip-rule="evenodd" d="M72.5 0C112.543 0 145 32.4598 145 72.5C145 112.543 112.54 145 72.5 145C32.4571 145 0 112.54 0 72.5C0 32.4571 32.4598 0 72.5 0ZM36.6086 73.4472C33.9308 70.487 34.1623 65.9182 37.1181 63.2446C40.0783 60.5668 44.6472 60.7983 47.3207 63.7541L65.3801 83.709L104.405 43.3982C107.192 40.5333 111.771 40.4699 114.636 43.2576C117.501 46.0443 117.564 50.6229 114.776 53.4878L70.3951 99.3304L70.3856 99.3209C70.2809 99.4298 70.1678 99.5387 70.0536 99.6391C67.0978 102.317 62.5287 102.09 59.851 99.1295L36.6041 73.4459L36.6086 73.4472Z" fill="#1FC28F"/>
</svg>
