<svg width="52" height="51" viewBox="0 0 52 51" fill="none" xmlns="http://www.w3.org/2000/svg">
<path d="M28.5793 45.352H24.742C23.8356 45.352 23.0627 45.96 22.8209 46.7892C14.9608 45.5939 8.25439 40.1237 5.48862 32.666H4.13379C6.97176 40.8147 14.2191 46.8104 22.7381 48.0613C22.769 49.1377 23.66 50.0032 24.7419 50.0032H28.5791C29.6864 50.0032 30.5828 49.1017 30.5828 47.9944V47.3556C30.5828 46.2533 29.6814 45.3522 28.5791 45.3522L28.5793 45.352Z" fill="#1FC28F"/>
<path d="M18.0522 2.41049L18.0626 2.45181L18.9587 5.05809L18.9637 5.07857C19.1542 5.62972 19.7362 5.92829 20.2927 5.76373C22.183 5.18672 24.1608 4.89318 26.1595 4.89318C28.1579 4.89318 30.1307 5.18672 32.0263 5.76373C32.5724 5.92865 33.144 5.64013 33.3449 5.10443C33.3499 5.0994 33.3499 5.08898 33.3553 5.07857L33.3604 5.05809L34.2668 2.41051L34.37 2.11194C34.4318 1.93697 34.4163 1.74618 34.334 1.58127C34.2464 1.41132 34.1023 1.2827 33.9169 1.22054C31.4235 0.412143 28.8121 0 26.1595 0C23.5069 0 20.8956 0.412106 18.4025 1.22588C18.2171 1.28768 18.0726 1.41127 17.9853 1.58122C17.903 1.74613 17.8876 1.93655 17.9494 2.11188L18.0522 2.41049Z" fill="#1FC28F"/>
<path d="M50.0627 19.7071C49.1976 15.8132 47.3688 12.1559 44.7575 9.11682C42.1821 6.11393 38.9065 3.77025 35.2543 2.30762C35.2493 2.33852 35.2338 2.36942 35.2234 2.40534L34.9662 3.16776L34.3532 4.96022L34.2142 5.36729C34.1628 5.52179 34.0906 5.66586 34.0083 5.79987C40.0551 8.26708 44.583 13.4129 46.2459 19.7069L50.0627 19.7071Z" fill="#1FC28F"/>
<path d="M51.2223 21.4056C51.0883 20.9317 50.7021 20.6123 50.2644 20.6123H46.1128C45.9224 20.6123 45.7676 20.7668 45.7676 20.9576V31.4035C45.7676 31.5939 45.9221 31.7488 46.1128 31.7488H50.2694C50.7074 31.7488 51.0936 31.4347 51.2273 30.9608C52.1392 27.8189 52.1338 24.6047 51.2222 21.4062L51.2223 21.4056Z" fill="#1FC28F"/>
<path d="M4.44821 31.6107C4.68498 31.5285 4.93253 31.5953 5.09708 31.7602H6.2044C6.39482 31.7602 6.54968 31.6057 6.54968 31.4149V20.9644C6.54968 20.774 6.39518 20.6191 6.2044 20.6191H2.05317C1.6152 20.6191 1.22897 20.9386 1.09532 21.4124C0.636863 23.0141 0.410156 24.6162 0.410156 26.2179C0.410156 27.8146 0.636863 29.4012 1.09532 30.977C1.22933 31.4459 1.61556 31.7649 2.05317 31.7649H4.21143C4.27287 31.6931 4.3555 31.6417 4.4482 31.6108L4.44821 31.6107Z" fill="#1FC28F"/>
<path d="M18.3134 5.79957C18.2257 5.66556 18.1589 5.52148 18.1075 5.36699L17.9685 4.95991L17.3501 3.17279L17.0875 2.40534C17.0771 2.37444 17.067 2.34355 17.0566 2.30762C13.4099 3.77025 10.1338 6.11393 7.56358 9.11682C4.95224 12.1611 3.12354 15.8129 2.2583 19.7071H6.06995C7.73852 13.4127 12.2662 8.26695 18.3131 5.8001L18.3134 5.79957Z" fill="#1FC28F"/>
<path d="M40.7192 25.0473C40.7192 17.0172 34.188 10.4863 26.1582 10.4863C18.1283 10.4863 11.5972 17.0175 11.5972 25.0473C11.5972 33.0774 18.1283 39.6083 26.1582 39.6083C27.863 39.6083 29.5319 39.3148 31.1185 38.7378C31.1699 38.7173 31.2216 38.7119 31.273 38.7119C31.3348 38.7119 31.4016 38.7273 31.4584 38.7532L39.5244 42.3896L36.501 35.6989C36.4237 35.529 36.4597 35.3281 36.5887 35.1941C39.2513 32.4592 40.7194 28.8533 40.7194 25.0471L40.7192 25.0473ZM18.8128 26.5204C17.7464 26.5204 16.8813 25.6553 16.8813 24.5889C16.8813 23.5225 17.7465 22.6574 18.8128 22.6574C19.8792 22.6574 20.7444 23.5225 20.7444 24.5889C20.7444 25.6553 19.8788 26.5204 18.8128 26.5204ZM26.1577 26.5204C25.0913 26.5204 24.2262 25.6553 24.2262 24.5889C24.2262 23.5225 25.0913 22.6574 26.1577 22.6574C27.2241 22.6574 28.0892 23.5225 28.0892 24.5889C28.0892 25.6553 27.2241 26.5204 26.1577 26.5204ZM33.5026 26.5204C32.4362 26.5204 31.5711 25.6553 31.5711 24.5889C31.5711 23.5225 32.4362 22.6574 33.5026 22.6574C34.569 22.6574 35.4341 23.5225 35.4341 24.5889C35.4341 25.6553 34.569 26.5204 33.5026 26.5204Z" fill="#1FC28F"/>
</svg>
