<svg width="24" height="26" viewBox="0 0 24 26" fill="none" xmlns="http://www.w3.org/2000/svg">
<path d="M23.1972 3.43657L12.1472 0.0365706C11.9865 -0.0121902 11.815 -0.0121902 11.6543 0.0365706L0.604295 3.43657C0.423478 3.49121 0.266194 3.60429 0.156908 3.75817C0.0476224 3.91204 -0.00720974 4.09798 0.000760832 4.28658V10.6446C0.00929872 13.0016 0.616647 15.3179 1.76604 17.3756C2.91524 19.4332 4.56876 21.1653 6.57121 22.4086L11.4585 25.409C11.5877 25.4835 11.7343 25.5228 11.8835 25.5228C12.0328 25.5228 12.1793 25.4835 12.3085 25.409L17.1957 22.4086C19.2046 21.1692 20.8648 19.4391 22.0202 17.3809C23.1757 15.3229 23.7881 13.0046 23.8003 10.6441V4.28609C23.8082 4.0975 23.7534 3.91156 23.6441 3.75768C23.5348 3.60381 23.3776 3.49073 23.1967 3.43608L23.1972 3.43657ZM22.1007 10.6446C22.0928 12.7108 21.5596 14.7411 20.5516 16.5445C19.5435 18.3481 18.0934 19.8658 16.3378 20.9551L11.9007 23.692L7.4636 20.9549V20.9551C5.70799 19.8658 4.25789 18.3481 3.24984 16.5445C2.24178 14.7409 1.70866 12.7106 1.70065 10.6446V4.91557L11.9006 1.77911L22.1006 4.91557L22.1007 10.6446Z" fill="#1FC28F"/>
<path d="M7.82815 10.4828C7.61242 10.2673 7.29823 10.1831 7.00374 10.262C6.70909 10.3409 6.47912 10.5709 6.4002 10.8655C6.32127 11.16 6.40551 11.4742 6.62105 11.6899L10.021 15.0899C10.1806 15.2508 10.3979 15.3413 10.6246 15.3413C10.8513 15.3413 11.0686 15.2508 11.2281 15.0899L17.1781 9.13993C17.3937 8.92421 17.4779 8.61002 17.399 8.31553C17.3201 8.02087 17.0901 7.79091 16.7954 7.71198C16.501 7.63305 16.1868 7.71729 15.971 7.93283L10.6248 13.2878L7.82815 10.4828Z" fill="#1FC28F"/>
</svg>
