<svg width="31" height="26" viewBox="0 0 31 26" fill="none" xmlns="http://www.w3.org/2000/svg">
<path d="M29.6872 0.9H4.71803C2.61193 0.9 0.9 2.6132 0.9 4.71829V21.6049C0.9 23.7099 2.61194 25.4229 4.71803 25.4229H26.5327C26.8983 25.4229 27.1952 25.126 27.1952 24.7604V22.4866H29.6872C30.0528 22.4866 30.3497 22.1897 30.3497 21.8241V1.5625C30.3497 1.19689 30.0528 0.9 29.6872 0.9ZM29.0247 21.1616H27.1942V5.01207C27.1942 4.64647 26.8973 4.34957 26.5317 4.34957H5.149C4.78339 4.34957 4.4865 4.64647 4.4865 5.01207C4.4865 5.37768 4.78339 5.67457 5.149 5.67457H25.8692L25.8695 24.0981H4.71789C3.34332 24.0981 2.22487 22.9785 2.22487 21.6049V4.71893C2.22487 3.34524 3.34332 2.22564 4.71789 2.22564H29.0246L29.0247 21.1616Z" fill="#1FC28F" stroke="#1FC28F" stroke-width="0.2"/>
<path d="M15.6262 18.1791C14.8691 18.1791 14.2523 17.5625 14.2523 16.8043C14.2523 16.4387 13.9555 16.1418 13.5898 16.1418C13.2242 16.1418 12.9273 16.4387 12.9273 16.8043C12.9273 18.0643 13.7951 19.1211 14.9637 19.4178V20.2918C14.9637 20.6574 15.2606 20.9543 15.6262 20.9543C15.9918 20.9543 16.2887 20.6574 16.2887 20.2918V19.4178C17.456 19.1211 18.325 18.0653 18.325 16.8043C18.325 15.317 17.1148 14.1055 15.6262 14.1055C14.8691 14.1055 14.2523 13.4889 14.2523 12.7307C14.2523 11.9736 14.869 11.3569 15.6262 11.3569C16.3833 11.3569 17 11.9736 17 12.7307C17 13.0963 17.2969 13.3932 17.6625 13.3932C18.0281 13.3932 18.325 13.0963 18.325 12.7307C18.325 11.472 17.4572 10.415 16.2887 10.1182V9.24651C16.2887 8.8809 15.9918 8.58401 15.6262 8.58401C15.2606 8.58401 14.9637 8.8809 14.9637 9.24651V10.1204C13.7953 10.4162 12.9273 11.4731 12.9273 12.733C12.9273 14.2215 14.1375 15.4328 15.6262 15.4328C16.3833 15.4328 17 16.0494 17 16.8066C17 17.5621 16.3834 18.1791 15.6262 18.1791Z" fill="#1FC28F" stroke="#1FC28F" stroke-width="0.2"/>
</svg>
