<svg width="10" height="27" viewBox="0 0 10 27" fill="none" xmlns="http://www.w3.org/2000/svg">
<path d="M7.056 12.23C6.624 12.23 6.246 12.14 5.922 11.96C5.598 11.78 5.298 11.576 5.022 11.348C4.758 11.12 4.506 10.922 4.266 10.754C4.026 10.574 3.762 10.484 3.474 10.484C3.09 10.484 2.784 10.628 2.556 10.916C2.328 11.204 2.202 11.6 2.178 12.104H1.044C1.068 11.096 1.302 10.352 1.746 9.872C2.19 9.392 2.748 9.152 3.42 9.152C3.852 9.152 4.23 9.242 4.554 9.422C4.878 9.602 5.172 9.806 5.436 10.034C5.712 10.262 5.97 10.466 6.21 10.646C6.45 10.814 6.714 10.898 7.002 10.898C7.398 10.898 7.71 10.754 7.938 10.466C8.166 10.166 8.286 9.764 8.298 9.26H9.432C9.408 10.268 9.174 11.018 8.73 11.51C8.298 11.99 7.74 12.23 7.056 12.23Z" fill="#777777"/>
<path d="M7.056 17.23C6.624 17.23 6.246 17.14 5.922 16.96C5.598 16.78 5.298 16.576 5.022 16.348C4.758 16.12 4.506 15.922 4.266 15.754C4.026 15.574 3.762 15.484 3.474 15.484C3.09 15.484 2.784 15.628 2.556 15.916C2.328 16.204 2.202 16.6 2.178 17.104H1.044C1.068 16.096 1.302 15.352 1.746 14.872C2.19 14.392 2.748 14.152 3.42 14.152C3.852 14.152 4.23 14.242 4.554 14.422C4.878 14.602 5.172 14.806 5.436 15.034C5.712 15.262 5.97 15.466 6.21 15.646C6.45 15.814 6.714 15.898 7.002 15.898C7.398 15.898 7.71 15.754 7.938 15.466C8.166 15.166 8.286 14.764 8.298 14.26H9.432C9.408 15.268 9.174 16.018 8.73 16.51C8.298 16.99 7.74 17.23 7.056 17.23Z" fill="#777777"/>
</svg>
