<svg width="19" height="28" viewBox="0 0 19 28" fill="none" xmlns="http://www.w3.org/2000/svg">
<path fill-rule="evenodd" clip-rule="evenodd" d="M10.1816 19.0675C11.699 19.096 13.1019 19.4683 14.7052 20.1268C15.1919 21.3865 15.1633 22.8181 14.5908 24.0491H5.19997C4.62741 22.8181 4.59863 21.3865 5.08554 20.1268C7.06109 19.3537 8.66435 19.0387 10.1818 19.0675H10.1816ZM4.99947 6.38417H14.2471C14.0466 6.9282 13.7031 7.41487 13.2737 7.84427L9.63761 11.5092L6.00149 7.87306C5.57211 7.41492 5.22862 6.92825 4.99952 6.38422L4.99947 6.38417ZM3.45332 3.49254C2.96663 5.55394 3.5392 7.78712 5.17125 9.36179L9.00769 13.0265L9.06501 15.1738L5.37157 19.0102C3.91147 20.5276 3.39622 22.589 3.85415 24.5073H15.8503C16.3085 22.5032 15.7071 20.3559 14.1039 18.8098L10.296 15.1451L10.2387 12.9978L13.9034 9.16138C15.3922 7.58665 15.9075 5.43937 15.4493 3.49254H3.45332ZM1.82149 0.400452H17.4537C18.3127 0.400452 18.9997 1.08763 18.9997 1.9464C18.9997 2.80536 18.3125 3.49234 17.4537 3.49234H17.2247C17.6828 5.89725 16.9956 8.47409 15.1633 10.3637L11.6416 14.0573L15.2777 17.5217C17.2532 19.3826 18.0548 22.0453 17.6255 24.5362C18.3986 24.5935 18.9997 25.2519 18.9997 26.0536C18.9997 26.9125 18.3125 27.5995 17.4538 27.5995H1.82151C0.962548 27.5995 0.27557 26.9123 0.27557 26.0536C0.27557 25.1946 0.962752 24.5076 1.82151 24.5076H2.05058C1.64977 22.1598 2.33697 19.6978 4.08345 17.8367L7.60495 14.1147L3.96883 10.6218C1.96474 8.70355 1.19167 5.9837 1.67834 3.46417C0.876682 3.40685 0.275391 2.74841 0.275391 1.94675C0.275391 1.08779 0.962573 0.400605 1.82154 0.400605L1.82149 0.400452Z" fill="#7B7B7B"/>
</svg>
