<svg width="17" height="17" viewBox="0 0 17 17" fill="none" xmlns="http://www.w3.org/2000/svg">
<path d="M8.5 0C3.80566 0 0 3.80556 0 8.5C0 13.1943 3.80556 17 8.5 17C13.1943 17 17 13.1942 17 8.5C17 3.80576 13.1944 0 8.5 0ZM8.5 2.74194C8.80296 2.74194 9.04834 2.98751 9.04834 3.29027V7.95152H13.1612C13.4642 7.95152 13.7096 8.19709 13.7096 8.49985C13.7096 8.80281 13.464 9.04819 13.1612 9.04819H8.5C8.19704 9.04819 7.95166 8.80261 7.95166 8.49985V3.29018C7.95166 2.98722 8.19724 2.74184 8.5 2.74184V2.74194Z" fill="#7B7B7B"/>
</svg>
