<svg width="25" height="25" viewBox="0 0 25 25" fill="none" xmlns="http://www.w3.org/2000/svg">
<g clip-path="url(#clip0_1054_2582)">
<circle cx="12.4999" cy="11.1111" r="2.77778" fill="#1FC28F"/>
<path d="M9.21949 12.4287C9.21949 13.9235 8.11039 15.1353 6.74224 15.1353C5.37421 15.1353 4.26514 13.9235 4.26514 12.4287C4.26514 10.9339 5.37424 9.7222 6.74224 9.7222C8.11042 9.7222 9.21949 10.934 9.21949 12.4287Z" fill="#1FC28F"/>
<path d="M6.66251 15.3055C2.57394 15.3055 2.7793 18.8844 2.7793 18.8844V19.6104H10.5454V18.8844C10.5456 18.8843 10.7511 15.3055 6.66251 15.3055ZM9.57994 16.9365C9.56892 16.9447 9.55636 16.9485 9.54381 16.9485C9.52539 16.9485 9.5074 16.9401 9.4954 16.9243C9.09501 16.3879 8.52776 16.0163 7.81001 15.8197C7.77778 15.8109 7.75895 15.7777 7.76787 15.7455C7.77652 15.7133 7.80987 15.6947 7.84181 15.7034C8.58624 15.9073 9.17496 16.2939 9.59196 16.8522C9.61191 16.8786 9.60647 16.9164 9.57996 16.9365L9.57994 16.9365ZM10.0764 18.0015C10.0709 18.0033 10.0653 18.0039 10.0597 18.0039C10.0335 18.0039 10.0095 17.9868 10.0019 17.9605C9.92535 17.6971 9.8217 17.45 9.69335 17.2261C9.67675 17.1971 9.68679 17.1603 9.71581 17.1437C9.74483 17.1272 9.78166 17.1371 9.79826 17.1661C9.93122 17.3983 10.0389 17.6543 10.1179 17.9267C10.1269 17.9588 10.1085 17.9923 10.0764 18.0015L10.0764 18.0015Z" fill="#1FC28F"/>
<path d="M20.9369 2.37747C20.9369 3.69068 19.9626 4.75511 18.7607 4.75511C17.5588 4.75511 16.5845 3.69065 16.5845 2.37747C16.5845 1.0644 17.5588 -3.05176e-05 18.7607 -3.05176e-05C19.9625 -3.05176e-05 20.9369 1.06443 20.9369 2.37747Z" fill="#1FC28F"/>
<path d="M18.6905 4.90494C15.0987 4.90494 15.2791 8.0489 15.2791 8.0489V8.68672H22.1016V8.0489C22.1019 8.0489 22.2823 4.90494 18.6904 4.90494H18.6905ZM21.2533 6.33769C21.2437 6.34494 21.2325 6.34829 21.2216 6.34829C21.2055 6.34829 21.1894 6.3409 21.1792 6.32709C20.8272 5.85609 20.3292 5.52951 19.6986 5.35666C19.6704 5.34884 19.6538 5.31983 19.6614 5.29151C19.6692 5.26333 19.6983 5.24686 19.7265 5.25454C20.3803 5.4338 20.8976 5.77336 21.2639 6.26375C21.2815 6.28705 21.2769 6.32025 21.2533 6.33769L21.2533 6.33769ZM21.6897 7.27351C21.6847 7.2749 21.6799 7.27574 21.6749 7.27574C21.6519 7.27574 21.6307 7.26067 21.6241 7.23752C21.5572 7.00635 21.4658 6.78912 21.3531 6.5923C21.3384 6.56691 21.3472 6.53454 21.3726 6.5199C21.398 6.50553 21.4304 6.51432 21.445 6.53971C21.5618 6.74367 21.6564 6.96871 21.7256 7.2081C21.7339 7.23586 21.7177 7.2653 21.6897 7.27353L21.6897 7.27351Z" fill="#1FC28F"/>
<path d="M7.05914 8.53785C6.90916 8.53785 6.77956 8.42541 6.76156 8.27265C6.75375 8.20638 6.58662 6.63522 7.83217 5.06518C9.0936 3.47518 11.299 2.49125 14.3872 2.14025C14.5515 2.12086 14.7004 2.23987 14.7192 2.40448C14.738 2.5691 14.6196 2.71768 14.455 2.73652C11.531 3.06897 9.46105 3.97787 8.30212 5.43837C7.20976 6.81534 7.35597 8.18934 7.35737 8.20316C7.37662 8.36778 7.25874 8.51677 7.09439 8.53603C7.08253 8.53728 7.07068 8.53784 7.0591 8.53784L7.05914 8.53785Z" fill="#1FC28F"/>
<path d="M13.6217 3.87321L13.197 3.44924L14.174 2.47099L13.2108 1.6176L13.6086 1.16867L15.0486 2.44435L13.6217 3.87321Z" fill="#1FC28F"/>
<path d="M12.8639 17.4157C12.7187 17.4157 12.5912 17.3101 12.5679 17.1621C12.5422 16.9984 12.6541 16.8451 12.8179 16.8193C15.8231 16.3484 17.9214 15.3191 19.055 13.7594C20.1246 12.2879 19.9134 10.8723 19.9112 10.8581C19.885 10.6944 19.9964 10.5407 20.1599 10.5145C20.3233 10.4874 20.4773 10.5997 20.5035 10.7632C20.5143 10.831 20.7548 12.4412 19.5404 14.112C18.3098 15.8053 16.0792 16.9156 12.9107 17.4119C12.8948 17.4146 12.8793 17.4157 12.8639 17.4157L12.8639 17.4157Z" fill="#1FC28F"/>
<path d="M13.7642 18.3828L12.231 17.1359L13.634 15.607L14.076 16.0127L13.1036 17.0723L14.1425 17.9174L13.7642 18.3828Z" fill="#1FC28F"/>
<path d="M11.9631 11.6933V8.87334H12.1551V11.6933H11.9631ZM12.0381 11.3573C11.8781 11.3573 11.7251 11.3333 11.5791 11.2853C11.4331 11.2353 11.3181 11.1713 11.2341 11.0933L11.3451 10.8593C11.4251 10.9293 11.5271 10.9873 11.6511 11.0333C11.7751 11.0793 11.9041 11.1023 12.0381 11.1023C12.1601 11.1023 12.2591 11.0883 12.3351 11.0603C12.4111 11.0323 12.4671 10.9943 12.5031 10.9463C12.5391 10.8963 12.5571 10.8403 12.5571 10.7783C12.5571 10.7063 12.5331 10.6483 12.4851 10.6043C12.4391 10.5603 12.3781 10.5253 12.3021 10.4993C12.2281 10.4713 12.1461 10.4473 12.0561 10.4273C11.9661 10.4073 11.8751 10.3843 11.7831 10.3583C11.6931 10.3303 11.6101 10.2953 11.5341 10.2533C11.4601 10.2113 11.4001 10.1553 11.3541 10.0853C11.3081 10.0133 11.2851 9.92134 11.2851 9.80934C11.2851 9.70134 11.3131 9.60234 11.3691 9.51234C11.4271 9.42034 11.5151 9.34734 11.6331 9.29334C11.7531 9.23734 11.9051 9.20934 12.0891 9.20934C12.2111 9.20934 12.3321 9.22534 12.4521 9.25734C12.5721 9.28934 12.6761 9.33534 12.7641 9.39534L12.6651 9.63534C12.5751 9.57534 12.4801 9.53234 12.3801 9.50634C12.2801 9.47834 12.1831 9.46434 12.0891 9.46434C11.9711 9.46434 11.8741 9.47934 11.7981 9.50934C11.7221 9.53934 11.6661 9.57934 11.6301 9.62934C11.5961 9.67934 11.5791 9.73534 11.5791 9.79734C11.5791 9.87134 11.6021 9.93034 11.6481 9.97434C11.6961 10.0183 11.7571 10.0533 11.8311 10.0793C11.9071 10.1053 11.9901 10.1293 12.0801 10.1513C12.1701 10.1713 12.2601 10.1943 12.3501 10.2203C12.4421 10.2463 12.5251 10.2803 12.5991 10.3223C12.6751 10.3643 12.7361 10.4203 12.7821 10.4903C12.8281 10.5603 12.8511 10.6503 12.8511 10.7603C12.8511 10.8663 12.8221 10.9653 12.7641 11.0573C12.7061 11.1473 12.6161 11.2203 12.4941 11.2763C12.3741 11.3303 12.2221 11.3573 12.0381 11.3573Z" fill="white"/>
</g>
<defs>
<clipPath id="clip0_1054_2582">
<rect width="25" height="25" fill="white"/>
</clipPath>
</defs>
</svg>
