<svg width="26" height="26" viewBox="0 0 26 26" fill="none" xmlns="http://www.w3.org/2000/svg">
<path d="M12.9243 1.4625C12.2554 1.47309 11.5807 1.55884 10.9127 1.72468C7.34993 2.60872 4.68797 5.58531 4.20512 9.22419C4.19177 9.31516 4.21745 9.40744 4.27592 9.47824C4.33439 9.54919 4.41999 9.59199 4.51183 9.5962C4.68261 9.60433 4.83059 9.47868 4.85004 9.30863C5.2982 5.93242 7.7633 3.1756 11.0689 2.35549C14.3126 1.55053 17.7104 2.77595 19.7024 5.44414L18.8848 5.36173C18.7057 5.34374 18.5461 5.47432 18.5283 5.65336C18.5104 5.83225 18.641 5.99185 18.8199 6.00985L20.73 6.20151L21.1184 4.4552C21.1425 4.35349 21.1162 4.24642 21.0479 4.16749C20.9794 4.08856 20.8773 4.04721 20.7731 4.05664C20.6311 4.0697 20.5141 4.17402 20.485 4.31374L20.2984 5.1522C18.5657 2.76403 15.7965 1.41734 12.9243 1.4625ZM13.0004 4.88195C9.95746 4.88195 7.48248 7.35689 7.48248 10.3999C7.48248 13.2798 9.69973 15.6448 12.5168 15.8907C12.3548 15.4999 12.2641 15.0726 12.2641 14.625C12.2641 12.7907 13.7671 11.2899 15.6011 11.2899C16.604 11.2899 17.5053 11.7406 18.118 12.447C18.3721 11.8134 18.516 11.1238 18.516 10.4C18.516 7.35685 16.0437 4.88195 13.0004 4.88195ZM12.9961 6.49432C13.0839 6.49345 13.1683 6.52812 13.2302 6.59051C13.2921 6.65305 13.3259 6.73778 13.3243 6.82555V10.0737H15.6012C15.7779 10.0776 15.919 10.2219 15.919 10.3987C15.919 10.5754 15.7779 10.7197 15.6012 10.7237H13.0004C12.8209 10.7244 12.675 10.5794 12.6743 10.4V6.82556C12.6725 6.73895 12.7056 6.65508 12.766 6.59284C12.8265 6.5306 12.9093 6.49504 12.9961 6.49432ZM21.5519 11.1331C21.5403 11.1329 21.5287 11.1334 21.5171 11.1344C21.3635 11.1485 21.241 11.2686 21.2239 11.422C20.7998 14.8298 18.3207 17.6237 14.9865 18.4468C11.8018 19.2332 8.47571 18.0624 6.47408 15.4996L7.44344 15.5985C7.53064 15.61 7.61885 15.5856 7.68791 15.5309C7.75683 15.4761 7.80079 15.3958 7.8095 15.3082C7.8182 15.2206 7.79121 15.1332 7.73434 15.0659C7.67761 14.9986 7.59593 14.9572 7.50815 14.9511L5.59819 14.7569L5.20719 16.5032C5.16801 16.6787 5.27872 16.8528 5.45442 16.8919C5.62998 16.9311 5.80408 16.8204 5.84312 16.6447L5.99865 15.9497C8.16048 18.6779 11.7298 19.9202 15.1417 19.0778C18.7352 18.1904 21.4122 15.1767 21.8691 11.5036C21.8821 11.4112 21.8548 11.3175 21.7942 11.2465C21.7334 11.1756 21.6454 11.1344 21.5519 11.1331ZM15.6013 11.7767C14.0318 11.7767 12.753 13.0549 12.753 14.6244C12.753 16.1937 14.0318 17.4719 15.6013 17.4719C17.1706 17.4719 18.4488 16.1937 18.4488 14.6244C18.4488 13.0549 17.1706 11.7767 15.6013 11.7767ZM15.275 12.6744H15.925V13.1517C16.0814 13.1908 16.2263 13.2545 16.3497 13.3485C16.5547 13.5046 16.7076 13.7504 16.7076 14.0302H16.057C16.057 13.9809 16.0349 13.9266 15.9567 13.867C15.8785 13.8075 15.7504 13.7592 15.6013 13.7592C15.4521 13.7592 15.322 13.8075 15.2439 13.867C15.1657 13.9266 15.1429 13.9809 15.1429 14.0302C15.1429 14.0709 15.1424 14.0736 15.2343 14.133C15.3263 14.1923 15.4975 14.2585 15.6901 14.3133C15.9021 14.3735 16.1214 14.4403 16.3211 14.5672C16.5207 14.6942 16.7153 14.9363 16.7076 15.2292C16.6963 15.6708 16.3525 15.9881 15.925 16.097V16.5755H15.275V16.0982C15.1187 16.0591 14.9732 15.995 14.8503 15.9014C14.6453 15.7453 14.4929 15.4995 14.4929 15.2197H15.1429C15.1429 15.269 15.1657 15.3233 15.2439 15.3829C15.322 15.4424 15.4521 15.4907 15.6013 15.4907C15.8996 15.4907 16.0542 15.3214 16.057 15.2127C16.058 15.1716 16.0653 15.1729 15.9733 15.1143C15.8812 15.0559 15.7068 14.9919 15.5123 14.9366C15.2988 14.8758 15.079 14.8076 14.8814 14.6802C14.6839 14.5527 14.493 14.3185 14.493 14.0302C14.493 13.7503 14.6453 13.5046 14.8503 13.3485C14.9732 13.2549 15.1187 13.1907 15.275 13.1517L15.275 12.6744Z" fill="#1FC28F"/>
</svg>
