<svg width="88" height="87" viewBox="0 0 88 87" fill="none" xmlns="http://www.w3.org/2000/svg">
<mask id="path-1-inside-1_1272_5212" fill="white">
<path d="M81.6431 59.6086C84.8326 59.6086 87.4097 57.0316 87.4097 53.842V4.82593C87.4097 2.44712 85.4635 0.500977 83.0847 0.500977H54.2517C52.0531 0.500977 50.2151 2.14085 49.9628 4.32143C47.1156 3.69071 44.1962 3.38436 41.2768 3.38436C18.9848 3.38436 0.910645 21.4585 0.910645 43.7506C0.910645 63.8612 15.7236 80.9089 35.6371 83.7197C36.1237 85.6479 37.8536 86.9994 39.8359 86.9994H60.019C62.8121 86.9994 65.4793 85.8461 67.3714 83.8098C67.8759 85.7019 69.5879 86.9994 71.5522 86.9994H83.0854C85.4642 86.9994 87.4103 85.0533 87.4103 82.6745V66.8163C87.4103 64.4375 85.4642 62.4914 83.0854 62.4914H72.9938V59.6081L81.6431 59.6086ZM72.9931 37.9839C72.9931 37.191 73.6419 36.5422 74.4528 36.5422H74.5249C75.2818 36.5422 75.8945 37.1549 75.8945 37.9118V53.8421C75.8945 54.8513 76.1648 55.8425 76.6694 56.7254H72.9932L72.9931 37.9839ZM54.2517 3.38428H83.0847C83.8776 3.38428 84.5264 4.03302 84.5264 4.82593V53.842C84.5264 55.4278 83.2289 56.7253 81.6431 56.7253C80.0572 56.7253 78.7598 55.4278 78.7598 53.842V37.9117C78.7598 35.569 76.8676 33.6589 74.5249 33.6589H74.4528H74.4348H52.8101V4.82593C52.8101 4.03302 53.4588 3.38428 54.2517 3.38428ZM32.9696 7.20473L39.421 13.6561C39.6913 13.9264 39.8355 14.2868 39.8355 14.6833V20.9364C39.8355 21.3148 39.6913 21.6933 39.421 21.9636L36.772 24.5946C36.5017 24.8649 36.1413 25.0091 35.7448 25.0091H32.6272C30.2484 25.0091 28.3023 26.9552 28.3023 29.334V42.5611C28.3023 42.9396 28.1581 43.318 27.8878 43.5883L16.5889 54.8693C16.3186 55.1396 15.9582 55.2837 15.5617 55.2837H5.61431C4.40693 51.5534 3.79421 47.661 3.79421 43.7505C3.79421 25.9466 16.2823 10.9893 32.9696 7.20473ZM13.4176 68.8349C10.5883 65.6812 8.2998 62.0771 6.6779 58.1666H15.5801C16.7334 58.1666 17.8326 57.7161 18.6436 56.9052L29.9246 45.6243C30.7355 44.8133 31.186 43.714 31.186 42.5607V29.3336C31.186 28.5407 31.8347 27.892 32.6276 27.892H35.7632C36.9165 27.892 38.0158 27.4414 38.8267 26.6305L41.4578 23.9995C42.2687 23.1885 42.7192 22.0892 42.7192 20.9359V14.6648C42.7192 13.5115 42.2687 12.4122 41.4578 11.6013L36.43 6.57347C40.9352 5.99681 45.5124 6.23108 49.9274 7.25825V33.6577H39.8359C37.4571 33.6577 35.5109 35.6039 35.5109 37.9827V80.7824C33.0601 80.404 30.6454 79.7732 28.3027 78.9082V73.7544C28.3027 73.376 28.4469 72.9975 28.7172 72.7272L31.3482 70.0962C32.1591 69.2852 32.6096 68.1859 32.6096 67.0326V61.0499C32.6096 58.671 30.6635 56.7249 28.2847 56.7249H25.1491C23.9958 56.7249 22.8966 57.1754 22.0856 57.9863L16.5894 63.5186C15.7784 64.3296 15.3279 65.4289 15.3279 66.5822V70.817C14.6792 70.1683 14.0303 69.5196 13.4176 68.8349ZM25.4194 77.7191C22.8605 76.5297 20.4456 75.034 18.2111 73.286V66.5643C18.2111 66.1859 18.3553 65.8074 18.6256 65.5371L24.1399 60.0228C24.4102 59.7525 24.7706 59.6083 25.1671 59.6083H28.3027C29.0956 59.6083 29.7443 60.257 29.7443 61.0499V67.0688C29.7443 67.4472 29.6001 67.8257 29.3298 68.096L26.6808 70.727C25.8699 71.538 25.4194 72.6373 25.4194 73.7906L25.4194 77.7191ZM39.8359 84.1163C39.0429 84.1163 38.3942 83.4676 38.3942 82.6747V37.9836C38.3942 37.1906 39.0429 36.5419 39.8359 36.5419H70.3626C70.2004 37.0104 70.1103 37.497 70.1103 37.9836V62.7437C68.3803 63.3564 67.227 64.9963 67.227 66.8164V69.8618C63.3346 65.8792 56.9552 65.8072 52.9726 69.6996C48.9901 73.592 48.9181 79.9714 52.8104 83.954L52.9726 84.1162L39.8359 84.1163ZM70.1105 72.5831H84.527V76.9081H70.1105V72.5831ZM60.019 84.1163C56.0364 84.1163 52.8107 80.8907 52.8107 76.9081C52.8107 72.9255 56.0364 69.6999 60.019 69.6999C64.0015 69.6999 67.2272 72.9255 67.2272 76.9081C67.2272 80.8907 64.0015 84.1163 60.019 84.1163ZM83.0854 84.1163H71.5522C70.7593 84.1163 70.1105 83.4676 70.1105 82.6747V79.7914H84.527V82.6747C84.527 83.4676 83.8783 84.1163 83.0854 84.1163ZM84.527 66.8166V69.6999H70.1105V66.8166C70.1105 66.0236 70.7593 65.3749 71.5522 65.3749H83.0854C83.8783 65.3749 84.527 66.0236 84.527 66.8166Z"/>
</mask>
<path d="M81.6431 59.6086C84.8326 59.6086 87.4097 57.0316 87.4097 53.842V4.82593C87.4097 2.44712 85.4635 0.500977 83.0847 0.500977H54.2517C52.0531 0.500977 50.2151 2.14085 49.9628 4.32143C47.1156 3.69071 44.1962 3.38436 41.2768 3.38436C18.9848 3.38436 0.910645 21.4585 0.910645 43.7506C0.910645 63.8612 15.7236 80.9089 35.6371 83.7197C36.1237 85.6479 37.8536 86.9994 39.8359 86.9994H60.019C62.8121 86.9994 65.4793 85.8461 67.3714 83.8098C67.8759 85.7019 69.5879 86.9994 71.5522 86.9994H83.0854C85.4642 86.9994 87.4103 85.0533 87.4103 82.6745V66.8163C87.4103 64.4375 85.4642 62.4914 83.0854 62.4914H72.9938V59.6081L81.6431 59.6086ZM72.9931 37.9839C72.9931 37.191 73.6419 36.5422 74.4528 36.5422H74.5249C75.2818 36.5422 75.8945 37.1549 75.8945 37.9118V53.8421C75.8945 54.8513 76.1648 55.8425 76.6694 56.7254H72.9932L72.9931 37.9839ZM54.2517 3.38428H83.0847C83.8776 3.38428 84.5264 4.03302 84.5264 4.82593V53.842C84.5264 55.4278 83.2289 56.7253 81.6431 56.7253C80.0572 56.7253 78.7598 55.4278 78.7598 53.842V37.9117C78.7598 35.569 76.8676 33.6589 74.5249 33.6589H74.4528H74.4348H52.8101V4.82593C52.8101 4.03302 53.4588 3.38428 54.2517 3.38428ZM32.9696 7.20473L39.421 13.6561C39.6913 13.9264 39.8355 14.2868 39.8355 14.6833V20.9364C39.8355 21.3148 39.6913 21.6933 39.421 21.9636L36.772 24.5946C36.5017 24.8649 36.1413 25.0091 35.7448 25.0091H32.6272C30.2484 25.0091 28.3023 26.9552 28.3023 29.334V42.5611C28.3023 42.9396 28.1581 43.318 27.8878 43.5883L16.5889 54.8693C16.3186 55.1396 15.9582 55.2837 15.5617 55.2837H5.61431C4.40693 51.5534 3.79421 47.661 3.79421 43.7505C3.79421 25.9466 16.2823 10.9893 32.9696 7.20473ZM13.4176 68.8349C10.5883 65.6812 8.2998 62.0771 6.6779 58.1666H15.5801C16.7334 58.1666 17.8326 57.7161 18.6436 56.9052L29.9246 45.6243C30.7355 44.8133 31.186 43.714 31.186 42.5607V29.3336C31.186 28.5407 31.8347 27.892 32.6276 27.892H35.7632C36.9165 27.892 38.0158 27.4414 38.8267 26.6305L41.4578 23.9995C42.2687 23.1885 42.7192 22.0892 42.7192 20.9359V14.6648C42.7192 13.5115 42.2687 12.4122 41.4578 11.6013L36.43 6.57347C40.9352 5.99681 45.5124 6.23108 49.9274 7.25825V33.6577H39.8359C37.4571 33.6577 35.5109 35.6039 35.5109 37.9827V80.7824C33.0601 80.404 30.6454 79.7732 28.3027 78.9082V73.7544C28.3027 73.376 28.4469 72.9975 28.7172 72.7272L31.3482 70.0962C32.1591 69.2852 32.6096 68.1859 32.6096 67.0326V61.0499C32.6096 58.671 30.6635 56.7249 28.2847 56.7249H25.1491C23.9958 56.7249 22.8966 57.1754 22.0856 57.9863L16.5894 63.5186C15.7784 64.3296 15.3279 65.4289 15.3279 66.5822V70.817C14.6792 70.1683 14.0303 69.5196 13.4176 68.8349ZM25.4194 77.7191C22.8605 76.5297 20.4456 75.034 18.2111 73.286V66.5643C18.2111 66.1859 18.3553 65.8074 18.6256 65.5371L24.1399 60.0228C24.4102 59.7525 24.7706 59.6083 25.1671 59.6083H28.3027C29.0956 59.6083 29.7443 60.257 29.7443 61.0499V67.0688C29.7443 67.4472 29.6001 67.8257 29.3298 68.096L26.6808 70.727C25.8699 71.538 25.4194 72.6373 25.4194 73.7906L25.4194 77.7191ZM39.8359 84.1163C39.0429 84.1163 38.3942 83.4676 38.3942 82.6747V37.9836C38.3942 37.1906 39.0429 36.5419 39.8359 36.5419H70.3626C70.2004 37.0104 70.1103 37.497 70.1103 37.9836V62.7437C68.3803 63.3564 67.227 64.9963 67.227 66.8164V69.8618C63.3346 65.8792 56.9552 65.8072 52.9726 69.6996C48.9901 73.592 48.9181 79.9714 52.8104 83.954L52.9726 84.1162L39.8359 84.1163ZM70.1105 72.5831H84.527V76.9081H70.1105V72.5831ZM60.019 84.1163C56.0364 84.1163 52.8107 80.8907 52.8107 76.9081C52.8107 72.9255 56.0364 69.6999 60.019 69.6999C64.0015 69.6999 67.2272 72.9255 67.2272 76.9081C67.2272 80.8907 64.0015 84.1163 60.019 84.1163ZM83.0854 84.1163H71.5522C70.7593 84.1163 70.1105 83.4676 70.1105 82.6747V79.7914H84.527V82.6747C84.527 83.4676 83.8783 84.1163 83.0854 84.1163ZM84.527 66.8166V69.6999H70.1105V66.8166C70.1105 66.0236 70.7593 65.3749 71.5522 65.3749H83.0854C83.8783 65.3749 84.527 66.0236 84.527 66.8166Z" fill="black" stroke="white" mask="url(#path-1-inside-1_1272_5212)"/>
<path d="M49.2523 47.6591L50.952 45.9594L52.6314 47.655L53.059 48.0868V47.4791V39.6738H55.4423V47.4791V48.0868L55.8699 47.655L57.5494 45.9594L59.249 47.6591L54.2505 52.6405L49.2523 47.6591Z" fill="#1FC28F" stroke="white" stroke-width="0.5"/>
<path d="M41.5264 55.5332H52.5596V57.9165H41.5264V55.5332Z" fill="black" stroke="white" stroke-width="0.5"/>
<path d="M55.9429 55.5332H59.7678V57.9165H55.9429V55.5332Z" fill="black" stroke="white" stroke-width="0.5"/>
<path d="M63.1514 55.5332H66.9763V57.9165H63.1514V55.5332Z" fill="black" stroke="white" stroke-width="0.5"/>
<path d="M41.5264 61.3008H52.5596V63.6841H41.5264V61.3008Z" fill="black" stroke="white" stroke-width="0.5"/>
<path d="M55.9429 61.3008H59.7678V63.6841H55.9429V61.3008Z" fill="black" stroke="white" stroke-width="0.5"/>
<path d="M67.4771 11.1862V10.5785L67.0495 11.0103L65.3704 12.706L63.6707 11.0063L68.669 6.02484L73.6672 11.0063L71.9675 12.706L70.2881 11.0103L69.8604 10.5785V11.1862V18.9915H67.4771V11.1862Z" fill="#1FC28F" stroke="white" stroke-width="0.5"/>
<path d="M55.9429 22.376H66.9761V24.7593H55.9429V22.376Z" fill="#1FC28F" stroke="white" stroke-width="0.5"/>
<path d="M70.3594 22.376H74.1843V24.7593H70.3594V22.376Z" fill="#1FC28F" stroke="white" stroke-width="0.5"/>
<path d="M77.5679 22.376H81.3928V24.7593H77.5679V22.376Z" fill="#1FC28F" stroke="white" stroke-width="0.5"/>
<path d="M55.9429 28.1436H66.9761V30.5269H55.9429V28.1436Z" fill="#1FC28F" stroke="white" stroke-width="0.5"/>
<path d="M70.3594 28.1436H74.1843V30.5269H70.3594V28.1436Z" fill="#1FC28F" stroke="white" stroke-width="0.5"/>
<path d="M77.5679 28.1436H81.3928V30.5269H77.5679V28.1436Z" fill="#1FC28F" stroke="white" stroke-width="0.5"/>
<path d="M63.1514 61.3008H65.5347V63.6841H63.1514V61.3008Z" fill="black" stroke="white" stroke-width="0.5"/>
<path d="M41.5264 67.0664H49.6763V69.4497H41.5264V67.0664Z" fill="black" stroke="white" stroke-width="0.5"/>
<path d="M41.5264 72.833H46.793V75.2163H41.5264V72.833Z" fill="black" stroke="white" stroke-width="0.5"/>
<path d="M41.5264 78.6006H46.793V80.9839H41.5264V78.6006Z" fill="black" stroke="white" stroke-width="0.5"/>
<path d="M16.7684 37.4454L16.5683 37.1781L14.2617 34.0966L14.2615 34.0963C13.2247 32.7074 13.4976 30.7484 14.8889 29.7098M16.7684 37.4454L14.8889 29.7098M16.7684 37.4454L16.9686 37.1781L19.2751 34.0967M16.7684 37.4454L19.2751 34.0967M14.8889 29.7098C15.4367 29.2991 16.0838 29.0835 16.7684 29.0835C18.4923 29.0835 19.9017 30.4929 19.9017 32.2168C19.9017 32.9015 19.686 33.5487 19.2752 34.0966M14.8889 29.7098L19.2752 34.0966M19.2752 34.0966L19.2751 34.0967M19.2752 34.0966L19.2751 34.0967M21.1818 35.5266L16.7684 41.4054L12.3556 35.5273C12.3555 35.5272 12.3555 35.5271 12.3554 35.527C10.89 33.5614 10.89 30.8722 12.3553 28.9066C14.1831 26.4758 17.6484 25.9766 20.0782 27.8033C22.5093 29.631 23.0087 33.0965 21.1819 35.5265L21.1818 35.5266Z" fill="#1FC28F" stroke="white" stroke-width="0.5"/>
<path d="M27.1099 12.2842H29.4932V14.6675H27.1099V12.2842Z" fill="black" stroke="white" stroke-width="0.5"/>
<path d="M18.4609 19.4922H20.8442V21.8755H18.4609V19.4922Z" fill="black" stroke="white" stroke-width="0.5"/>
<path d="M8.36865 48.3252H10.752V50.7085H8.36865V48.3252Z" fill="black" stroke="white" stroke-width="0.5"/>
<path d="M32.8774 18.0508H35.2607V20.4341H32.8774V18.0508Z" fill="black" stroke="white" stroke-width="0.5"/>
</svg>
