<svg width="33" height="44" viewBox="0 0 33 44" fill="none" xmlns="http://www.w3.org/2000/svg">
<path d="M1.47673 0C0.885958 0 0.410156 0.475821 0.410156 1.06658V42.6668C0.410156 43.2576 0.885977 43.7334 1.47673 43.7334H31.3435C31.9343 43.7334 32.4101 43.2575 32.4101 42.6668V1.06658C32.4101 0.475802 31.9343 0 31.3435 0H1.47673ZM16.4101 8.53357C19.0612 8.53357 21.21 10.6827 21.21 13.3334C21.21 15.9845 19.0608 18.1332 16.4101 18.1332C13.7591 18.1332 11.6103 15.9841 11.6103 13.3334C11.6103 10.6823 13.7595 8.53357 16.4101 8.53357ZM16.4101 20.267C22.3011 20.267 27.0769 23.793 27.0769 28.8005H5.74342C5.74342 23.7931 10.5192 20.267 16.4101 20.267V20.267ZM11.6103 35.2004H21.2104C21.7996 35.2004 22.2769 35.678 22.2769 36.2669C22.2769 36.8562 21.7993 37.3335 21.2104 37.3335H11.6103C11.021 37.3335 10.5437 36.8558 10.5437 36.2669C10.5437 35.6776 11.0214 35.2004 11.6103 35.2004Z" fill="#1FC28F"/>
</svg>
