<svg width="16" height="21" viewBox="0 0 16 21" fill="none" xmlns="http://www.w3.org/2000/svg">
<path d="M15.1877 13.4777C13.8475 13.2399 12.9179 12.6562 12.4208 12.2672V12.2024C12.2045 10.3001 10.8428 8.80852 9.07019 8.31142C10.1077 7.51165 10.7995 6.25791 10.7995 4.85272C10.7995 2.43173 8.83241 0.4646 6.41141 0.4646C3.99042 0.4646 2.02329 2.43173 2.02329 4.85272C2.02329 6.25771 2.71509 7.5115 3.75264 8.31142C2.00175 8.80856 0.639838 10.3001 0.402058 12.2024L0.0128862 15.2502C-0.0952265 16.1147 0.488446 16.9362 1.33148 17.1092C2.95271 17.4334 4.66033 17.6063 6.38972 17.6063C6.9734 17.6063 7.53539 17.5847 8.09733 17.5415C9.07003 19.5302 10.54 20.5461 11.102 20.8703C11.2534 20.9567 11.4262 21 11.6208 21C11.7938 21 11.9667 20.9567 12.1397 20.8703C12.9179 20.4163 15.5335 18.6006 15.9874 14.6016C16.0738 14.0612 15.7063 13.5858 15.1876 13.4776L15.1877 13.4777ZM3.12572 4.85275C3.12572 3.05859 4.59556 1.58872 6.38976 1.58872C8.18395 1.58872 9.65379 3.05855 9.65379 4.85275C9.65379 6.64691 8.18395 8.11679 6.38976 8.11679C4.59556 8.11679 3.12572 6.64695 3.12572 4.85275ZM1.56934 16.0068C1.28828 15.942 1.09378 15.6826 1.13705 15.38L1.50451 12.3321C1.72074 10.5812 3.21213 9.24099 4.98475 9.24099H7.83819C9.50269 9.24099 10.9077 10.4082 11.2536 12.0079C11.1672 12.0512 11.0806 12.0943 10.9942 12.1593C10.5402 12.5483 9.56751 13.2185 8.09767 13.4779C7.57884 13.5643 7.21136 14.0616 7.27621 14.5803C7.36261 15.2503 7.49243 15.8556 7.66523 16.4177C5.61155 16.5256 3.51488 16.3959 1.56941 16.0068L1.56934 16.0068ZM11.6426 19.8761C10.9292 19.4438 8.81087 17.909 8.40012 14.5801C9.99977 14.2775 11.0806 13.5426 11.6426 13.0886C12.2046 13.5426 13.2854 14.2775 14.885 14.5801C14.4527 17.9091 12.3559 19.4222 11.6426 19.8761Z" fill="#7B7B7B"/>
<path d="M10.8291 15.7258C10.6129 15.5096 10.2671 15.5096 10.0294 15.7258C9.81313 15.942 9.81313 16.2878 10.0294 16.5256L10.9588 17.455C11.0669 17.5631 11.1966 17.628 11.3478 17.628C11.4992 17.628 11.6289 17.5631 11.7368 17.455L13.2067 15.9634C13.4229 15.7472 13.4229 15.4014 13.2067 15.1637C12.9904 14.9474 12.6447 14.9474 12.4069 15.1637L11.3261 16.2445L10.8291 15.7258Z" fill="#7B7B7B"/>
</svg>
