<svg width="50" height="29" viewBox="0 0 50 29" fill="none" xmlns="http://www.w3.org/2000/svg">
<path d="M6.26698e-05 14.8221C6.26698e-05 10.8871 3.16059 7.69662 7.05852 7.69662C7.13246 7.69662 7.205 7.70577 7.27859 7.70824C8.04763 4.61253 10.813 2.31824 14.1166 2.31824C15.3335 2.31824 16.4781 2.62914 17.4778 3.17701C19.2659 1.22741 21.8147 0 24.6537 0C24.7705 0 24.8842 0.015493 25.0007 0.0197178C27.8297 0.120069 30.3523 1.42389 32.0762 3.45128C33.1749 2.73757 34.4803 2.31896 35.8831 2.31896C39.186 2.31896 41.9521 4.61325 42.7211 7.70896C42.7951 7.7058 42.8676 7.69734 42.9415 7.69734C46.8401 7.69734 50 10.8874 50 14.8229C50 18.4129 46.7132 21.9371 42.7205 21.9371C41.9514 25.0328 39.186 27.3271 35.8825 27.3271C34.479 27.3271 33.1739 26.9088 32.0756 26.1954C31.1193 27.3204 29.9157 28.2232 28.5516 28.8242V16.3915H32.9286L25 8.38744L17.0714 16.3915H21.1809V29C19.7582 28.4514 18.4943 27.5772 17.4774 26.4677C16.4784 27.0148 15.3334 27.3264 14.1162 27.3264C10.8126 27.3264 8.0472 25.0321 7.27819 21.9364C2.45535 21.9364 0 18.4126 0 14.8225L6.26698e-05 14.8221Z" fill="black"/>
</svg>
