<svg width="89" height="74" viewBox="0 0 89 74" fill="none" xmlns="http://www.w3.org/2000/svg">
<path d="M82.1193 0.7H6.701C5.1653 0.7 3.76828 1.32696 2.75248 2.34051L82.1193 0.7ZM82.1193 0.7C83.6553 0.7 85.0521 1.32633 86.0678 2.3405C87.0827 3.35392 87.7102 4.74886 87.7102 6.28159V67.4013C87.7102 68.9334 87.0835 70.3282 86.068 71.3423C85.0522 72.3559 83.6551 72.9829 82.1193 72.9829H6.701C5.16502 72.9829 3.76816 72.3566 2.75249 71.3424C1.73761 70.329 1.11016 68.9341 1.11016 67.4013V6.28159C1.11016 4.74954 1.7368 3.35477 2.75232 2.34067L82.1193 0.7ZM4.1934 16.389H3.49338L3.4934 17.0891L3.49513 67.4011C3.49513 68.2588 3.84045 69.058 4.43817 69.6547C5.03797 70.2534 5.84124 70.5976 6.701 70.5976H82.1193C82.9783 70.5976 83.7818 70.2548 84.3821 69.6547C84.9798 69.058 85.3252 68.2589 85.3252 67.4011V17.089V16.389H84.6252H44.4093H4.1934ZM61.8924 5.34925H58.3812C57.0797 5.34925 56.0177 6.41119 56.0177 7.71278V9.37631C56.0177 10.6779 57.0797 11.7398 58.3812 11.7398H61.8924C63.194 11.7398 64.2559 10.6779 64.2559 9.37631V7.71278C64.2559 6.4112 63.194 5.34925 61.8924 5.34925ZM72.427 5.34925H68.9158C67.6142 5.34925 66.5523 6.4112 66.5523 7.71278V9.37631C66.5523 10.6779 67.6142 11.7398 68.9158 11.7398H72.427C73.7285 11.7398 74.7905 10.6779 74.7905 9.37631V7.71278C74.7905 6.41119 73.7285 5.34925 72.427 5.34925ZM82.9615 5.34925H79.4504C78.1488 5.34925 77.0868 6.4112 77.0868 7.71278V9.37631C77.0868 10.6779 78.1488 11.7398 79.4504 11.7398H82.9615C84.2631 11.7398 85.325 10.6779 85.325 9.37631V7.71278C85.325 6.4112 84.2631 5.34925 82.9615 5.34925Z" stroke="black" stroke-width="1.4"/>
<path d="M43.7015 54.5584L44.4086 55.2655L45.1157 54.5584L53.5535 46.1206C59.2689 46.5473 63.8172 51.3605 63.8172 57.1791V62.306H25V57.1791C25 51.3605 29.5481 46.5472 35.2636 46.1206L43.7015 54.5584Z" stroke="#1FC28F" stroke-width="2"/>
<path d="M53.28 33.555C53.28 38.4546 49.3081 42.4265 44.4085 42.4265C39.5089 42.4265 35.5371 38.4546 35.5371 33.555C35.5371 28.6554 39.5089 24.6836 44.4085 24.6836C49.3081 24.6836 53.28 28.6554 53.28 33.555Z" stroke="#1FC28F" stroke-width="2"/>
</svg>
