<svg width="60" height="37" viewBox="0 0 60 37" fill="none" xmlns="http://www.w3.org/2000/svg">
<path fill-rule="evenodd" clip-rule="evenodd" d="M19.0919 0C14.7191 0 11.1284 3.55823 11.1284 7.91728C11.1284 12.2763 14.7189 15.8346 19.0919 15.8346C23.4899 15.8346 27.0866 12.2763 27.0866 7.91728C27.0866 3.55823 23.4899 0 19.0919 0Z" fill="#1FC28F"/>
<path fill-rule="evenodd" clip-rule="evenodd" d="M19.0973 23.8223C22.8965 23.8223 26.6948 24.3785 29.8367 25.4719V25.4714H29.8377C32.2933 26.3239 34.3377 27.4953 35.7085 28.8806C37.0793 30.2658 37.8062 31.8016 37.8062 33.7061V36.7466H0.410156V33.7061C0.410156 31.5233 1.35701 29.8034 3.12821 28.2921C4.89939 26.7808 7.51337 25.5802 10.539 24.8173C13.1864 24.1499 16.1417 23.8197 19.0966 23.8223L19.0973 23.8223Z" fill="#1FC28F"/>
<path fill-rule="evenodd" clip-rule="evenodd" d="M40.9926 23.837C43.9003 23.8714 46.7912 24.2282 49.3727 24.908C52.3229 25.6851 54.8586 26.8827 56.5738 28.376C58.2891 29.8699 59.2048 31.5626 59.2048 33.7045V36.745H40.7449V33.7045C40.7449 31.0039 39.6012 28.6339 37.7972 26.811C36.8463 25.8498 35.7179 25.025 34.4614 24.3186C36.5628 23.9741 38.7804 23.8105 40.9921 23.8367L40.9926 23.837Z" fill="#1FC28F"/>
<path fill-rule="evenodd" clip-rule="evenodd" d="M40.5235 0C36.1507 0 32.5605 3.55823 32.5605 7.91728C32.5605 12.2763 36.1501 15.8346 40.5235 15.8346C44.8963 15.8346 48.4864 12.2763 48.4864 7.91728C48.4864 3.55823 44.8968 0 40.5235 0Z" fill="#1FC28F"/>
</svg>
