<svg width="139" height="139" viewBox="0 0 139 139" fill="none" xmlns="http://www.w3.org/2000/svg">
<rect width="139" height="139" rx="69.5" fill="#1FC28F"/>
<path d="M54.8 85.32C53.1467 85.32 51.6 84.9733 50.16 84.28C48.72 83.5867 47.5467 82.5867 46.64 81.28L48.96 78.56C49.7333 79.6267 50.6 80.4533 51.56 81.04C52.5467 81.6 53.6267 81.88 54.8 81.88C58 81.88 59.6 79.9867 59.6 76.2V60.48H49.48V57H63.56V76C63.56 79.12 62.8133 81.4533 61.32 83C59.8533 84.5467 57.68 85.32 54.8 85.32ZM79.8678 85.32C77.7345 85.32 75.6945 85 73.7478 84.36C71.8011 83.6933 70.2678 82.84 69.1478 81.8L70.6278 78.68C71.6945 79.6133 73.0545 80.3867 74.7078 81C76.3611 81.6133 78.0811 81.92 79.8678 81.92C81.4945 81.92 82.8145 81.7333 83.8278 81.36C84.8411 80.9867 85.5878 80.48 86.0678 79.84C86.5478 79.1733 86.7878 78.4267 86.7878 77.6C86.7878 76.64 86.4678 75.8667 85.8278 75.28C85.2145 74.6933 84.4011 74.2267 83.3878 73.88C82.4011 73.5067 81.3078 73.1867 80.1078 72.92C78.9078 72.6533 77.6945 72.3467 76.4678 72C75.2678 71.6267 74.1611 71.16 73.1478 70.6C72.1611 70.04 71.3611 69.2933 70.7478 68.36C70.1345 67.4 69.8278 66.1733 69.8278 64.68C69.8278 63.24 70.2011 61.92 70.9478 60.72C71.7211 59.4933 72.8945 58.52 74.4678 57.8C76.0678 57.0533 78.0945 56.68 80.5478 56.68C82.1745 56.68 83.7878 56.8933 85.3878 57.32C86.9878 57.7467 88.3745 58.36 89.5478 59.16L88.2278 62.36C87.0278 61.56 85.7611 60.9867 84.4278 60.64C83.0945 60.2667 81.8011 60.08 80.5478 60.08C78.9745 60.08 77.6811 60.28 76.6678 60.68C75.6545 61.08 74.9078 61.6133 74.4278 62.28C73.9745 62.9467 73.7478 63.6933 73.7478 64.52C73.7478 65.5067 74.0545 66.2933 74.6678 66.88C75.3078 67.4667 76.1211 67.9333 77.1078 68.28C78.1211 68.6267 79.2278 68.9467 80.4278 69.24C81.6278 69.5067 82.8278 69.8133 84.0278 70.16C85.2545 70.5067 86.3611 70.96 87.3478 71.52C88.3611 72.08 89.1745 72.8267 89.7878 73.76C90.4011 74.6933 90.7078 75.8933 90.7078 77.36C90.7078 78.7733 90.3211 80.0933 89.5478 81.32C88.7745 82.52 87.5745 83.4933 85.9478 84.24C84.3478 84.96 82.3211 85.32 79.8678 85.32Z" fill="white"/>
</svg>
