<svg width="24" height="24" viewBox="0 0 24 24" fill="none" xmlns="http://www.w3.org/2000/svg">
<path d="M12.4025 5.22241H16.0752C16.3971 6.52287 16.5716 7.85545 16.5955 9.19475H12.4023L12.4025 5.22241Z" fill="white"/>
<path d="M7.39062 10.0032H11.5917V13.9776H7.98205C7.96357 13.9817 7.94415 13.9772 7.92915 13.9658C7.91402 13.9545 7.90464 13.9371 7.9033 13.9182C7.74701 13.2923 7.62902 12.6575 7.54999 12.0173C7.49816 11.5931 7.46749 11.1686 7.43293 10.7425C7.41378 10.5121 7.4099 10.2797 7.39838 10.0494C7.39075 10.0358 7.39075 10.0225 7.39075 10.0033L7.39062 10.0032Z" fill="white"/>
<path d="M7.41016 9.19472V8.79924C7.45047 8.2808 7.4869 7.76048 7.54261 7.24407C7.61895 6.57817 7.73949 5.91817 7.90354 5.26836C7.90394 5.25403 7.9105 5.2405 7.92148 5.23139C7.9326 5.22215 7.94706 5.21813 7.96113 5.22041H11.592V9.19481L7.41016 9.19472Z" fill="white"/>
<path d="M16.5822 10.0053V10.3892C16.5418 10.9096 16.5034 11.4317 16.4497 11.9522C16.3728 12.6174 16.2516 13.2767 16.0869 13.9259C16.0865 13.9402 16.0799 13.9537 16.0689 13.9628C16.0578 13.9721 16.0434 13.9761 16.0293 13.9738H12.3984V10.0052L16.5822 10.0053Z" fill="white"/>
<path d="M7.07758 5.22449C6.77999 6.52776 6.61969 7.85846 6.59947 9.19512H2.39844C2.39844 9.08383 2.39844 8.97628 2.41571 8.86874C2.5108 7.61423 2.85272 6.39081 3.42179 5.26874C3.43465 5.23633 3.46773 5.21651 3.50242 5.22079H7.07739L7.07758 5.22449Z" fill="white"/>
<path d="M2.39844 10.0032H6.59947C6.62009 11.3411 6.78107 12.6732 7.07947 13.9776H3.51409C3.47124 13.9821 3.43092 13.9567 3.41619 13.9162C3.03637 13.1575 2.75873 12.3517 2.59066 11.52C2.48887 11.0439 2.42472 10.5604 2.39861 10.0743V10.0033L2.39844 10.0032Z" fill="white"/>
<path d="M21.5989 9.19681H17.3941C17.374 7.85888 17.2131 6.52682 16.9141 5.22242H20.4794C20.5228 5.21826 20.5633 5.24451 20.5773 5.28576C21.1721 6.46327 21.5166 7.75098 21.5892 9.06817C21.5988 9.1066 21.5988 9.14879 21.5988 9.19674L21.5989 9.19681Z" fill="white"/>
<path d="M21.599 10.0032C21.5836 10.2087 21.572 10.4084 21.551 10.6062V10.606C21.5084 11.0159 21.4392 11.4225 21.3436 11.8233C21.1713 12.555 20.9135 13.2639 20.5756 13.9354C20.566 13.9649 20.5375 13.9839 20.5065 13.9815H16.9141C17.2135 12.6759 17.3744 11.3424 17.3941 10.0033L21.599 10.0032Z" fill="white"/>
<path d="M11.5931 19.1674C11.1433 19.0714 10.7249 18.8641 10.3759 18.5646C9.99389 18.2441 9.66084 17.8695 9.38707 17.4529C8.86781 16.6597 8.46255 15.7975 8.18319 14.8916L8.16016 14.7976H11.5932L11.5931 19.1674Z" fill="white"/>
<path d="M12.3985 19.1674V14.7977H15.8391L15.7969 14.9302C15.5922 15.5726 15.3287 16.1947 15.0096 16.7887C14.6782 17.4332 14.2332 18.0127 13.6963 18.4994C13.3303 18.833 12.8824 19.0635 12.3984 19.1676L12.3985 19.1674Z" fill="white"/>
<path d="M11.5932 0.0326881V4.40446H8.16016C8.16016 4.38531 8.16016 4.36991 8.17355 4.35451C8.42038 3.55294 8.76138 2.7834 9.18926 2.06206C9.51096 1.50344 9.92963 1.00671 10.4257 0.595145C10.7636 0.315905 11.1642 0.122928 11.5931 0.0326538L11.5932 0.0326881Z" fill="white"/>
<path d="M15.8391 4.40436H12.4023V0.0343018C12.6393 0.0799703 12.8677 0.161533 13.08 0.276177C13.5311 0.52649 13.9279 0.863869 14.2474 1.26885C14.754 1.89899 15.1613 2.60277 15.4551 3.35586C15.5896 3.68224 15.7009 4.01826 15.8218 4.35042C15.8391 4.36394 15.8391 4.37921 15.8391 4.40426L15.8391 4.40436Z" fill="white"/>
<path d="M9.49179 0.337925C9.40929 0.426183 9.32666 0.512703 9.24603 0.602837V0.602971C8.84478 1.05846 8.4999 1.56057 8.21879 2.09855C7.84244 2.81077 7.54004 3.5597 7.31639 4.33343C7.31305 4.357 7.30046 4.37829 7.28131 4.39236C7.26216 4.40642 7.23805 4.41218 7.21461 4.4083H3.91406C5.20609 2.40995 7.1878 0.95641 9.48206 0.324524L9.49179 0.337925Z" fill="white"/>
<path d="M3.91406 14.784H7.22037C7.24301 14.7802 7.26644 14.7857 7.28492 14.7995C7.3034 14.8133 7.31546 14.8341 7.31827 14.857C7.54408 15.6386 7.85039 16.3946 8.23219 17.113C8.55657 17.737 8.96988 18.3106 9.45897 18.8161L9.48776 18.8487H9.4879C9.48897 18.8569 9.48897 18.8653 9.4879 18.8736C7.19089 18.241 5.20698 16.7853 3.91407 14.784L3.91406 14.784Z" fill="white"/>
<path d="M20.0737 4.41599H16.7789C16.7555 4.41988 16.7315 4.41398 16.7123 4.39992C16.6932 4.38586 16.6805 4.3647 16.6771 4.34113C16.4536 3.56716 16.1512 2.81836 15.7749 2.10625C15.4475 1.47477 15.0297 0.894453 14.5345 0.383939C14.5178 0.37068 14.5047 0.353537 14.4961 0.333984C15.2544 0.530994 15.9842 0.824579 16.6676 1.20758C17.3543 1.59117 17.9914 2.05736 18.5646 2.59574C19.1395 3.1391 19.6463 3.75021 20.0737 4.41597L20.0737 4.41599Z" fill="white"/>
<path d="M14.4961 18.862C14.5786 18.7737 14.6612 18.6872 14.7419 18.5989C15.1385 18.1482 15.4802 17.6521 15.7595 17.1205C16.1398 16.4037 16.4454 15.6497 16.6714 14.8702C16.6719 14.8429 16.6846 14.817 16.7063 14.8003C16.728 14.7834 16.7562 14.7774 16.7828 14.7838H20.0641C19.4282 15.7805 18.614 16.6515 17.6622 17.3529C16.7125 18.0529 15.6378 18.565 14.4961 18.862V18.862Z" fill="white"/>
</svg>
