<svg width="20" height="20" viewBox="0 0 20 20" fill="none" xmlns="http://www.w3.org/2000/svg">
<path d="M10.4025 5.22241H14.0752C14.3971 6.52287 14.5716 7.85545 14.5955 9.19475H10.4023L10.4025 5.22241Z" fill="white"/>
<path d="M5.39062 10.0032H9.59165V13.9776H5.98205C5.96357 13.9817 5.94415 13.9772 5.92915 13.9658C5.91402 13.9545 5.90464 13.9371 5.9033 13.9182C5.74701 13.2923 5.62902 12.6575 5.54999 12.0173C5.49816 11.5931 5.46749 11.1686 5.43293 10.7425C5.41378 10.5121 5.4099 10.2797 5.39838 10.0494C5.39075 10.0358 5.39075 10.0225 5.39075 10.0033L5.39062 10.0032Z" fill="white"/>
<path d="M5.41016 9.19472V8.79924C5.45047 8.2808 5.4869 7.76048 5.54261 7.24407C5.61895 6.57817 5.73949 5.91817 5.90354 5.26836C5.90394 5.25403 5.9105 5.2405 5.92148 5.23139C5.9326 5.22215 5.94706 5.21813 5.96113 5.22041H9.59198V9.19481L5.41016 9.19472Z" fill="white"/>
<path d="M14.5822 10.0053V10.3892C14.5418 10.9096 14.5034 11.4317 14.4497 11.9522C14.3728 12.6174 14.2516 13.2767 14.0869 13.9259C14.0865 13.9402 14.0799 13.9537 14.0689 13.9628C14.0578 13.9721 14.0434 13.9761 14.0293 13.9738H10.3984V10.0052L14.5822 10.0053Z" fill="white"/>
<path d="M5.07758 5.22449C4.77999 6.52776 4.61969 7.85846 4.59947 9.19512H0.398438C0.398438 9.08383 0.398437 8.97628 0.415714 8.86874C0.510802 7.61423 0.85272 6.39081 1.42179 5.26874C1.43465 5.23633 1.46773 5.21651 1.50242 5.22079H5.07739L5.07758 5.22449Z" fill="white"/>
<path d="M0.398438 10.0032H4.59947C4.62009 11.3411 4.78107 12.6732 5.07947 13.9776H1.51409C1.47124 13.9821 1.43092 13.9567 1.41619 13.9162C1.03637 13.1575 0.758729 12.3517 0.59066 11.52C0.488873 11.0439 0.424724 10.5604 0.398605 10.0743V10.0033L0.398438 10.0032Z" fill="white"/>
<path d="M19.5989 9.19681H15.3941C15.374 7.85888 15.2131 6.52682 14.9141 5.22242H18.4794C18.5228 5.21826 18.5633 5.24451 18.5773 5.28576C19.1721 6.46327 19.5166 7.75098 19.5892 9.06817C19.5988 9.1066 19.5988 9.14879 19.5988 9.19674L19.5989 9.19681Z" fill="white"/>
<path d="M19.599 10.0032C19.5836 10.2087 19.572 10.4084 19.551 10.6062V10.606C19.5084 11.0159 19.4392 11.4225 19.3436 11.8233C19.1713 12.555 18.9135 13.2639 18.5756 13.9354C18.566 13.9649 18.5375 13.9839 18.5065 13.9815H14.9141C15.2135 12.6759 15.3744 11.3424 15.3941 10.0033L19.599 10.0032Z" fill="white"/>
<path d="M9.59315 19.1674C9.14328 19.0714 8.7249 18.8641 8.37587 18.5646C7.99389 18.2441 7.66084 17.8695 7.38707 17.4529C6.86781 16.6597 6.46255 15.7975 6.18319 14.8916L6.16016 14.7976H9.59319L9.59315 19.1674Z" fill="white"/>
<path d="M10.3985 19.1674V14.7977H13.8391L13.7969 14.9302C13.5922 15.5726 13.3287 16.1947 13.0096 16.7887C12.6782 17.4332 12.2332 18.0127 11.6963 18.4994C11.3303 18.833 10.8824 19.0635 10.3984 19.1676L10.3985 19.1674Z" fill="white"/>
<path d="M9.59318 0.0326881V4.40446H6.16016C6.16016 4.38531 6.16016 4.36991 6.17355 4.35451C6.42038 3.55294 6.76138 2.7834 7.18926 2.06206C7.51096 1.50344 7.92963 1.00671 8.42567 0.595145C8.76358 0.315905 9.16416 0.122928 9.59314 0.0326538L9.59318 0.0326881Z" fill="white"/>
<path d="M13.8391 4.40436H10.4023V0.0343018C10.6393 0.0799703 10.8677 0.161533 11.08 0.276177C11.5311 0.52649 11.9279 0.863869 12.2474 1.26885C12.754 1.89899 13.1613 2.60277 13.4551 3.35586C13.5896 3.68224 13.7009 4.01826 13.8218 4.35042C13.8391 4.36394 13.8391 4.37921 13.8391 4.40426L13.8391 4.40436Z" fill="white"/>
<path d="M7.49179 0.337925C7.40929 0.426183 7.32666 0.512703 7.24603 0.602837V0.602971C6.84478 1.05846 6.4999 1.56057 6.21879 2.09855C5.84244 2.81077 5.54004 3.5597 5.31639 4.33343C5.31305 4.357 5.30046 4.37829 5.28131 4.39236C5.26216 4.40642 5.23805 4.41218 5.21461 4.4083H1.91406C3.20609 2.40995 5.1878 0.95641 7.48206 0.324524L7.49179 0.337925Z" fill="white"/>
<path d="M1.91406 14.784H5.22037C5.24301 14.7802 5.26644 14.7857 5.28492 14.7995C5.3034 14.8133 5.31546 14.8341 5.31827 14.857C5.54408 15.6386 5.85039 16.3946 6.23219 17.113C6.55657 17.737 6.96988 18.3106 7.45897 18.8161L7.48776 18.8487H7.4879C7.48897 18.8569 7.48897 18.8653 7.4879 18.8736C5.19089 18.241 3.20698 16.7853 1.91407 14.784L1.91406 14.784Z" fill="white"/>
<path d="M18.0737 4.41599H14.7789C14.7555 4.41988 14.7315 4.41398 14.7123 4.39992C14.6932 4.38586 14.6805 4.3647 14.6771 4.34113C14.4536 3.56716 14.1512 2.81836 13.7749 2.10625C13.4475 1.47477 13.0297 0.894453 12.5345 0.383939C12.5178 0.37068 12.5047 0.353537 12.4961 0.333984C13.2544 0.530994 13.9842 0.824579 14.6676 1.20758C15.3543 1.59117 15.9914 2.05736 16.5646 2.59574C17.1395 3.1391 17.6463 3.75021 18.0737 4.41597L18.0737 4.41599Z" fill="white"/>
<path d="M12.4961 18.862C12.5786 18.7737 12.6612 18.6872 12.7419 18.5989C13.1385 18.1482 13.4802 17.6521 13.7595 17.1205C14.1398 16.4037 14.4454 15.6497 14.6714 14.8702C14.6719 14.8429 14.6846 14.817 14.7063 14.8003C14.728 14.7834 14.7562 14.7774 14.7828 14.7838H18.0641C17.4282 15.7805 16.614 16.6515 15.6622 17.3529C14.7125 18.0529 13.6378 18.565 12.4961 18.862V18.862Z" fill="white"/>
</svg>
